<svg width="433" height="319" viewBox="0 0 433 319" fill="none" xmlns="http://www.w3.org/2000/svg">
<path d="M389.261 280.145H360.62V280.324H389.261V280.145Z" fill="#EBEBEB"/>
<path d="M286.622 282.08H279.107V282.259H286.622V282.08Z" fill="#EBEBEB"/>
<path d="M359.746 273.512H343.151V273.69H359.746V273.512Z" fill="#EBEBEB"/>
<path d="M82.9193 274.711H45.5703V274.89H82.9193V274.711Z" fill="#EBEBEB"/>
<path d="M96.0901 274.711H90.6162V274.89H96.0901V274.711Z" fill="#EBEBEB"/>
<path d="M194.906 277.725H113.896V277.903H194.906V277.725Z" fill="#EBEBEB"/>
<path d="M206.779 240.375H39.7942C38.4861 240.375 37.2315 239.947 36.3057 239.184C35.38 238.421 34.8587 237.385 34.8564 236.305V42.4973C34.8587 41.4173 35.38 40.3821 36.3057 39.6191C37.2315 38.856 38.4861 38.4275 39.7942 38.4275H206.779C208.087 38.4275 209.342 38.856 210.268 39.6191C211.194 40.3821 211.715 41.4173 211.717 42.4973V236.334C211.706 237.409 211.18 238.437 210.256 239.194C209.331 239.951 208.081 240.375 206.779 240.375ZM39.7942 38.606C38.5435 38.606 37.3438 39.0157 36.4586 39.7453C35.5734 40.4748 35.0749 41.4646 35.0726 42.4973V236.334C35.0749 237.367 35.5734 238.356 36.4586 239.086C37.3438 239.816 38.5435 240.225 39.7942 240.225H206.779C208.03 240.225 209.23 239.816 210.115 239.086C211 238.356 211.499 237.367 211.501 236.334V42.4973C211.499 41.4646 211 40.4748 210.115 39.7453C209.23 39.0157 208.03 38.606 206.779 38.606H39.7942Z" fill="#EBEBEB"/>
<path d="M393.826 240.375H226.841C225.533 240.375 224.278 239.947 223.353 239.184C222.427 238.421 221.906 237.385 221.903 236.305V42.4973C221.906 41.4173 222.427 40.3821 223.353 39.6191C224.278 38.856 225.533 38.4275 226.841 38.4275H393.826C395.134 38.4275 396.389 38.856 397.315 39.6191C398.24 40.3821 398.762 41.4173 398.764 42.4973V236.334C398.753 237.409 398.227 238.437 397.303 239.194C396.378 239.951 395.128 240.375 393.826 240.375ZM226.841 38.606C225.59 38.606 224.391 39.0157 223.505 39.7453C222.62 40.4748 222.122 41.4646 222.12 42.4973V236.334C222.122 237.367 222.62 238.356 223.505 239.086C224.391 239.816 225.59 240.225 226.841 240.225H393.826C395.077 240.225 396.277 239.816 397.162 239.086C398.047 238.356 398.546 237.367 398.548 236.334V42.4973C398.546 41.4646 398.047 40.4748 397.162 39.7453C396.277 39.0157 395.077 38.606 393.826 38.606H226.841Z" fill="#EBEBEB"/>
<path d="M432.585 272.22H0.205078V272.398H432.585V272.22Z" fill="#EBEBEB"/>
<path d="M250.155 167.055H194.62V253.477H250.155V167.055Z" fill="#EBEBEB"/>
<path d="M205.283 155.973V167.055H209.668H235.109H239.493V155.973H205.283Z" fill="#EBEBEB"/>
<path d="M205.283 169.989H198.175V175.858H205.283V169.989Z" fill="#FAFAFA"/>
<path d="M219.059 169.989H211.95V175.858H219.059V169.989Z" fill="#FAFAFA"/>
<path d="M232.826 169.989H225.718V175.858H232.826V169.989Z" fill="#FAFAFA"/>
<path d="M246.601 169.989H239.493V175.858H246.601V169.989Z" fill="#FAFAFA"/>
<path d="M205.283 180.656H198.175V186.525H205.283V180.656Z" fill="#FAFAFA"/>
<path d="M219.059 180.656H211.95V186.525H219.059V180.656Z" fill="#FAFAFA"/>
<path d="M232.826 180.656H225.718V186.525H232.826V180.656Z" fill="#FAFAFA"/>
<path d="M246.601 180.656H239.493V186.525H246.601V180.656Z" fill="#FAFAFA"/>
<path d="M205.283 191.316H198.175V197.185H205.283V191.316Z" fill="#FAFAFA"/>
<path d="M219.059 191.316H211.95V197.185H219.059V191.316Z" fill="#FAFAFA"/>
<path d="M232.826 191.316H225.718V197.185H232.826V191.316Z" fill="#FAFAFA"/>
<path d="M219.059 160.764H211.95V166.633H219.059V160.764Z" fill="#FAFAFA"/>
<path d="M232.826 160.764H225.718V166.633H232.826V160.764Z" fill="#FAFAFA"/>
<path d="M246.601 191.316H239.493V197.185H246.601V191.316Z" fill="#FAFAFA"/>
<path d="M205.283 201.983H198.175V207.852H205.283V201.983Z" fill="#FAFAFA"/>
<path d="M219.059 201.983H211.95V207.852H219.059V201.983Z" fill="#FAFAFA"/>
<path d="M232.826 201.983H225.718V207.852H232.826V201.983Z" fill="#FAFAFA"/>
<path d="M246.601 201.983H239.493V207.852H246.601V201.983Z" fill="#FAFAFA"/>
<path d="M205.283 212.651H198.175V218.52H205.283V212.651Z" fill="#FAFAFA"/>
<path d="M219.059 212.651H211.95V218.52H219.059V212.651Z" fill="#FAFAFA"/>
<path d="M232.826 212.651H225.718V218.52H232.826V212.651Z" fill="#FAFAFA"/>
<path d="M246.601 212.651H239.493V218.52H246.601V212.651Z" fill="#FAFAFA"/>
<path d="M205.283 223.318H198.175V229.187H205.283V223.318Z" fill="#FAFAFA"/>
<path d="M219.059 223.318H211.95V229.187H219.059V223.318Z" fill="#FAFAFA"/>
<path d="M232.826 223.318H225.718V229.187H232.826V223.318Z" fill="#FAFAFA"/>
<path d="M246.601 223.318H239.493V229.187H246.601V223.318Z" fill="#FAFAFA"/>
<path d="M205.283 233.985H198.175V239.854H205.283V233.985Z" fill="#FAFAFA"/>
<path d="M219.059 233.985H211.95V239.854H219.059V233.985Z" fill="#FAFAFA"/>
<path d="M232.826 233.985H225.718V239.854H232.826V233.985Z" fill="#FAFAFA"/>
<path d="M246.601 233.985H239.493V239.854H246.601V233.985Z" fill="#FAFAFA"/>
<path d="M193.469 167.112H251.296V165.912H193.469V167.112Z" fill="#F5F5F5"/>
<path d="M196.168 152.089H130.152V253.477H196.168V152.089Z" fill="#E6E6E6"/>
<path d="M142.829 138.916V152.089H148.035H178.284H183.49V138.916H142.829Z" fill="#E6E6E6"/>
<path d="M128.787 152.161H197.526V150.74H128.787V152.161Z" fill="#F5F5F5"/>
<path d="M141.109 138.916H185.221V137.495H141.109V138.916Z" fill="#F5F5F5"/>
<path d="M182.402 152.089H116.386V253.477H182.402V152.089Z" fill="#F0F0F0"/>
<path d="M129.063 138.916V152.089H134.269H164.519H169.724V138.916H129.063Z" fill="#F0F0F0"/>
<path d="M129.063 155.573H120.614V162.549H129.063V155.573Z" fill="white"/>
<path d="M145.433 155.573H136.984V162.549H145.433V155.573Z" fill="white"/>
<path d="M161.802 155.573H153.354V162.549H161.802V155.573Z" fill="white"/>
<path d="M178.172 155.573H169.724V162.549H178.172V155.573Z" fill="white"/>
<path d="M129.063 168.254H120.614V175.23H129.063V168.254Z" fill="white"/>
<path d="M145.433 168.254H136.984V175.23H145.433V168.254Z" fill="white"/>
<path d="M161.802 168.254H153.354V175.23H161.802V168.254Z" fill="white"/>
<path d="M178.172 168.254H169.724V175.23H178.172V168.254Z" fill="white"/>
<path d="M129.063 180.935H120.614V187.911H129.063V180.935Z" fill="white"/>
<path d="M145.433 180.935H136.984V187.911H145.433V180.935Z" fill="white"/>
<path d="M161.802 180.935H153.354V187.911H161.802V180.935Z" fill="white"/>
<path d="M145.433 144.614H136.984V151.589H145.433V144.614Z" fill="white"/>
<path d="M161.802 144.614H153.354V151.589H161.802V144.614Z" fill="white"/>
<path d="M178.172 180.935H169.724V187.911H178.172V180.935Z" fill="white"/>
<path d="M129.063 193.615H120.614V200.591H129.063V193.615Z" fill="white"/>
<path d="M145.433 193.615H136.984V200.591H145.433V193.615Z" fill="white"/>
<path d="M161.802 193.615H153.354V200.591H161.802V193.615Z" fill="white"/>
<path d="M178.172 193.615H169.724V200.591H178.172V193.615Z" fill="white"/>
<path d="M129.063 206.296H120.614V213.272H129.063V206.296Z" fill="white"/>
<path d="M145.433 206.296H136.984V213.272H145.433V206.296Z" fill="white"/>
<path d="M161.802 206.296H153.354V213.272H161.802V206.296Z" fill="white"/>
<path d="M178.172 206.296H169.724V213.272H178.172V206.296Z" fill="white"/>
<path d="M129.063 218.969H120.614V225.945H129.063V218.969Z" fill="white"/>
<path d="M145.433 218.969H136.984V225.945H145.433V218.969Z" fill="white"/>
<path d="M161.802 218.969H153.354V225.945H161.802V218.969Z" fill="white"/>
<path d="M178.172 218.969H169.724V225.945H178.172V218.969Z" fill="white"/>
<path d="M129.063 231.65H120.614V238.626H129.063V231.65Z" fill="white"/>
<path d="M145.433 231.65H136.984V238.626H145.433V231.65Z" fill="white"/>
<path d="M161.802 231.65H153.354V238.626H161.802V231.65Z" fill="white"/>
<path d="M178.172 231.65H169.724V238.626H178.172V231.65Z" fill="white"/>
<path d="M115.028 152.161H183.768V150.74H115.028V152.161Z" fill="#F5F5F5"/>
<path d="M127.342 138.916H171.453V137.495H127.342V138.916Z" fill="#F5F5F5"/>
<path d="M83.1611 198.014H46.21V253.07H105.178V198.014V176.758L83.1611 198.014Z" fill="#F5F5F5"/>
<path d="M116.187 176.758H105.179V253.07H116.187V176.758Z" fill="#E6E6E6"/>
<path d="M57.7373 207.724H48.96V214.971H57.7373V207.724Z" fill="#E0E0E0"/>
<path opacity="0.3" d="M57.7376 207.724H49.9375V214.971H57.7376V207.724Z" fill="white"/>
<path d="M57.7373 219.919H48.96V227.166H57.7373V219.919Z" fill="#E0E0E0"/>
<path opacity="0.3" d="M57.7376 219.919H49.9375V227.166H57.7376V219.919Z" fill="white"/>
<path d="M57.7373 232.107H48.96V239.354H57.7373V232.107Z" fill="#E0E0E0"/>
<path opacity="0.3" d="M57.7376 232.107H49.9375V239.354H57.7376V232.107Z" fill="white"/>
<path opacity="0.2" d="M58.7148 232.107H49.9375V239.354H58.7148V232.107Z" fill="white"/>
<path d="M72.5332 207.724H63.7559V214.971H72.5332V207.724Z" fill="#E0E0E0"/>
<path opacity="0.3" d="M72.5335 207.724H64.7334V214.971H72.5335V207.724Z" fill="white"/>
<path d="M72.5332 219.919H63.7559V227.166H72.5332V219.919Z" fill="#E0E0E0"/>
<path opacity="0.3" d="M72.5335 219.919H64.7334V227.166H72.5335V219.919Z" fill="white"/>
<path d="M72.5332 232.107H63.7559V239.354H72.5332V232.107Z" fill="#E0E0E0"/>
<path opacity="0.3" d="M72.5335 232.107H64.7334V239.354H72.5335V232.107Z" fill="white"/>
<path opacity="0.2" d="M73.5107 232.107H64.7334V239.354H73.5107V232.107Z" fill="white"/>
<path d="M87.33 207.724H78.5527V214.971H87.33V207.724Z" fill="#E0E0E0"/>
<path opacity="0.3" d="M87.3294 207.724H79.5293V214.971H87.3294V207.724Z" fill="white"/>
<path d="M87.33 219.919H78.5527V227.166H87.33V219.919Z" fill="#E0E0E0"/>
<path opacity="0.3" d="M87.3294 219.919H79.5293V227.166H87.3294V219.919Z" fill="white"/>
<path d="M87.33 232.107H78.5527V239.354H87.33V232.107Z" fill="#E0E0E0"/>
<path opacity="0.3" d="M87.3294 232.107H79.5293V239.354H87.3294V232.107Z" fill="white"/>
<path opacity="0.2" d="M88.3066 232.107H79.5293V239.354H88.3066V232.107Z" fill="white"/>
<path d="M102.117 207.724H93.3398V214.971H102.117V207.724Z" fill="#E0E0E0"/>
<path opacity="0.3" d="M102.117 207.724H94.3164V214.971H102.117V207.724Z" fill="white"/>
<path d="M102.117 219.919H93.3398V227.166H102.117V219.919Z" fill="#E0E0E0"/>
<path opacity="0.3" d="M102.117 219.919H94.3164V227.166H102.117V219.919Z" fill="white"/>
<path d="M102.117 232.107H93.3398V239.354H102.117V232.107Z" fill="#E0E0E0"/>
<path opacity="0.3" d="M102.117 232.107H94.3164V239.354H102.117V232.107Z" fill="white"/>
<path opacity="0.2" d="M103.103 232.107H94.3252V239.354H103.103V232.107Z" fill="white"/>
<path d="M297.579 78.8686L320.607 78.6544C321.425 78.6456 322.227 78.8342 322.916 79.197C330.198 84.909 338.586 81.6103 342.313 79.6111C343.731 78.8445 345.383 78.4238 347.078 78.3973L372.735 78.1546C382.369 78.0618 384.539 66.9091 375.407 64.3887L375.061 64.2601C385.023 57.2487 362.747 42.8401 339.053 63.2962C340.834 56.5418 319.552 59.1764 313.162 68.4299C310.758 62.4466 290.583 73.128 297.579 78.8686Z" fill="#F0F0F0"/>
<path d="M165.98 106.979H204.219C209.114 106.979 210.273 101.317 205.672 99.9885L205.491 99.9385C210.61 96.4185 199.385 88.9929 187.184 99.2745C188.135 95.8473 177.291 97.0826 173.979 101.759C172.803 98.6891 162.46 104.023 165.98 106.979Z" fill="#F0F0F0"/>
<path d="M58.9312 79.861H123.892C132.211 79.861 134.217 70.2434 126.357 67.98L126.054 67.9015C134.753 61.9181 115.677 49.3375 94.9225 66.7662C96.5396 60.9471 78.1202 63.0534 72.4907 70.9931C70.519 65.7809 52.9557 74.8344 58.9312 79.861Z" fill="#F0F0F0"/>
<path d="M237.832 188.796H182.756V258.675H237.832V188.796Z" fill="#7F3DFF"/>
<path opacity="0.6" d="M228.536 188.789H182.756V258.675H228.536V188.789Z" fill="white"/>
<path opacity="0.3" d="M237.841 188.789H228.536V258.675H237.841V188.789Z" fill="white"/>
<path d="M196.678 192.344H186.69V200.591H196.678V192.344Z" fill="#7F3DFF"/>
<path d="M210.636 192.344H200.648V200.591H210.636V192.344Z" fill="#7F3DFF"/>
<path d="M224.601 192.344H214.613V200.591H224.601V192.344Z" fill="#7F3DFF"/>
<path d="M196.678 203.09H186.69V211.337H196.678V203.09Z" fill="#7F3DFF"/>
<path d="M210.636 203.09H200.648V211.337H210.636V203.09Z" fill="#7F3DFF"/>
<path d="M224.601 203.09H214.613V211.337H224.601V203.09Z" fill="#7F3DFF"/>
<path d="M196.678 213.836H186.69V222.083H196.678V213.836Z" fill="#7F3DFF"/>
<path d="M210.636 213.836H200.648V222.083H210.636V213.836Z" fill="#7F3DFF"/>
<path d="M224.601 213.836H214.613V222.083H224.601V213.836Z" fill="#7F3DFF"/>
<path d="M196.678 224.582H186.69V232.828H196.678V224.582Z" fill="#7F3DFF"/>
<path d="M210.636 224.582H200.648V232.828H210.636V224.582Z" fill="#7F3DFF"/>
<path d="M224.601 224.582H214.613V232.828H224.601V224.582Z" fill="#7F3DFF"/>
<path d="M196.678 235.327H186.69V243.574H196.678V235.327Z" fill="#7F3DFF"/>
<path d="M210.636 235.327H200.648V243.574H210.636V235.327Z" fill="#7F3DFF"/>
<path d="M224.601 235.327H214.613V243.574H224.601V235.327Z" fill="#7F3DFF"/>
<path d="M196.678 248.929H186.69V258.675H196.678V248.929Z" fill="#7F3DFF"/>
<path d="M210.636 246.073H200.648V258.675H210.636V246.073Z" fill="#7F3DFF"/>
<path d="M224.601 248.929H214.613V258.675H224.601V248.929Z" fill="#7F3DFF"/>
<path opacity="0.4" d="M196.678 192.344H187.512V200.591H196.678V192.344Z" fill="white"/>
<path opacity="0.4" d="M210.645 192.344H201.479V200.591H210.645V192.344Z" fill="white"/>
<path opacity="0.4" d="M224.61 192.344H215.443V200.591H224.61V192.344Z" fill="white"/>
<path opacity="0.4" d="M196.678 203.09H187.512V211.337H196.678V203.09Z" fill="white"/>
<path opacity="0.4" d="M210.645 203.09H201.479V211.337H210.645V203.09Z" fill="white"/>
<path opacity="0.4" d="M224.61 203.09H215.443V211.337H224.61V203.09Z" fill="white"/>
<path opacity="0.4" d="M196.678 213.836H187.512V222.083H196.678V213.836Z" fill="white"/>
<path opacity="0.4" d="M210.645 213.836H201.479V222.083H210.645V213.836Z" fill="white"/>
<path opacity="0.4" d="M224.61 213.836H215.443V222.083H224.61V213.836Z" fill="white"/>
<path opacity="0.4" d="M196.678 224.582H187.512V232.828H196.678V224.582Z" fill="white"/>
<path opacity="0.4" d="M210.645 224.582H201.479V232.828H210.645V224.582Z" fill="white"/>
<path opacity="0.4" d="M224.61 224.582H215.443V232.828H224.61V224.582Z" fill="white"/>
<path opacity="0.4" d="M196.678 235.327H187.512V243.574H196.678V235.327Z" fill="white"/>
<path opacity="0.4" d="M210.645 235.327H201.479V243.574H210.645V235.327Z" fill="white"/>
<path opacity="0.4" d="M224.61 235.327H215.443V243.574H224.61V235.327Z" fill="white"/>
<path opacity="0.4" d="M196.678 248.929H187.512V258.675H196.678V248.929Z" fill="white"/>
<path opacity="0.4" d="M210.645 246.073H201.479V258.675H210.645V246.073Z" fill="white"/>
<path opacity="0.4" d="M224.61 248.929H215.443V258.675H224.61V248.929Z" fill="white"/>
<path d="M179.409 185.769H247.276L245.261 189.317H181.433L179.409 185.769Z" fill="#7F3DFF"/>
<path opacity="0.2" d="M229.539 185.769H247.275L245.26 189.317H228.57L229.539 185.769Z" fill="black"/>
<path d="M381.823 146.991H326.236V258.675H381.823V146.991Z" fill="#7F3DFF"/>
<path opacity="0.4" d="M368.523 146.991H326.236V258.675H368.523V146.991Z" fill="white"/>
<path d="M384.426 143.685H323.625V147.248H384.426V143.685Z" fill="#7F3DFF"/>
<path opacity="0.2" d="M384.426 143.685H368.532V147.248H384.426V143.685Z" fill="black"/>
<path opacity="0.3" d="M381.832 147.248H368.532V258.675H381.832V147.248Z" fill="white"/>
<path d="M339.096 151.447H331.91V160.436H339.096V151.447Z" fill="#7F3DFF"/>
<path opacity="0.2" d="M339.096 152.039H331.91V160.429H339.096V152.039Z" fill="white"/>
<path d="M332.939 151.447H331.91V160.436H332.939V151.447Z" fill="#7F3DFF"/>
<path d="M350.416 151.447H343.229V160.436H350.416V151.447Z" fill="#7F3DFF"/>
<path opacity="0.2" d="M350.416 152.039H343.229V160.429H350.416V152.039Z" fill="white"/>
<path d="M344.259 151.447H343.229V160.436H344.259V151.447Z" fill="#7F3DFF"/>
<path d="M361.735 151.447H354.549V160.436H361.735V151.447Z" fill="#7F3DFF"/>
<path opacity="0.2" d="M361.735 152.039H354.549V160.429H361.735V152.039Z" fill="white"/>
<path d="M355.578 151.447H354.549V160.436H355.578V151.447Z" fill="#7F3DFF"/>
<path d="M339.096 164.984H331.91V173.973H339.096V164.984Z" fill="#7F3DFF"/>
<path opacity="0.2" d="M339.096 165.577H331.91V173.966H339.096V165.577Z" fill="white"/>
<path d="M332.939 164.984H331.91V173.973H332.939V164.984Z" fill="#7F3DFF"/>
<path d="M350.416 164.984H343.229V173.973H350.416V164.984Z" fill="#7F3DFF"/>
<path opacity="0.2" d="M350.416 165.577H343.229V173.966H350.416V165.577Z" fill="white"/>
<path d="M344.259 164.984H343.229V173.973H344.259V164.984Z" fill="#7F3DFF"/>
<path d="M361.735 164.984H354.549V173.973H361.735V164.984Z" fill="#7F3DFF"/>
<path opacity="0.2" d="M361.735 165.577H354.549V173.966H361.735V165.577Z" fill="white"/>
<path d="M355.578 164.984H354.549V173.973H355.578V164.984Z" fill="#7F3DFF"/>
<path d="M339.096 178.514H331.91V187.504H339.096V178.514Z" fill="#7F3DFF"/>
<path opacity="0.2" d="M339.096 179.114H331.91V187.504H339.096V179.114Z" fill="white"/>
<path d="M332.939 178.514H331.91V187.504H332.939V178.514Z" fill="#7F3DFF"/>
<path d="M350.416 178.514H343.229V187.504H350.416V178.514Z" fill="#7F3DFF"/>
<path opacity="0.2" d="M350.416 179.114H343.229V187.504H350.416V179.114Z" fill="white"/>
<path d="M344.259 178.514H343.229V187.504H344.259V178.514Z" fill="#7F3DFF"/>
<path d="M361.735 178.514H354.549V187.504H361.735V178.514Z" fill="#7F3DFF"/>
<path opacity="0.2" d="M361.735 179.114H354.549V187.504H361.735V179.114Z" fill="white"/>
<path d="M355.578 178.514H354.549V187.504H355.578V178.514Z" fill="#7F3DFF"/>
<path d="M339.096 192.052H331.91V201.041H339.096V192.052Z" fill="#7F3DFF"/>
<path opacity="0.2" d="M339.096 192.652H331.91V201.041H339.096V192.652Z" fill="white"/>
<path d="M332.939 192.052H331.91V201.041H332.939V192.052Z" fill="#7F3DFF"/>
<path d="M350.416 192.052H343.229V201.041H350.416V192.052Z" fill="#7F3DFF"/>
<path opacity="0.2" d="M350.416 192.652H343.229V201.041H350.416V192.652Z" fill="white"/>
<path d="M344.259 192.052H343.229V201.041H344.259V192.052Z" fill="#7F3DFF"/>
<path d="M361.735 192.052H354.549V201.041H361.735V192.052Z" fill="#7F3DFF"/>
<path opacity="0.2" d="M361.735 192.652H354.549V201.041H361.735V192.652Z" fill="white"/>
<path d="M355.578 192.052H354.549V201.041H355.578V192.052Z" fill="#7F3DFF"/>
<path d="M339.096 205.589H331.91V214.578H339.096V205.589Z" fill="#7F3DFF"/>
<path opacity="0.2" d="M339.096 206.182H331.91V214.571H339.096V206.182Z" fill="white"/>
<path d="M332.939 205.589H331.91V214.578H332.939V205.589Z" fill="#7F3DFF"/>
<path d="M350.416 205.589H343.229V214.578H350.416V205.589Z" fill="#7F3DFF"/>
<path opacity="0.2" d="M350.416 206.182H343.229V214.571H350.416V206.182Z" fill="white"/>
<path d="M344.259 205.589H343.229V214.578H344.259V205.589Z" fill="#7F3DFF"/>
<path d="M361.735 205.589H354.549V214.578H361.735V205.589Z" fill="#7F3DFF"/>
<path opacity="0.2" d="M361.735 206.182H354.549V214.571H361.735V206.182Z" fill="white"/>
<path d="M355.578 205.589H354.549V214.578H355.578V205.589Z" fill="#7F3DFF"/>
<path d="M339.096 219.12H331.91V228.109H339.096V219.12Z" fill="#7F3DFF"/>
<path opacity="0.2" d="M339.096 219.719H331.91V228.109H339.096V219.719Z" fill="white"/>
<path d="M332.939 219.12H331.91V228.109H332.939V219.12Z" fill="#7F3DFF"/>
<path d="M350.416 219.12H343.229V228.109H350.416V219.12Z" fill="#7F3DFF"/>
<path opacity="0.2" d="M350.416 219.719H343.229V228.109H350.416V219.719Z" fill="white"/>
<path d="M344.259 219.12H343.229V228.109H344.259V219.12Z" fill="#7F3DFF"/>
<path d="M361.735 219.12H354.549V228.109H361.735V219.12Z" fill="#7F3DFF"/>
<path opacity="0.2" d="M361.735 219.719H354.549V228.109H361.735V219.719Z" fill="white"/>
<path d="M355.578 219.12H354.549V228.109H355.578V219.12Z" fill="#7F3DFF"/>
<path d="M339.096 232.657H331.91V241.646H339.096V232.657Z" fill="#7F3DFF"/>
<path opacity="0.2" d="M339.096 233.257H331.91V241.646H339.096V233.257Z" fill="white"/>
<path d="M332.939 232.657H331.91V241.646H332.939V232.657Z" fill="#7F3DFF"/>
<path d="M350.416 232.657H343.229V241.646H350.416V232.657Z" fill="#7F3DFF"/>
<path opacity="0.2" d="M350.416 233.257H343.229V241.646H350.416V233.257Z" fill="white"/>
<path d="M344.259 232.657H343.229V241.646H344.259V232.657Z" fill="#7F3DFF"/>
<path d="M361.735 232.657H354.549V241.646H361.735V232.657Z" fill="#7F3DFF"/>
<path opacity="0.2" d="M361.735 233.257H354.549V241.646H361.735V233.257Z" fill="white"/>
<path d="M355.578 232.657H354.549V241.646H355.578V232.657Z" fill="#7F3DFF"/>
<path d="M339.096 246.194H331.91V255.184H339.096V246.194Z" fill="#7F3DFF"/>
<path opacity="0.2" d="M339.096 246.787H331.91V255.177H339.096V246.787Z" fill="white"/>
<path d="M332.939 246.194H331.91V255.184H332.939V246.194Z" fill="#7F3DFF"/>
<path d="M350.416 246.194H343.229V255.184H350.416V246.194Z" fill="#7F3DFF"/>
<path opacity="0.2" d="M350.416 246.787H343.229V255.177H350.416V246.787Z" fill="white"/>
<path d="M344.259 246.194H343.229V255.184H344.259V246.194Z" fill="#7F3DFF"/>
<path d="M361.735 246.194H354.549V255.184H361.735V246.194Z" fill="#7F3DFF"/>
<path opacity="0.2" d="M361.735 246.787H354.549V255.177H361.735V246.787Z" fill="white"/>
<path d="M355.578 246.194H354.549V255.184H355.578V246.194Z" fill="#7F3DFF"/>
<path d="M264.649 83.6594H263.412V105.651H264.649V83.6594Z" fill="#263238"/>
<path d="M291.526 83.6594H290.289V105.651H291.526V83.6594Z" fill="#263238"/>
<path d="M314.779 93.6768H273.003V111.905H314.779V93.6768Z" fill="#7F3DFF"/>
<path opacity="0.7" d="M314.779 93.6768H273.003V111.905H314.779V93.6768Z" fill="white"/>
<path d="M290.617 93.6768H248.841V111.905H290.617V93.6768Z" fill="#7F3DFF"/>
<path opacity="0.4" d="M290.617 93.6768H248.841V111.905H290.617V93.6768Z" fill="white"/>
<path opacity="0.5" d="M244.872 121.68H242.779V128.82H244.872V121.68Z" fill="white"/>
<path opacity="0.5" d="M244.872 140.115H242.779V147.255H244.872V140.115Z" fill="white"/>
<path opacity="0.5" d="M244.872 152.596H242.779V159.736H244.872V152.596Z" fill="white"/>
<path opacity="0.5" d="M244.872 165.084H242.779V172.224H244.872V165.084Z" fill="white"/>
<path opacity="0.5" d="M244.872 177.565H242.779V184.705H244.872V177.565Z" fill="white"/>
<path opacity="0.5" d="M244.872 190.045H242.779V197.185H244.872V190.045Z" fill="white"/>
<path opacity="0.5" d="M244.872 203.804H242.779V210.944H244.872V203.804Z" fill="white"/>
<path opacity="0.5" d="M244.872 217.563H242.779V224.703H244.872V217.563Z" fill="white"/>
<path opacity="0.5" d="M244.872 231.315H242.779V238.455H244.872V231.315Z" fill="white"/>
<path opacity="0.5" d="M244.872 245.073H242.779V252.213H244.872V245.073Z" fill="white"/>
<path d="M326.54 112.169H261.259V258.675H326.54V112.169Z" fill="#7F3DFF"/>
<path d="M302.361 112.169H237.08V258.675H302.361V112.169Z" fill="#7F3DFF"/>
<path opacity="0.3" d="M326.531 114.183H302.369V258.682H326.531V114.183Z" fill="white"/>
<path opacity="0.5" d="M302.361 112.169H237.08V258.675H302.361V112.169Z" fill="white"/>
<path d="M296.179 118.574H288.171V255.176H296.179V118.574Z" fill="#7F3DFF"/>
<path d="M280.751 118.574H272.743V255.176H280.751V118.574Z" fill="#7F3DFF"/>
<path d="M265.323 118.574H257.315V255.176H265.323V118.574Z" fill="#7F3DFF"/>
<path d="M249.887 118.574H241.879V255.176H249.887V118.574Z" fill="#7F3DFF"/>
<path opacity="0.2" d="M296.179 120.302H288.171V255.177H296.179V120.302Z" fill="white"/>
<path opacity="0.2" d="M280.751 120.302H272.743V255.177H280.751V120.302Z" fill="white"/>
<path opacity="0.2" d="M265.323 120.302H257.315V255.177H265.323V120.302Z" fill="white"/>
<path opacity="0.2" d="M249.887 120.302H241.879V255.177H249.887V120.302Z" fill="white"/>
<path d="M323.746 118.574H320.391V255.176H323.746V118.574Z" fill="#7F3DFF"/>
<path d="M317.278 118.574H313.923V255.176H317.278V118.574Z" fill="#7F3DFF"/>
<path d="M310.801 118.574H307.445V255.176H310.801V118.574Z" fill="#7F3DFF"/>
<g opacity="0.3">
<path opacity="0.4" d="M323.746 120.302H320.391V255.177H323.746V120.302Z" fill="white"/>
<path opacity="0.4" d="M317.277 120.302H313.922V255.177H317.277V120.302Z" fill="white"/>
<path opacity="0.4" d="M310.801 120.302H307.445V255.177H310.801V120.302Z" fill="white"/>
</g>
<path d="M325.138 108.007H302.369V110.756H325.138V108.007Z" fill="#7F3DFF"/>
<path d="M325.139 107.336H237.08V110.756H325.139V107.336Z" fill="#F0F0F0"/>
<path d="M328.226 110.763H235.238V114.183H328.226V110.763Z" fill="#7F3DFF"/>
<path d="M328.226 104.587H235.238V108.007H328.226V104.587Z" fill="#7F3DFF"/>
<path opacity="0.1" d="M328.226 110.763H235.238V114.183H328.226V110.763Z" fill="black"/>
<path opacity="0.1" d="M328.226 104.587H235.238V108.007H328.226V104.587Z" fill="black"/>
<path opacity="0.2" d="M328.225 110.763H302.369V114.183H328.225V110.763Z" fill="black"/>
<path opacity="0.2" d="M328.225 104.587H302.369V108.007H328.225V104.587Z" fill="black"/>
<path opacity="0.3" d="M274.74 93.6768H264.761V101.916H274.74V93.6768Z" fill="white"/>
<path d="M164.059 159.736C155.585 151.482 144.965 148.662 137.174 151.739C136.053 152.182 134.788 152.31 133.571 152.102C132.354 151.894 131.253 151.363 130.437 150.59C121.011 142.157 105.731 141.158 99.3924 149.112C98.6751 150.012 98.0668 150.969 97.5764 151.968C96.7983 153.576 95.5037 154.978 93.832 156.023C92.6965 156.719 91.7212 157.578 90.9524 158.558C88.8953 161.374 87.9409 164.645 88.2197 167.926C88.2673 168.415 88.1444 168.906 87.8656 169.34C87.5867 169.774 87.1636 170.133 86.6459 170.375C84.881 171.138 83.39 172.271 82.3221 173.659C77.1854 180.085 79.4511 191.581 87.3809 199.299C94.446 206.175 103.621 207.753 109.164 203.454C109.39 203.275 109.69 203.176 110.003 203.176C110.316 203.176 110.616 203.275 110.842 203.454C114.837 206.417 119.489 206.439 121.885 203.226C121.977 203.086 122.107 202.966 122.266 202.875C122.425 202.784 122.607 202.726 122.798 202.704C122.99 202.683 123.184 202.699 123.367 202.751C123.549 202.803 123.714 202.89 123.848 203.005C127.964 206.41 132.936 206.575 135.47 203.226C135.927 202.602 136.276 201.93 136.508 201.227C136.543 201.077 136.617 200.936 136.725 200.813C136.832 200.689 136.971 200.586 137.131 200.511C137.291 200.436 137.469 200.39 137.652 200.377C137.836 200.363 138.021 200.383 138.194 200.434C140.884 201.327 143.521 200.941 145.32 199.185C145.498 199.002 145.751 198.879 146.031 198.839C146.31 198.798 146.599 198.842 146.842 198.963C156.069 203.519 165.797 202.64 171.211 195.85C178.449 186.761 175.301 170.603 164.059 159.736Z" fill="#7F3DFF"/>
<path opacity="0.6" d="M164.059 159.736C155.585 151.482 144.965 148.662 137.174 151.739C136.053 152.182 134.788 152.31 133.571 152.102C132.354 151.894 131.253 151.363 130.437 150.59C121.011 142.157 105.731 141.158 99.3924 149.112C98.6751 150.012 98.0668 150.969 97.5764 151.968C96.7983 153.576 95.5037 154.978 93.832 156.023C92.6965 156.719 91.7212 157.578 90.9524 158.558C88.8953 161.374 87.9409 164.645 88.2197 167.926C88.2673 168.415 88.1444 168.906 87.8656 169.34C87.5867 169.774 87.1636 170.133 86.6459 170.375C84.881 171.138 83.39 172.271 82.3221 173.659C77.1854 180.085 79.4511 191.581 87.3809 199.299C94.446 206.175 103.621 207.753 109.164 203.454C109.39 203.275 109.69 203.176 110.003 203.176C110.316 203.176 110.616 203.275 110.842 203.454C114.837 206.417 119.489 206.439 121.885 203.226C121.977 203.086 122.107 202.966 122.266 202.875C122.425 202.784 122.607 202.726 122.798 202.704C122.99 202.683 123.184 202.699 123.367 202.751C123.549 202.803 123.714 202.89 123.848 203.005C127.964 206.41 132.936 206.575 135.47 203.226C135.927 202.602 136.276 201.93 136.508 201.227C136.543 201.077 136.617 200.936 136.725 200.813C136.832 200.689 136.971 200.586 137.131 200.511C137.291 200.436 137.469 200.39 137.652 200.377C137.836 200.363 138.021 200.383 138.194 200.434C140.884 201.327 143.521 200.941 145.32 199.185C145.498 199.002 145.751 198.879 146.031 198.839C146.31 198.798 146.599 198.842 146.842 198.963C156.069 203.519 165.797 202.64 171.211 195.85C178.449 186.761 175.301 170.603 164.059 159.736Z" fill="white"/>
<path d="M107.652 207.217L115.685 213.707C115.046 222.868 114.518 243.967 114.518 243.967L111.664 258.718L136.837 258.918C136.837 258.918 135.696 246.459 135.696 245.787C135.696 245.116 130.827 221.247 130.827 221.247L129.098 207.881L142.069 204.433L144.439 198.478L153.951 193.78L158.612 187.546L156.813 187.168L151.625 192.923L145.615 194.058L148.209 188.76H145.347L138.195 201.041L128.977 202.683L130.179 185.44C122.811 188.439 120.45 183.441 120.45 183.441C120.45 183.441 117.406 206.653 116.334 209.295L111.587 207.217L106.398 200.134H104.219L107.652 207.217Z" fill="#7F3DFF"/>
<path d="M70.8132 236.02H69.542V249.514H70.8132V236.02Z" fill="#7F3DFF"/>
<path opacity="0.2" d="M70.8132 236.02H69.542V249.514H70.8132V236.02Z" fill="black"/>
<path d="M97.1618 236.02H95.8906V249.514H97.1618V236.02Z" fill="#7F3DFF"/>
<path opacity="0.2" d="M97.1618 236.02H95.8906V249.514H97.1618V236.02Z" fill="black"/>
<path d="M98.6063 248.201H68.1494V249.843H98.6063V248.201Z" fill="#7F3DFF"/>
<path opacity="0.2" d="M98.6063 248.201H68.1494V249.843H98.6063V248.201Z" fill="white"/>
<path d="M70.1726 249.793H68.9014V258.925H70.1726V249.793Z" fill="#7F3DFF"/>
<path opacity="0.2" d="M70.1726 249.793H68.9014V258.925H70.1726V249.793Z" fill="black"/>
<path d="M97.9753 249.793H96.7041V258.925H97.9753V249.793Z" fill="#7F3DFF"/>
<path opacity="0.2" d="M97.9753 249.793H96.7041V258.925H97.9753V249.793Z" fill="black"/>
<path d="M98.6063 236.627H68.1494V244.566H98.6063V236.627Z" fill="#7F3DFF"/>
<path opacity="0.2" d="M98.6063 236.627H68.1494V244.566H98.6063V236.627Z" fill="white"/>
<path d="M98.5455 249.514H68.1924V252.071H98.5455V249.514Z" fill="#7F3DFF"/>
<path opacity="0.1" d="M98.5455 249.514H68.1924V252.071H98.5455V249.514Z" fill="black"/>
<path d="M68.1931 245.88H66.9219V258.911H68.1931V245.88Z" fill="#7F3DFF"/>
<path d="M68.6855 244.574H66.4717V246.402H68.6855V244.574Z" fill="#7F3DFF"/>
<path opacity="0.2" d="M68.6855 244.574H66.4717V246.402H68.6855V244.574Z" fill="white"/>
<path d="M70.4063 244.574H68.6768V246.402H70.4063V244.574Z" fill="#7F3DFF"/>
<path d="M98.554 258.911H99.8252V245.88H98.554V258.911Z" fill="#7F3DFF"/>
<path d="M98.0703 246.394H100.275V244.566H98.0703V246.394Z" fill="#7F3DFF"/>
<path opacity="0.2" d="M98.0703 246.394H100.275V244.566H98.0703V246.394Z" fill="white"/>
<path d="M98.0616 244.574H96.332V246.402H98.0616V244.574Z" fill="#7F3DFF"/>
<path opacity="0.1" d="M70.4063 244.574H68.6768V246.402H70.4063V244.574Z" fill="black"/>
<path opacity="0.1" d="M98.0616 244.574H96.332V246.402H98.0616V244.574Z" fill="black"/>
<path d="M68.1409 144.906H67.0254V148.933H68.1409V144.906Z" fill="#263238"/>
<path d="M75.6986 143.228C68.7805 143.942 58.3169 145.856 50.1104 149.419V150.768C58.0555 147.242 66.7718 145.057 75.7505 144.342L75.6986 143.228Z" fill="#7F3DFF"/>
<path d="M87.7101 145.235C87.2663 144.918 86.7679 144.658 86.2314 144.464C85.0466 144.042 77.8778 144.928 75.4219 145.249V144.385L75.3613 143.264C77.0303 143.121 78.5264 143.021 79.7889 142.957C81.8557 142.864 83.3863 142.807 84.5191 142.779C84.925 142.763 85.3305 142.815 85.7119 142.931C86.0932 143.047 86.4428 143.224 86.74 143.453C87.0372 143.681 87.2761 143.957 87.4426 144.263C87.6092 144.569 87.7002 144.899 87.7101 145.235Z" fill="#7F3DFF"/>
<path d="M50.1099 158.915C49.8805 158.915 49.6606 158.84 49.4984 158.706C49.3362 158.572 49.2451 158.39 49.2451 158.201C49.2451 157.837 49.2451 157.08 53.8456 153.646C54.4929 153.153 55.1806 152.697 55.9038 152.282C60.135 150.052 64.8824 148.573 69.8437 147.941C70.073 147.916 70.3048 147.968 70.4881 148.084C70.6714 148.201 70.7911 148.373 70.8209 148.562C70.8507 148.751 70.7882 148.943 70.6471 149.094C70.506 149.245 70.2979 149.344 70.0685 149.369C69.9994 149.369 62.6402 150.226 56.8809 153.474C56.2202 153.853 55.5931 154.271 55.0044 154.724C52.0123 156.959 51.0611 158.008 50.966 158.294C50.9387 158.465 50.8369 158.623 50.6794 158.737C50.5219 158.852 50.3195 158.915 50.1099 158.915Z" fill="#263238"/>
<path d="M48.9602 149.226H50.6897C50.7448 149.226 50.7975 149.244 50.8365 149.276C50.8754 149.308 50.8973 149.352 50.8973 149.397V258.975H48.7354V149.383C48.7375 149.361 48.7451 149.339 48.7576 149.318C48.7701 149.298 48.7873 149.28 48.8082 149.266C48.8291 149.251 48.8533 149.24 48.8794 149.233C48.9054 149.227 48.9329 149.224 48.9602 149.226Z" fill="#263238"/>
<path d="M87.7192 145.313V145.37L77.6793 146.149L75.4482 145.37V145.249C77.9042 144.928 85.073 144.042 86.2577 144.464C86.7852 144.66 87.2747 144.92 87.7105 145.235C87.7182 145.26 87.7211 145.287 87.7192 145.313Z" fill="#7F3DFF"/>
<path opacity="0.6" d="M87.7192 145.313V145.37L77.6793 146.149L75.4482 145.37V145.249C77.9042 144.928 85.073 144.042 86.2577 144.464C86.7852 144.66 87.2747 144.92 87.7105 145.235C87.7182 145.26 87.7211 145.287 87.7192 145.313Z" fill="white"/>
<path d="M343.877 196.193H346.117C346.188 196.193 346.256 196.216 346.307 196.258C346.357 196.299 346.385 196.356 346.385 196.414V264.523H343.609V196.414C343.609 196.356 343.638 196.299 343.688 196.258C343.738 196.216 343.806 196.193 343.877 196.193Z" fill="#263238"/>
<path d="M358.198 198.042H331.693C330.002 198.042 328.632 199.174 328.632 200.57V204.647C328.632 206.043 330.002 207.174 331.693 207.174H358.198C359.889 207.174 361.259 206.043 361.259 204.647V200.57C361.259 199.174 359.889 198.042 358.198 198.042Z" fill="#7F3DFF"/>
<path opacity="0.9" d="M358.198 198.042H331.693C330.002 198.042 328.632 199.174 328.632 200.57V204.647C328.632 206.043 330.002 207.174 331.693 207.174H358.198C359.889 207.174 361.259 206.043 361.259 204.647V200.57C361.259 199.174 359.889 198.042 358.198 198.042Z" fill="white"/>
<path d="M357.367 198.72H332.678C330.988 198.72 329.617 199.852 329.617 201.248V203.847C329.617 205.243 330.988 206.375 332.678 206.375H357.367C359.058 206.375 360.429 205.243 360.429 203.847V201.248C360.429 199.852 359.058 198.72 357.367 198.72Z" fill="#7F3DFF"/>
<path d="M353.701 203.376L353.857 203.097C354.083 203.235 354.355 203.309 354.635 203.311C354.998 203.311 355.154 203.197 355.154 203.054C355.154 202.64 353.753 202.912 353.753 202.191C353.753 201.876 354.056 201.612 354.704 201.612C354.981 201.607 355.254 201.666 355.491 201.784L355.353 202.062C355.155 201.968 354.932 201.917 354.704 201.912C354.341 201.912 354.194 202.026 354.194 202.176C354.194 202.583 355.586 202.319 355.586 203.033C355.586 203.34 355.284 203.611 354.635 203.611C354.301 203.621 353.972 203.538 353.701 203.376Z" fill="white"/>
<path d="M356.469 201.941H355.69V201.634H357.688V201.941H356.901V203.583H356.46L356.469 201.941Z" fill="white"/>
<path d="M397.139 258.261H33.8018V265.801H397.139V258.261Z" fill="#7F3DFF"/>
<g opacity="0.7">
<path d="M397.139 258.261H33.8018V265.801H397.139V258.261Z" fill="white"/>
</g>
<path d="M53.397 258.261H52.5322V266.336H53.397V258.261Z" fill="white"/>
<path d="M134.667 258.261H133.803V266.336H134.667V258.261Z" fill="white"/>
<path d="M215.938 258.261H215.073V266.336H215.938V258.261Z" fill="white"/>
<path d="M297.208 258.261H296.343V266.336H297.208V258.261Z" fill="white"/>
<path d="M378.478 258.261H377.613V266.336H378.478V258.261Z" fill="white"/>
<path d="M397.139 268.757H33.8018V272.255H397.139V268.757Z" fill="#7F3DFF"/>
<path opacity="0.9" d="M397.139 268.757H33.8018V272.255H397.139V268.757Z" fill="white"/>
<path d="M174.955 295.303H174.713C172.984 296.496 170.113 297.267 167.458 297.609C164.405 298.009 161.404 297.995 158.369 298.373C156.544 298.581 154.763 298.997 153.077 299.609C152.685 299.863 152.317 300.142 151.979 300.444C151.365 300.994 151.261 301.579 152.627 301.908C156.715 302.925 161.09 302.833 165.11 301.644C169.129 300.455 172.58 298.233 174.955 295.303Z" fill="#263238"/>
<path d="M153.993 301.386L149.401 302.672C148.164 302.822 148.06 302.222 148.917 301.958C150.542 301.908 153.681 300.987 153.993 301.386Z" fill="#263238"/>
<g opacity="0.8">
<path d="M174.954 295.303H174.712C172.983 296.496 170.112 297.267 167.457 297.609C164.404 298.009 161.404 297.995 158.368 298.373C156.543 298.581 154.762 298.997 153.076 299.609C152.684 299.863 152.316 300.142 151.978 300.444C151.364 300.994 151.26 301.579 152.626 301.908C156.714 302.925 161.089 302.833 165.109 301.644C169.128 300.455 172.579 298.233 174.954 295.303Z" fill="white"/>
<path d="M153.993 301.386L149.401 302.672C148.164 302.822 148.06 302.222 148.917 301.958C150.542 301.908 153.681 300.987 153.993 301.386Z" fill="white"/>
</g>
<path d="M173.261 292.404C173.261 292.561 173.157 292.733 173.079 292.926C173.001 293.118 173.001 293.126 172.958 293.225C172.872 293.44 172.768 293.661 172.656 293.904L172.457 294.282C172.379 294.439 172.301 294.589 172.206 294.746C172.111 294.903 172.024 295.068 171.92 295.232C171.817 295.396 171.722 295.56 171.609 295.732C171.497 295.903 171.402 296.046 171.289 296.203C171.177 296.36 171.03 296.574 170.883 296.76L170.476 297.281C170.329 297.46 170.182 297.631 170.027 297.802C169.871 297.974 169.715 298.145 169.551 298.316C169.387 298.488 169.214 298.666 169.032 298.83C168.851 298.995 168.686 299.152 168.505 299.309C168.323 299.466 168.124 299.63 167.925 299.78C167.741 299.664 167.537 299.57 167.32 299.502C166.836 299.297 166.274 299.257 165.755 299.39C165.236 299.524 164.801 299.82 164.544 300.216C164.445 300.446 164.419 300.694 164.469 300.935C164.519 301.177 164.643 301.403 164.829 301.594C164.451 301.754 164.061 301.895 163.662 302.015L163.325 302.108L162.944 302.208C162.761 302.259 162.573 302.299 162.382 302.329C162.246 302.36 162.107 302.383 161.967 302.4C161.762 302.442 161.554 302.473 161.344 302.493L160.635 302.55C160.387 302.55 160.128 302.55 159.857 302.55C158.869 302.547 157.886 302.448 156.926 302.258C156.39 302.152 155.862 302.023 155.343 301.872C154.372 301.585 153.43 301.236 152.524 300.83C152.135 300.658 151.746 300.473 151.339 300.266C151.053 300.162 150.797 300.009 150.589 299.817C150.38 299.624 150.224 299.398 150.129 299.152C150.035 298.906 150.006 298.646 150.043 298.39C150.08 298.134 150.183 297.887 150.345 297.667C150.615 297.223 150.937 296.803 151.305 296.41C152.908 295.631 154.714 295.18 156.571 295.096C159.684 294.903 162.815 295.382 165.919 295.16C168.617 294.968 171.479 294.089 173.01 292.304L173.261 292.404Z" fill="#7F3DFF"/>
<path d="M152.653 299.651L148.13 301.151C146.868 301.229 146.634 300.187 147.473 299.88C149.16 300.023 152.203 298.916 152.653 299.651Z" fill="#7F3DFF"/>
<path opacity="0.2" d="M173.261 292.404C173.261 292.561 173.157 292.733 173.079 292.926C173.001 293.118 173.001 293.126 172.958 293.225C172.872 293.44 172.768 293.661 172.656 293.904L172.457 294.282C172.379 294.439 172.301 294.589 172.206 294.746C172.111 294.903 172.024 295.068 171.92 295.232C171.817 295.396 171.722 295.56 171.609 295.732C171.497 295.903 171.402 296.046 171.289 296.203C171.177 296.36 171.03 296.574 170.883 296.76L170.476 297.281C170.329 297.46 170.182 297.631 170.027 297.802C169.871 297.974 169.715 298.145 169.551 298.316C169.387 298.488 169.214 298.666 169.032 298.83C168.851 298.995 168.686 299.152 168.505 299.309C168.323 299.466 168.124 299.63 167.925 299.78C167.741 299.664 167.537 299.57 167.32 299.502C166.836 299.297 166.274 299.257 165.755 299.39C165.236 299.524 164.801 299.82 164.544 300.216C164.445 300.446 164.419 300.694 164.469 300.935C164.519 301.177 164.643 301.403 164.829 301.594C164.451 301.754 164.061 301.895 163.662 302.015L163.325 302.108L162.944 302.208C162.761 302.259 162.573 302.299 162.382 302.329C162.246 302.36 162.107 302.383 161.967 302.4C161.762 302.442 161.554 302.473 161.344 302.493L160.635 302.55C160.387 302.55 160.128 302.55 159.857 302.55C158.869 302.547 157.886 302.448 156.926 302.258C156.39 302.154 155.861 302.025 155.343 301.872C154.369 301.591 153.426 301.242 152.524 300.83C152.135 300.658 151.746 300.473 151.339 300.266C151.053 300.162 150.797 300.009 150.589 299.817C150.38 299.624 150.224 299.398 150.129 299.152C150.035 298.906 150.006 298.646 150.043 298.39C150.08 298.134 150.183 297.887 150.345 297.667C150.615 297.223 150.937 296.803 151.305 296.41C152.908 295.631 154.714 295.18 156.571 295.096C159.684 294.903 162.815 295.382 165.919 295.16C168.617 294.968 171.479 294.089 173.01 292.304L173.261 292.404Z" fill="white"/>
<path d="M260.048 295.46L260.186 295.41C261.756 295.893 263.448 296.043 265.107 295.846C267.061 295.682 268.894 295.268 270.84 295.082C272.004 294.964 273.183 294.978 274.342 295.125C274.641 295.228 274.93 295.35 275.207 295.489C275.691 295.746 275.873 296.096 275.103 296.474C272.795 297.663 270.084 298.207 267.372 298.024C264.661 297.842 262.092 296.943 260.048 295.46Z" fill="#263238"/>
<path d="M274.117 296.36L277.196 296.524C277.983 296.453 277.931 296.067 277.351 296.024C276.34 296.21 274.256 296.06 274.117 296.36Z" fill="#263238"/>
<g opacity="0.8">
<path d="M260.048 295.46L260.186 295.41C261.756 295.893 263.448 296.043 265.107 295.846C267.061 295.682 268.894 295.268 270.84 295.082C272.004 294.964 273.183 294.978 274.342 295.125C274.641 295.228 274.93 295.35 275.207 295.489C275.691 295.746 275.873 296.096 275.103 296.474C272.795 297.663 270.084 298.207 267.372 298.024C264.661 297.842 262.092 296.943 260.048 295.46Z" fill="white"/>
<path d="M274.118 296.36L277.197 296.524C277.984 296.453 277.932 296.067 277.352 296.024C276.341 296.21 274.257 296.06 274.118 296.36Z" fill="white"/>
</g>
<path d="M260.912 292.611L261.059 292.547C261.698 293.027 262.453 293.391 263.274 293.613C264.096 293.836 264.964 293.913 265.824 293.839C267.804 293.754 269.733 293.225 271.713 293.125C272.893 293.044 274.08 293.198 275.172 293.575C275.441 293.796 275.687 294.034 275.907 294.289C276.031 294.418 276.121 294.566 276.171 294.725C276.22 294.884 276.229 295.05 276.195 295.212C276.162 295.374 276.087 295.528 275.976 295.664C275.866 295.8 275.721 295.916 275.552 296.003C267.355 301.579 261.872 294.546 260.912 292.611Z" fill="#7F3DFF"/>
<path d="M274.671 295.689L277.68 296.31C278.484 296.267 278.545 295.596 277.957 295.46C276.911 295.667 274.878 295.196 274.671 295.689Z" fill="#7F3DFF"/>
<path opacity="0.2" d="M260.912 292.611L261.059 292.547C261.698 293.027 262.453 293.391 263.274 293.613C264.096 293.836 264.964 293.913 265.824 293.839C267.804 293.754 269.733 293.225 271.713 293.125C272.893 293.044 274.08 293.198 275.172 293.575C275.441 293.796 275.687 294.034 275.907 294.289C276.031 294.418 276.121 294.566 276.171 294.725C276.22 294.884 276.229 295.05 276.195 295.212C276.162 295.374 276.087 295.528 275.976 295.664C275.866 295.8 275.721 295.916 275.552 296.003C267.355 301.579 261.872 294.546 260.912 292.611Z" fill="white"/>
<path d="M208.948 293.889L208.81 293.839C207.232 294.278 205.545 294.379 203.906 294.132C201.969 293.911 200.171 293.418 198.234 293.211C197.089 293.065 195.926 293.046 194.775 293.154C194.477 293.249 194.188 293.361 193.91 293.49C193.417 293.732 193.218 294.068 193.97 294.475C196.213 295.716 198.879 296.329 201.576 296.224C204.273 296.118 206.857 295.3 208.948 293.889Z" fill="#263238"/>
<path d="M194.914 294.382L191.844 294.461C191.065 294.361 191.135 293.982 191.714 293.961C192.709 294.168 194.793 294.089 194.914 294.382Z" fill="#263238"/>
<g opacity="0.8">
<path d="M208.949 293.889L208.811 293.839C207.233 294.278 205.545 294.379 203.907 294.132C201.97 293.911 200.172 293.418 198.235 293.211C197.09 293.065 195.927 293.046 194.776 293.154C194.478 293.249 194.189 293.361 193.911 293.49C193.418 293.732 193.219 294.068 193.971 294.475C196.214 295.716 198.88 296.329 201.577 296.224C204.274 296.118 206.858 295.3 208.949 293.889Z" fill="white"/>
<path d="M194.914 294.382L191.844 294.461C191.065 294.361 191.135 293.982 191.714 293.961C192.709 294.168 194.793 294.089 194.914 294.382Z" fill="white"/>
</g>
<path d="M208.567 291.883C208.526 291.85 208.48 291.821 208.429 291.798C207.71 292.185 206.9 292.443 206.053 292.555C205.205 292.667 204.338 292.63 203.509 292.447C201.58 292.112 199.79 291.341 197.87 291.019C196.733 290.794 195.548 290.794 194.411 291.019C194.103 291.204 193.814 291.409 193.547 291.633C193.399 291.742 193.281 291.875 193.2 292.024C193.119 292.173 193.077 292.334 193.077 292.497C193.077 292.661 193.119 292.822 193.2 292.971C193.281 293.12 193.399 293.253 193.547 293.361C200.551 299.88 207.296 293.661 208.567 291.883Z" fill="#7F3DFF"/>
<path d="M194.491 293.126L191.421 293.347C190.643 293.204 190.729 292.533 191.308 292.483C192.294 292.818 194.378 292.611 194.491 293.126Z" fill="#7F3DFF"/>
<path opacity="0.2" d="M208.567 291.883C208.526 291.85 208.48 291.821 208.429 291.798C207.71 292.185 206.9 292.443 206.053 292.555C205.205 292.667 204.338 292.63 203.509 292.447C201.58 292.112 199.79 291.341 197.87 291.019C196.733 290.794 195.548 290.794 194.411 291.019C194.103 291.204 193.814 291.409 193.547 291.633C193.399 291.742 193.281 291.875 193.2 292.024C193.119 292.173 193.077 292.334 193.077 292.497C193.077 292.661 193.119 292.822 193.2 292.971C193.281 293.12 193.399 293.253 193.547 293.361C200.551 299.88 207.296 293.661 208.567 291.883Z" fill="white"/>
<path d="M306.831 300.708H306.943C308.104 300.219 309.393 299.973 310.697 299.994C312.227 299.994 313.697 300.144 315.228 300.13C316.14 300.13 317.048 300.027 317.926 299.823C318.139 299.72 318.342 299.603 318.531 299.473C318.877 299.237 318.981 298.959 318.341 298.716C316.417 297.986 314.26 297.785 312.188 298.143C310.115 298.502 308.237 299.401 306.831 300.708Z" fill="#263238"/>
<path d="M317.623 298.902L319.984 298.531C320.606 298.531 320.606 298.823 320.165 298.902C319.361 298.838 317.761 299.116 317.623 298.902Z" fill="#263238"/>
<g opacity="0.8">
<path d="M306.831 300.708H306.943C308.104 300.219 309.393 299.973 310.697 299.994C312.227 299.994 313.697 300.144 315.228 300.13C316.14 300.13 317.048 300.027 317.926 299.823C318.139 299.72 318.342 299.603 318.531 299.473C318.877 299.237 318.981 298.959 318.341 298.716C316.417 297.986 314.26 297.785 312.188 298.143C310.115 298.502 308.237 299.401 306.831 300.708Z" fill="white"/>
<path d="M317.623 298.902L319.984 298.531C320.606 298.531 320.606 298.823 320.165 298.902C319.361 298.838 317.761 299.116 317.623 298.902Z" fill="white"/>
</g>
<path d="M306.787 300.48L306.908 300.53C307.405 300.155 307.993 299.871 308.632 299.698C309.272 299.524 309.949 299.464 310.618 299.523C312.166 299.594 313.662 300.001 315.201 300.087C316.121 300.149 317.046 300.029 317.899 299.737C318.11 299.562 318.304 299.374 318.479 299.173C318.575 299.073 318.645 298.957 318.684 298.834C318.723 298.71 318.729 298.58 318.703 298.454C318.677 298.328 318.619 298.208 318.532 298.102C318.446 297.996 318.333 297.906 318.202 297.838C311.803 293.49 307.522 298.966 306.787 300.48Z" fill="#7F3DFF"/>
<path d="M317.502 298.081L319.845 297.602C320.468 297.602 320.503 298.159 320.062 298.259C319.249 298.095 317.658 298.452 317.502 298.081Z" fill="#7F3DFF"/>
<path opacity="0.2" d="M306.787 300.48L306.908 300.53C307.405 300.155 307.993 299.871 308.632 299.698C309.272 299.524 309.949 299.464 310.618 299.523C312.166 299.594 313.662 300.001 315.201 300.087C316.121 300.149 317.046 300.029 317.899 299.737C318.11 299.562 318.304 299.374 318.479 299.173C318.575 299.073 318.645 298.957 318.684 298.834C318.723 298.71 318.729 298.58 318.703 298.454C318.677 298.328 318.619 298.208 318.532 298.102C318.446 297.996 318.333 297.906 318.202 297.838C311.803 293.49 307.522 298.966 306.787 300.48Z" fill="white"/>
<path d="M128.647 297.588H128.483C127.108 296.709 125.487 296.13 123.77 295.903C121.772 295.567 119.801 295.517 117.794 295.189C116.595 295.012 115.431 294.7 114.335 294.261C114.085 294.082 113.851 293.889 113.635 293.682C113.254 293.304 113.202 292.918 114.11 292.733C116.844 292.147 119.732 292.304 122.35 293.178C124.968 294.052 127.175 295.598 128.647 297.588Z" fill="#263238"/>
<path d="M115.001 293.111L112.018 292.169C111.205 292.04 111.153 292.433 111.681 292.619C112.744 292.697 114.768 293.368 115.001 293.111Z" fill="#263238"/>
<g opacity="0.8">
<path d="M128.647 297.588H128.483C127.108 296.709 125.487 296.13 123.77 295.903C121.772 295.568 119.801 295.518 117.794 295.189C116.595 295.013 115.431 294.7 114.335 294.261C114.085 294.083 113.851 293.889 113.635 293.683C113.254 293.304 113.202 292.919 114.11 292.733C116.844 292.148 119.732 292.304 122.35 293.178C124.968 294.052 127.175 295.599 128.647 297.588Z" fill="white"/>
<path d="M115.001 293.111L112.018 292.169C111.205 292.04 111.153 292.433 111.681 292.619C112.744 292.697 114.768 293.368 115.001 293.111Z" fill="white"/>
</g>
<path d="M128.769 297.302L128.596 297.338C128.048 296.752 127.356 296.268 126.567 295.918C125.777 295.567 124.907 295.358 124.013 295.303C121.972 295.089 119.888 295.303 117.838 295.139C116.606 295.044 115.42 294.706 114.379 294.154C114.15 293.887 113.953 293.603 113.791 293.304C113.692 293.155 113.632 292.99 113.616 292.821C113.6 292.652 113.627 292.481 113.697 292.321C113.766 292.161 113.876 292.015 114.019 291.893C114.162 291.771 114.335 291.675 114.526 291.612C124.194 287.157 128.241 295.175 128.769 297.302Z" fill="#7F3DFF"/>
<path d="M115.408 292.062L112.468 290.977C111.603 290.898 111.447 291.576 111.992 291.798C113.108 291.748 115.079 292.54 115.408 292.062Z" fill="#7F3DFF"/>
<path opacity="0.2" d="M128.769 297.302L128.596 297.338C128.048 296.752 127.356 296.268 126.567 295.918C125.777 295.567 124.907 295.358 124.013 295.303C121.972 295.089 119.888 295.303 117.838 295.139C116.606 295.044 115.42 294.706 114.379 294.154C114.15 293.887 113.953 293.603 113.791 293.304C113.692 293.155 113.632 292.99 113.616 292.821C113.6 292.652 113.627 292.481 113.697 292.321C113.766 292.161 113.876 292.015 114.019 291.893C114.162 291.771 114.335 291.675 114.526 291.612C124.194 287.157 128.241 295.175 128.769 297.302Z" fill="white"/>
</svg>
