<svg width="19" height="20" viewBox="0 0 19 20" fill="none" xmlns="http://www.w3.org/2000/svg">
<path d="M9.36709 2C13.498 2 16.8608 5.59 16.8608 10C16.8608 14.41 13.498 18 9.36709 18C5.2362 18 1.87342 14.41 1.87342 10C1.87342 5.59 5.2362 2 9.36709 2ZM9.36709 0C4.19646 0 0 4.48 0 10C0 15.52 4.19646 20 9.36709 20C14.5377 20 18.7342 15.52 18.7342 10C18.7342 4.48 14.5377 0 9.36709 0ZM10.3038 10V7C10.3038 6.45 9.88228 6 9.36709 6C8.8519 6 8.43038 6.45 8.43038 7V10H6.75367C6.33215 10 6.12608 10.54 6.42582 10.85L9.03924 13.64C9.22658 13.84 9.51696 13.84 9.7043 13.64L12.3177 10.85C12.6081 10.54 12.402 10 11.9899 10H10.3038Z" fill="#00A86B"/>
</svg>
