<svg width="21" height="16" viewBox="0 0 21 16" fill="none" xmlns="http://www.w3.org/2000/svg">
<path d="M17.8473 4.50483L16.2288 5.83816V2.66683H8.94582V6.00016H4.89971V13.3335H16.2288V11.4955L17.8473 10.1622V14.0055C17.847 14.181 17.7623 14.3492 17.6116 14.4732C17.4609 14.5972 17.2567 14.6668 17.0437 14.6668H4.08483C3.97856 14.6662 3.87348 14.6484 3.77558 14.6143C3.67768 14.5802 3.58889 14.5306 3.51427 14.4683C3.43966 14.4059 3.38067 14.3321 3.3407 14.251C3.30072 14.1699 3.28052 14.083 3.28127 13.9955V5.3335L8.13903 1.3335H17.0364C17.4831 1.3335 17.8473 1.63683 17.8473 1.99483V4.50483ZM18.4768 5.8715L19.6211 6.81483L13.3269 12.0002L12.1811 11.9988L12.1827 11.0575L18.4768 5.87216V5.8715Z" fill="#EAAA00"/>
</svg>
