<svg width="201" height="200" viewBox="0 0 201 200" fill="none" xmlns="http://www.w3.org/2000/svg">
<path d="M100.5 0C45.024 0 0 44.8 0 100C0 155.2 45.024 200 100.5 200C155.976 200 201 155.2 201 100C201 44.8 155.976 0 100.5 0ZM100.5 180C56.1795 180 20.1 144.1 20.1 100C20.1 55.9 56.1795 20 100.5 20C144.82 20 180.9 55.9 180.9 100C180.9 144.1 144.82 180 100.5 180ZM139.494 62.9L80.4 121.7L61.506 102.9C57.5865 99 51.255 99 47.3355 102.9C43.416 106.8 43.416 113.1 47.3355 117L73.365 142.9C77.2845 146.8 83.616 146.8 87.5355 142.9L153.765 77C157.684 73.1 157.684 66.8 153.765 62.9C149.845 59 143.413 59 139.494 62.9Z" fill="#00A86B"/>
</svg>
