<svg width="489" height="302" viewBox="0 0 489 302" fill="none" xmlns="http://www.w3.org/2000/svg">
<g clip-path="url(#clip0_1864_9411)">
<path d="M70.5684 261.928H415.826V238.14C415.826 233.171 410.588 228.281 401.455 224.723L401.361 224.686C395.194 222.199 355.774 204.503 334.451 205.038C323.188 205.32 313.544 207.502 305.79 211.524C281.653 224.048 249.946 228.674 233.194 225.039C218.431 221.836 177.902 216.537 162.927 216.777C141.955 217.106 141.893 221.111 120.365 234.036C112.143 238.968 109.068 239.587 70.5684 243.522V261.928Z" fill="#F2F2F2"/>
<path d="M14.9074 226.963C14.1556 214.2 18.8959 201.308 28.7184 196.57C26.7328 209.72 29.1792 224.331 35.4874 236.999C37.9443 241.932 41.0996 247.2 40.4281 252.355C40.0103 255.563 38.1011 258.109 35.7682 259.768C33.4351 261.426 30.6859 262.311 27.9703 263.18L27.5015 263.743C21.0475 252.318 15.6592 239.725 14.9074 226.963Z" fill="#F2F2F2"/>
<path d="M28.8624 196.804C23.9912 205.376 21.8271 215.592 22.7281 225.761C22.8771 228.084 23.3322 230.368 24.0782 232.535C24.8939 234.707 26.1451 236.628 27.7305 238.145C29.198 239.606 30.8262 240.93 32.0013 242.723C32.5813 243.598 33.0009 244.597 33.2351 245.662C33.4694 246.726 33.5134 247.833 33.3645 248.918C33.0219 251.487 31.8583 253.633 30.6497 255.675C29.3078 257.943 27.8789 260.27 27.6355 263.187C27.606 263.541 27.1116 263.391 27.141 263.038C27.5645 257.962 31.3103 254.875 32.5692 250.252C32.9116 249.135 33.0283 247.944 32.9107 246.768C32.7932 245.592 32.4443 244.462 31.8902 243.462C30.7953 241.566 29.1171 240.199 27.6217 238.733C26.0559 237.271 24.7823 235.442 23.8868 233.371C23.05 231.24 22.5197 228.968 22.3164 226.644C21.8086 221.633 22.0167 216.56 22.9326 211.625C23.9122 206.194 25.791 201.026 28.4677 196.401C28.6319 196.119 29.0255 196.524 28.8624 196.804V196.804Z" fill="white"/>
<path d="M22.2895 222.345C20.6737 221.983 19.1967 221.055 18.064 219.689C16.9313 218.323 16.1992 216.588 15.9696 214.725C15.9341 214.362 16.4278 214.361 16.4634 214.724C16.6747 216.46 17.3565 218.076 18.413 219.345C19.4696 220.614 20.8477 221.473 22.3535 221.801C22.3851 221.805 22.4157 221.817 22.4434 221.835C22.4711 221.853 22.4954 221.877 22.5149 221.905C22.5344 221.934 22.5486 221.967 22.5569 222.002C22.5652 222.037 22.5673 222.074 22.563 222.11C22.5588 222.146 22.5483 222.181 22.5322 222.212C22.5161 222.244 22.4947 222.271 22.4693 222.293C22.4438 222.315 22.4148 222.331 22.384 222.339C22.3531 222.348 22.321 222.35 22.2895 222.345Z" fill="white"/>
<path d="M26.9136 237.503C28.1193 236.476 29.121 235.169 29.8529 233.667C30.5848 232.166 31.0302 230.505 31.1598 228.793C31.1905 228.439 31.6849 228.589 31.6543 228.942C31.5163 230.723 31.0495 232.451 30.2849 234.011C29.5202 235.571 28.475 236.928 27.218 237.993C26.9776 238.194 26.6745 237.703 26.9136 237.503Z" fill="white"/>
<path d="M24.4886 206.612C25.0521 206.889 25.6682 206.996 26.2784 206.925C26.8885 206.853 27.4725 206.604 27.9749 206.202C28.2126 205.997 28.5154 206.489 28.2793 206.693C27.7227 207.134 27.0776 207.408 26.4039 207.489C25.7302 207.57 25.0495 207.455 24.4246 207.156C24.3598 207.134 24.3032 207.088 24.2642 207.025C24.2251 206.962 24.2058 206.886 24.2094 206.809C24.214 206.774 24.2252 206.74 24.2424 206.71C24.2596 206.68 24.2823 206.655 24.3089 206.636C24.3355 206.618 24.3654 206.606 24.3964 206.601C24.4275 206.597 24.4589 206.601 24.4886 206.612H24.4886Z" fill="white"/>
<path d="M64.5557 217.364C64.4112 217.498 64.2666 217.631 64.1227 217.769C62.1917 219.569 60.4122 221.572 58.8073 223.751C58.6806 223.917 58.5548 224.087 58.4331 224.258C54.5937 229.628 51.7833 235.86 50.1838 242.55C49.5278 245.278 49.0673 248.063 48.807 250.876C48.4415 254.8 48.3279 259.131 46.8529 262.409C46.7034 262.752 46.5329 263.083 46.3426 263.399L28.2316 264.45C28.1865 264.428 28.142 264.412 28.0966 264.39L27.3799 264.47C27.3843 264.321 27.3917 264.167 27.3961 264.018C27.3983 263.931 27.4046 263.845 27.4068 263.758C27.4096 263.7 27.4125 263.643 27.412 263.59C27.4129 263.571 27.4139 263.551 27.4156 263.537C27.4151 263.484 27.4197 263.436 27.42 263.388C27.4593 262.526 27.5027 261.665 27.5546 260.802C27.5538 260.798 27.5538 260.798 27.557 260.793C27.8683 254.31 28.8981 247.898 30.6218 241.712C30.6751 241.531 30.7274 241.345 30.7889 241.164C31.5928 238.483 32.6102 235.892 33.8282 233.423C34.4937 232.087 35.2264 230.796 36.0224 229.556C38.0835 226.364 40.6327 223.624 43.5471 221.468C46.5218 219.204 49.8699 217.657 53.3861 216.924C56.9022 216.191 60.5124 216.287 63.9951 217.205C64.183 217.256 64.3671 217.308 64.5557 217.364Z" fill="#F2F2F2"/>
<path d="M64.5592 217.631C56.0698 220.07 48.626 225.905 43.5773 234.079C42.4689 235.819 41.6399 237.77 41.1287 239.842C40.6833 241.996 40.7561 244.247 41.3392 246.357C41.8501 248.409 42.5765 250.474 42.6507 252.562C42.6915 253.583 42.5201 254.601 42.1507 255.533C41.7812 256.464 41.2241 257.282 40.5249 257.921C38.8414 259.519 36.6605 260.25 34.4952 260.876C32.091 261.572 29.5786 262.25 27.7953 264.165C27.5793 264.397 27.2233 263.949 27.439 263.718C30.5415 260.386 35.5089 260.759 39.1056 258.326C40.7839 257.19 42.0957 255.422 42.1554 253.013C42.2076 250.906 41.46 248.777 40.9274 246.702C40.3339 244.641 40.1908 242.445 40.5107 240.306C40.92 238.202 41.6763 236.206 42.7392 234.426C45.0445 230.428 47.9637 226.94 51.3558 224.131C55.282 220.851 59.7181 218.456 64.4277 217.072C64.7242 216.983 64.8538 217.544 64.5593 217.631H64.5592Z" fill="white"/>
<path d="M45.026 231.339C42.5093 228.618 41.8796 224.429 43.5401 221.553C43.7037 221.27 44.1402 221.609 43.9764 221.893C42.4208 224.587 43.0222 228.452 45.3748 230.994C45.6224 231.262 45.2722 231.605 45.026 231.339Z" fill="white"/>
<path d="M40.9626 245.337C42.4901 245.469 44.0251 245.245 45.4746 244.678C46.924 244.112 48.2576 243.215 49.3944 242.041C49.6113 241.81 49.9673 242.257 49.7507 242.488C48.5651 243.706 47.1752 244.637 45.6655 245.223C44.1557 245.809 42.5575 246.038 40.9679 245.896C40.6475 245.874 40.6439 245.315 40.9626 245.337Z" fill="white"/>
<path d="M55.4242 221.623C55.8049 222.229 56.298 222.732 56.8683 223.096C57.4385 223.46 58.072 223.676 58.7236 223.728C59.0435 223.745 59.0468 224.304 58.7289 224.287C58.0091 224.226 57.3096 223.987 56.6787 223.586C56.0479 223.186 55.5008 222.633 55.0754 221.967C55.0301 221.914 55.0044 221.844 55.0037 221.77C55.003 221.696 55.0273 221.625 55.0716 221.571C55.125 221.527 55.1913 221.507 55.2568 221.517C55.3224 221.526 55.3823 221.564 55.4242 221.623Z" fill="white"/>
<path d="M468.345 226.963C469.097 214.2 464.356 201.308 454.534 196.57C456.519 209.72 454.073 224.331 447.765 236.999C445.308 241.932 442.153 247.2 442.824 252.355C443.242 255.563 445.151 258.109 447.484 259.768C449.817 261.426 452.566 262.311 455.282 263.18L455.751 263.743C462.205 252.318 467.593 239.725 468.345 226.963Z" fill="#F2F2F2"/>
<path d="M454.389 196.804C459.26 205.376 461.425 215.592 460.524 225.761C460.375 228.084 459.919 230.368 459.173 232.535C458.358 234.707 457.107 236.628 455.521 238.145C454.054 239.606 452.425 240.93 451.25 242.723C450.67 243.598 450.251 244.597 450.016 245.662C449.782 246.726 449.738 247.833 449.887 248.918C450.23 251.487 451.393 253.633 452.602 255.675C453.944 257.943 455.373 260.27 455.616 263.187C455.646 263.541 456.14 263.391 456.111 263.038C455.687 257.962 451.941 254.875 450.682 250.252C450.34 249.135 450.223 247.944 450.341 246.768C450.458 245.592 450.807 244.462 451.361 243.462C452.456 241.566 454.134 240.199 455.63 238.733C457.196 237.271 458.469 235.442 459.365 233.371C460.202 231.24 460.732 228.968 460.935 226.644C461.443 221.633 461.235 216.56 460.319 211.625C459.339 206.194 457.461 201.026 454.784 196.401C454.62 196.119 454.226 196.524 454.389 196.804V196.804Z" fill="white"/>
<path d="M460.963 222.345C462.579 221.983 464.056 221.055 465.189 219.689C466.321 218.323 467.053 216.588 467.283 214.725C467.319 214.362 466.825 214.361 466.789 214.724C466.578 216.46 465.896 218.076 464.84 219.345C463.783 220.614 462.405 221.473 460.899 221.801C460.868 221.805 460.837 221.817 460.809 221.835C460.782 221.853 460.757 221.877 460.738 221.905C460.718 221.934 460.704 221.967 460.696 222.002C460.687 222.037 460.685 222.074 460.69 222.11C460.694 222.146 460.704 222.181 460.72 222.212C460.737 222.244 460.758 222.271 460.783 222.293C460.809 222.315 460.838 222.331 460.869 222.339C460.9 222.348 460.932 222.35 460.963 222.345Z" fill="white"/>
<path d="M456.339 237.503C455.133 236.476 454.132 235.169 453.4 233.667C452.668 232.166 452.222 230.505 452.093 228.793C452.062 228.439 451.568 228.589 451.598 228.942C451.736 230.723 452.203 232.451 452.968 234.011C453.732 235.571 454.778 236.928 456.035 237.993C456.275 238.194 456.578 237.703 456.339 237.503Z" fill="white"/>
<path d="M458.764 206.612C458.2 206.889 457.584 206.996 456.974 206.925C456.364 206.853 455.78 206.604 455.278 206.202C455.04 205.997 454.737 206.489 454.973 206.693C455.53 207.134 456.175 207.408 456.849 207.489C457.522 207.57 458.203 207.455 458.828 207.156C458.893 207.134 458.949 207.088 458.988 207.025C459.027 206.962 459.047 206.886 459.043 206.809C459.039 206.774 459.027 206.74 459.01 206.71C458.993 206.68 458.97 206.655 458.944 206.636C458.917 206.618 458.887 206.606 458.856 206.601C458.825 206.597 458.794 206.601 458.764 206.612H458.764Z" fill="white"/>
<path d="M418.697 217.364C418.842 217.498 418.986 217.631 419.13 217.769C421.061 219.569 422.841 221.572 424.446 223.751C424.572 223.917 424.698 224.087 424.82 224.258C428.659 229.628 431.47 235.86 433.069 242.55C433.725 245.278 434.186 248.063 434.446 250.876C434.812 254.8 434.925 259.132 436.4 262.409C436.55 262.752 436.72 263.083 436.91 263.399L455.021 264.45C455.067 264.428 455.111 264.412 455.156 264.39L455.873 264.47C455.869 264.321 455.861 264.167 455.857 264.018C455.855 263.932 455.848 263.845 455.846 263.758C455.843 263.7 455.84 263.643 455.841 263.59C455.84 263.571 455.839 263.551 455.837 263.537C455.838 263.484 455.833 263.436 455.833 263.388C455.794 262.526 455.75 261.665 455.698 260.802C455.699 260.798 455.699 260.798 455.696 260.793C455.385 254.31 454.355 247.898 452.631 241.712C452.578 241.531 452.526 241.345 452.464 241.164C451.66 238.483 450.643 235.892 449.425 233.423C448.759 232.087 448.027 230.796 447.231 229.556C445.17 226.364 442.62 223.624 439.706 221.468C436.731 219.204 433.383 217.657 429.867 216.924C426.351 216.191 422.741 216.287 419.258 217.205C419.07 217.256 418.886 217.308 418.697 217.364Z" fill="#F2F2F2"/>
<path d="M418.694 217.631C427.183 220.07 434.627 225.905 439.676 234.079C440.784 235.819 441.613 237.77 442.124 239.842C442.57 241.996 442.497 244.247 441.914 246.357C441.403 248.409 440.676 250.474 440.602 252.562C440.561 253.583 440.733 254.601 441.102 255.533C441.472 256.464 442.029 257.282 442.728 257.921C444.412 259.519 446.592 260.25 448.758 260.876C451.162 261.572 453.674 262.25 455.458 264.165C455.674 264.397 456.03 263.949 455.814 263.718C452.711 260.386 447.744 260.759 444.147 258.326C442.469 257.19 441.157 255.422 441.098 253.013C441.045 250.906 441.793 248.777 442.326 246.702C442.919 244.641 443.062 242.445 442.742 240.306C442.333 238.202 441.577 236.206 440.514 234.426C438.208 230.428 435.289 226.94 431.897 224.131C427.971 220.851 423.535 218.456 418.825 217.072C418.529 216.983 418.399 217.544 418.694 217.631Z" fill="white"/>
<path d="M438.226 231.339C440.743 228.618 441.373 224.429 439.712 221.553C439.549 221.27 439.112 221.609 439.276 221.893C440.832 224.587 440.23 228.452 437.878 230.994C437.63 231.262 437.98 231.605 438.226 231.339Z" fill="white"/>
<path d="M442.29 245.337C440.763 245.469 439.227 245.245 437.778 244.678C436.329 244.112 434.995 243.215 433.858 242.041C433.641 241.81 433.285 242.257 433.502 242.488C434.688 243.706 436.077 244.637 437.587 245.223C439.097 245.809 440.695 246.038 442.285 245.896C442.605 245.874 442.609 245.315 442.29 245.337Z" fill="white"/>
<path d="M427.828 221.623C427.448 222.229 426.955 222.732 426.384 223.096C425.814 223.46 425.181 223.676 424.529 223.728C424.209 223.745 424.206 224.304 424.524 224.287C425.243 224.226 425.943 223.987 426.574 223.586C427.205 223.186 427.752 222.633 428.177 221.967C428.222 221.914 428.248 221.844 428.249 221.77C428.25 221.696 428.225 221.625 428.181 221.571C428.128 221.527 428.061 221.507 427.996 221.517C427.93 221.526 427.87 221.564 427.828 221.623Z" fill="white"/>
<path d="M30.9643 163.78H27.6445V165.045H30.9643V163.78Z" fill="#E6E6E6"/>
<path d="M448.779 165.045H442.04V163.78H448.779V165.045ZM435.301 165.045H428.562V163.78H435.301V165.045ZM421.823 165.045H415.084V163.78H421.823V165.045ZM408.345 165.045H401.606V163.78H408.345V165.045ZM394.867 165.045H388.128V163.78H394.867V165.045ZM381.389 165.045H374.65V163.78H381.389V165.045ZM367.911 165.045H361.173V163.78H367.911V165.045ZM354.434 165.045H347.695V163.78H354.434L354.434 165.045ZM340.956 165.045H334.217V163.78H340.956V165.045ZM327.478 165.045H320.739V163.78H327.478V165.045ZM314 165.045H307.261V163.78H314V165.045ZM300.522 165.045H293.783V163.78H300.522V165.045ZM287.044 165.045H280.305V163.78H287.044V165.045ZM273.566 165.045H266.828V163.78H273.566V165.045ZM260.089 165.045H253.35V163.78H260.089V165.045ZM246.611 165.045H239.872V163.78H246.611V165.045ZM233.133 165.045H226.394V163.78H233.133V165.045ZM219.655 165.045H212.916V163.78H219.655V165.045ZM206.177 165.045H199.438V163.78H206.177V165.045ZM192.699 165.045H185.96V163.78H192.699V165.045ZM179.221 165.045H172.482V163.78H179.221V165.045ZM165.743 165.045H159.004V163.78H165.743V165.045ZM152.265 165.045H145.526V163.78H152.265V165.045ZM138.787 165.045H132.048V163.78H138.788L138.787 165.045ZM125.309 165.045H118.571V163.78H125.309V165.045ZM111.832 165.045H105.093V163.78H111.832V165.045ZM98.3538 165.045H91.6148V163.78H98.3538V165.045ZM84.8761 165.045H78.1371V163.78H84.8761V165.045ZM71.3981 165.045H64.6591V163.78H71.3981V165.045ZM57.9201 165.045H51.1814V163.78H57.9201V165.045ZM44.4424 165.045H37.7034V163.78H44.4424V165.045Z" fill="#E6E6E6"/>
<path d="M458.838 163.78H455.518V165.045H458.838V163.78Z" fill="#E6E6E6"/>
<path d="M30.9643 154.927H27.6445V156.191H30.9643V154.927Z" fill="#E6E6E6"/>
<path d="M448.779 156.191H442.04V154.927H448.779V156.191ZM435.301 156.191H428.562V154.927H435.301V156.191ZM421.823 156.191H415.084V154.927H421.823V156.191ZM408.345 156.191H401.606V154.927H408.345V156.191ZM394.867 156.191H388.128V154.927H394.867V156.191ZM381.389 156.191H374.65V154.927H381.389V156.191ZM367.911 156.191H361.173V154.927H367.911V156.191ZM354.434 156.191H347.695V154.927H354.434L354.434 156.191ZM340.956 156.191H334.217V154.927H340.956V156.191ZM327.478 156.191H320.739V154.927H327.478V156.191ZM314 156.191H307.261V154.927H314V156.191ZM300.522 156.191H293.783V154.927H300.522V156.191ZM287.044 156.191H280.305V154.927H287.044V156.191ZM273.566 156.191H266.828V154.927H273.566V156.191ZM260.089 156.191H253.35V154.927H260.089V156.191ZM246.611 156.191H239.872V154.927H246.611V156.191ZM233.133 156.191H226.394V154.927H233.133V156.191ZM219.655 156.191H212.916V154.927H219.655V156.191ZM206.177 156.191H199.438V154.927H206.177V156.191ZM192.699 156.191H185.96V154.927H192.699V156.191ZM179.221 156.191H172.482V154.927H179.221V156.191ZM165.743 156.191H159.004V154.927H165.743V156.191ZM152.265 156.191H145.526V154.927H152.265V156.191ZM138.787 156.191H132.048V154.927H138.788L138.787 156.191ZM125.309 156.191H118.571V154.927H125.309V156.191ZM111.832 156.191H105.093V154.927H111.832V156.191ZM98.3538 156.191H91.6148V154.927H98.3538V156.191ZM84.8761 156.191H78.1371V154.927H84.8761V156.191ZM71.3981 156.191H64.6591V154.927H71.3981V156.191ZM57.9201 156.191H51.1814V154.927H57.9201V156.191ZM44.4424 156.191H37.7034V154.927H44.4424V156.191Z" fill="#E6E6E6"/>
<path d="M458.838 154.927H455.518V156.191H458.838V154.927Z" fill="#E6E6E6"/>
<path d="M30.9643 136.587H27.6445V137.852H30.9643V136.587Z" fill="#E6E6E6"/>
<path d="M448.779 137.852H442.04V136.587H448.779V137.852ZM435.301 137.852H428.562V136.587H435.301V137.852ZM421.823 137.852H415.084V136.587H421.823V137.852ZM408.345 137.852H401.606V136.587H408.345V137.852ZM394.867 137.852H388.128V136.587H394.867V137.852ZM381.389 137.852H374.65V136.587H381.389V137.852ZM367.911 137.852H361.173V136.587H367.911V137.852ZM354.434 137.852H347.695V136.587H354.434L354.434 137.852ZM340.956 137.852H334.217V136.587H340.956V137.852ZM327.478 137.852H320.739V136.587H327.478V137.852ZM314 137.852H307.261V136.587H314V137.852ZM300.522 137.852H293.783V136.587H300.522V137.852ZM287.044 137.852H280.305V136.587H287.044V137.852ZM273.566 137.852H266.828V136.587H273.566V137.852ZM260.089 137.852H253.35V136.587H260.089V137.852ZM246.611 137.852H239.872V136.587H246.611V137.852ZM233.133 137.852H226.394V136.587H233.133V137.852ZM219.655 137.852H212.916V136.587H219.655V137.852ZM206.177 137.852H199.438V136.587H206.177V137.852ZM192.699 137.852H185.96V136.587H192.699V137.852ZM179.221 137.852H172.482V136.587H179.221V137.852ZM165.743 137.852H159.004V136.587H165.743V137.852ZM152.265 137.852H145.526V136.587H152.265V137.852ZM138.787 137.852H132.048V136.587H138.788L138.787 137.852ZM125.309 137.852H118.571V136.587H125.309V137.852ZM111.832 137.852H105.093V136.587H111.832V137.852ZM98.3538 137.852H91.6148V136.587H98.3538V137.852ZM84.8761 137.852H78.1371V136.587H84.8761V137.852ZM71.3981 137.852H64.6591V136.587H71.3981V137.852ZM57.9201 137.852H51.1814V136.587H57.9201V137.852ZM44.4424 137.852H37.7034V136.587H44.4424V137.852Z" fill="#E6E6E6"/>
<path d="M458.838 136.587H455.518V137.852H458.838V136.587Z" fill="#E6E6E6"/>
<path d="M30.9643 123.939H27.6445V125.204H30.9643V123.939Z" fill="#E6E6E6"/>
<path d="M448.779 125.204H442.04V123.939H448.779V125.204ZM435.301 125.204H428.562V123.939H435.301V125.204ZM421.823 125.204H415.084V123.939H421.823V125.204ZM408.345 125.204H401.606V123.939H408.345V125.204ZM394.867 125.204H388.128V123.939H394.867V125.204ZM381.389 125.204H374.65V123.939H381.389V125.204ZM367.911 125.204H361.173V123.939H367.911V125.204ZM354.434 125.204H347.695V123.939H354.434L354.434 125.204ZM340.956 125.204H334.217V123.939H340.956V125.204ZM327.478 125.204H320.739V123.939H327.478V125.204ZM314 125.204H307.261V123.939H314V125.204ZM300.522 125.204H293.783V123.939H300.522V125.204ZM287.044 125.204H280.305V123.939H287.044V125.204ZM273.566 125.204H266.828V123.939H273.566V125.204ZM260.089 125.204H253.35V123.939H260.089V125.204ZM246.611 125.204H239.872V123.939H246.611V125.204ZM233.133 125.204H226.394V123.939H233.133V125.204ZM219.655 125.204H212.916V123.939H219.655V125.204ZM206.177 125.204H199.438V123.939H206.177V125.204ZM192.699 125.204H185.96V123.939H192.699V125.204ZM179.221 125.204H172.482V123.939H179.221V125.204ZM165.743 125.204H159.004V123.939H165.743V125.204ZM152.265 125.204H145.526V123.939H152.265V125.204ZM138.787 125.204H132.048V123.939H138.788L138.787 125.204ZM125.309 125.204H118.571V123.939H125.309V125.204ZM111.832 125.204H105.093V123.939H111.832V125.204ZM98.3538 125.204H91.6148V123.939H98.3538V125.204ZM84.8761 125.204H78.1371V123.939H84.8761V125.204ZM71.3981 125.204H64.6591V123.939H71.3981V125.204ZM57.9201 125.204H51.1814V123.939H57.9201V125.204ZM44.4424 125.204H37.7034V123.939H44.4424V125.204Z" fill="#E6E6E6"/>
<path d="M458.838 123.939H455.518V125.204H458.838V123.939Z" fill="#E6E6E6"/>
<path d="M30.9643 96.7461H27.6445V98.0109H30.9643V96.7461Z" fill="#E6E6E6"/>
<path d="M448.779 98.0109H442.04V96.7461H448.779V98.0109ZM435.301 98.0109H428.562V96.7461H435.301V98.0109ZM421.823 98.0109H415.084V96.7461H421.823V98.0109ZM408.345 98.0109H401.606V96.7461H408.345V98.0109ZM394.867 98.0109H388.128V96.7461H394.867V98.0109ZM381.389 98.0109H374.65V96.7461H381.389V98.0109ZM367.911 98.0109H361.173V96.7461H367.911V98.0109ZM354.434 98.0109H347.695V96.7461H354.434L354.434 98.0109ZM340.956 98.0109H334.217V96.7461H340.956V98.0109ZM327.478 98.0109H320.739V96.7461H327.478V98.0109ZM314 98.0109H307.261V96.7461H314V98.0109ZM300.522 98.0109H293.783V96.7461H300.522V98.0109ZM287.044 98.0109H280.305V96.7461H287.044V98.0109ZM273.566 98.0109H266.828V96.7461H273.566V98.0109ZM260.089 98.0109H253.35V96.7461H260.089V98.0109ZM246.611 98.0109H239.872V96.7461H246.611V98.0109ZM233.133 98.0109H226.394V96.7461H233.133V98.0109ZM219.655 98.0109H212.916V96.7461H219.655V98.0109ZM206.177 98.0109H199.438V96.7461H206.177V98.0109ZM192.699 98.0109H185.96V96.7461H192.699V98.0109ZM179.221 98.0109H172.482V96.7461H179.221V98.0109ZM165.743 98.0109H159.004V96.7461H165.743V98.0109ZM152.265 98.0109H145.526V96.7461H152.265V98.0109ZM138.787 98.0109H132.048V96.7461H138.788L138.787 98.0109ZM125.309 98.0109H118.571V96.7461H125.309V98.0109ZM111.832 98.0109H105.093V96.7461H111.832V98.0109ZM98.3538 98.0109H91.6148V96.7461H98.3538V98.0109ZM84.8761 98.0109H78.1371V96.7461H84.8761V98.0109ZM71.3981 98.0109H64.6591V96.7461H71.3981V98.0109ZM57.9201 98.0109H51.1814V96.7461H57.9201V98.0109ZM44.4424 98.0109H37.7034V96.7461H44.4424V98.0109Z" fill="#E6E6E6"/>
<path d="M458.838 96.7461H455.518V98.0109H458.838V96.7461Z" fill="#E6E6E6"/>
<path d="M188.391 60.2021C188.391 67.0105 186.625 73.6661 183.316 79.3271C180.006 84.9881 175.302 89.4003 169.799 92.0058C164.295 94.6113 158.24 95.293 152.397 93.9648C146.555 92.6365 141.188 89.3579 136.976 84.5436C132.764 79.7293 129.895 73.5955 128.733 66.9179C127.571 60.2403 128.168 53.3187 130.447 47.0285C132.727 40.7383 136.587 35.362 141.54 31.5794C146.493 27.7969 152.316 25.7779 158.273 25.7779C162.233 25.7578 166.158 26.6344 169.82 28.3573C173.482 30.0801 176.809 32.615 179.609 35.8156C182.41 39.0162 184.627 42.8191 186.135 47.0047C187.642 51.1903 188.409 55.6758 188.391 60.2021Z" fill="#F2F2F2"/>
<path d="M170.591 51.9654L170.442 52.2725C171.768 48.5361 170.562 43.932 168.196 41.1147C165.829 38.2973 162.54 37.0093 159.301 36.4983C156.896 36.0136 154.424 36.2332 152.114 37.1367C148.803 38.5945 146.273 41.9692 144.161 45.4799C143.195 47.0856 142.245 48.9162 142.342 50.9232C142.431 52.7857 143.398 54.3662 144.19 55.9464C144.983 57.5265 145.644 59.487 145.076 61.2116C144.737 62.2394 144.021 62.9796 143.44 63.8203C142.859 64.6611 142.381 65.7974 142.662 66.8523C142.786 67.2559 143 67.6156 143.283 67.8964C143.566 68.1771 143.907 68.3692 144.274 68.454C144.985 68.5896 145.712 68.5699 146.416 68.396L164.879 65.2077C166.134 64.9911 167.324 64.4308 168.348 63.5749C169.372 62.7189 170.2 61.5925 170.761 60.2917C171.322 58.991 171.6 57.5545 171.57 56.1047C171.54 54.6549 171.204 53.2348 170.591 51.9654Z" fill="#2F2E41"/>
<path d="M156.858 65.0604C161.843 65.0604 165.884 60.4412 165.884 54.7431C165.884 49.045 161.843 44.4258 156.858 44.4258C151.872 44.4258 147.831 49.045 147.831 54.7431C147.831 60.4412 151.872 65.0604 156.858 65.0604Z" fill="#FFB9B9"/>
<path d="M180.889 82.9308C175.671 89.7168 168.327 93.8853 160.444 94.5365C152.56 95.1877 144.768 92.2694 138.751 86.4115L141.334 78.1726C141.918 76.7093 142.839 75.4552 143.999 74.5448C145.159 73.6344 146.514 73.102 147.919 73.0047L149.562 72.8894L153.481 69.0264C153.481 69.0264 164.04 68.5955 163.883 68.3892L170.279 72.7863L170.274 72.7559L172.788 72.9319C174.193 73.0287 175.548 73.5609 176.708 74.4714C177.868 75.3818 178.789 76.6362 179.373 78.0998L180.889 82.9308Z" fill="#6C63FF"/>
<path d="M165.42 45.1673C165.187 43.7584 163.93 43.114 162.853 42.8018C159.728 41.8906 156.478 41.6866 153.285 42.2013C150.958 42.5807 148.575 43.4172 146.886 45.4938C145.524 47.2423 144.752 49.4886 144.71 51.829C144.641 53.2284 144.914 54.6221 145.5 55.8537C145.761 56.4271 146.149 56.9129 146.625 57.2633C147.101 57.6136 147.648 57.8167 148.213 57.8524L148.321 58.2829C150.658 57.8525 152.886 56.8504 154.852 55.3449C156.818 53.8395 158.477 51.8663 159.715 49.5603C159.217 51.5912 158.227 53.4197 156.858 54.8345C159.918 53.4351 162.578 51.0923 164.541 48.0669C165.077 47.2535 165.598 46.2392 165.42 45.1673Z" fill="#2F2E41"/>
<path d="M414.935 105.538C431.569 105.538 445.053 90.1253 445.053 71.1134C445.053 52.1014 431.569 36.6892 414.935 36.6892C398.301 36.6892 384.816 52.1014 384.816 71.1134C384.816 90.1253 398.301 105.538 414.935 105.538Z" fill="#F2F2F2"/>
<path d="M406.664 58.1963C409.013 58.1963 410.917 56.0203 410.917 53.3362C410.917 50.652 409.013 48.4761 406.664 48.4761C404.316 48.4761 402.412 50.652 402.412 53.3362C402.412 56.0203 404.316 58.1963 406.664 58.1963Z" fill="#2F2E41"/>
<path d="M413.468 76.6648C419.417 76.6648 424.24 71.1524 424.24 64.3526C424.24 57.5527 419.417 52.0403 413.468 52.0403C407.518 52.0403 402.695 57.5527 402.695 64.3526C402.695 71.1524 407.518 76.6648 413.468 76.6648Z" fill="#2F2E41"/>
<path d="M414.359 76.6616C419.194 76.6616 423.113 72.1822 423.113 66.6565C423.113 61.1308 419.194 56.6514 414.359 56.6514C409.525 56.6514 405.605 61.1308 405.605 66.6565C405.605 72.1822 409.525 76.6616 414.359 76.6616Z" fill="#9E616A"/>
<path d="M420.303 56.4578C418.769 55.3889 417.012 54.8108 415.216 54.7837C413.42 54.7566 411.65 55.2817 410.092 56.3039C408.534 57.3261 407.245 58.808 406.359 60.5946C405.474 62.3812 405.024 64.4068 405.058 66.4598C409.519 67.7398 414.205 68.7193 418.962 66.766L420.085 63.6236L420.747 66.7683C422.196 67.445 423.648 68.0176 425.101 66.7618C425.16 64.7146 424.748 62.6855 423.906 60.8773C423.064 59.0691 421.822 57.5451 420.303 56.4578Z" fill="#2F2E41"/>
<path d="M402.705 40.1427C401.212 39.4144 399.57 39.1782 397.966 39.4606C396.362 39.7431 394.858 40.5331 393.627 41.7412C392.422 42.9837 391.505 44.5476 390.957 46.2935C390.409 48.0394 390.248 49.913 390.487 51.7475C390.969 55.4787 392.954 58.6918 394.783 61.8309C396.612 64.9699 398.4 68.4097 398.398 72.1813C398.396 74.8979 397.452 77.5029 395.773 79.4251C394.093 81.3473 391.815 82.4298 389.438 82.4352C392.228 83.8078 395.14 85.2073 398.173 85.0446C401.207 84.8818 404.387 82.6528 404.882 79.2279C405.238 76.7602 404.179 74.3539 403.295 72.0656C401.856 68.337 400.816 64.4235 400.198 60.41C399.903 58.4945 399.71 56.4807 400.257 54.6387C400.692 53.2738 401.499 52.1047 402.56 51.304C403.62 50.5033 404.878 50.1132 406.147 50.1914L407.15 49.1607C407.321 47.3159 406.985 45.4558 406.189 43.8394C405.392 42.2231 404.174 40.9309 402.705 40.1427Z" fill="#2F2E41"/>
<path d="M437.597 94.1457C432.379 100.932 425.035 105.1 417.152 105.751C409.268 106.403 401.476 103.484 395.459 97.6263L398.042 89.3875C398.626 87.9241 399.547 86.67 400.707 85.7596C401.867 84.8492 403.222 84.3168 404.627 84.2196L406.27 84.1043L410.189 80.2413C410.189 80.2413 420.748 79.8103 420.591 79.604L426.987 84.0011L426.982 83.9707L429.496 84.1467C430.901 84.2435 432.256 84.7757 433.416 85.6862C434.576 86.5966 435.497 87.851 436.081 89.3146L437.597 94.1457Z" fill="#6C63FF"/>
<path d="M359.36 34.4852C359.349 41.2936 357.573 47.9456 354.254 53.5999C350.936 59.2542 346.225 63.6569 340.718 66.2512C335.211 68.8455 329.154 69.515 323.313 68.1749C317.473 66.8348 312.111 63.5453 307.907 58.7225C303.702 53.8997 300.843 47.7601 299.691 41.0801C298.54 34.4001 299.147 27.4798 301.436 21.1942C303.726 14.9087 307.594 9.54019 312.553 5.76765C317.512 1.99512 323.338 -0.0120175 329.295 5.41337e-05C333.253 -0.00366611 337.173 0.886675 340.829 2.6199C344.485 4.35313 347.805 6.89508 350.599 10.0997C353.393 13.3042 355.605 17.1083 357.109 21.2932C358.612 25.4781 359.377 29.9613 359.36 34.4852Z" fill="#F2F2F2"/>
<path d="M315.282 23.2261C316.528 18.6897 319.36 14.5291 323.277 12.9955C327.193 11.4619 332.929 13.7981 335.873 17.1523C341.26 23.2878 342.574 44.3654 338.873 51.0262C338.137 50.9816 335.598 50.9487 334.853 50.9168L333.799 46.9022V50.8772C332.612 50.8353 331.416 50.8064 330.21 50.7904C326.169 50.7331 322.304 48.8871 319.429 45.6405C316.553 42.3938 314.891 37.9994 314.792 33.3811C314.695 28.963 314.792 25.0138 315.282 23.2261Z" fill="#2F2E41"/>
<path d="M328.795 38.2607C333.536 38.2607 337.379 33.8683 337.379 28.45C337.379 23.0318 333.536 18.6394 328.795 18.6394C324.055 18.6394 320.212 23.0318 320.212 28.45C320.212 33.8683 324.055 38.2607 328.795 38.2607Z" fill="#9E616A"/>
<path d="M321.388 19.8339L331.271 14.1777C333.291 15.2184 335.032 16.858 336.311 18.9264C337.59 20.9948 338.362 23.4167 338.546 25.9409L338.793 29.3135L334.654 28.1094L334.201 23.797L333.498 27.773L331.588 27.2176L331.606 20.5225L329.695 27.2128L322.874 25.4216L321.388 19.8339Z" fill="#2F2E41"/>
<path d="M351.592 57.2048C346.374 63.9907 339.03 68.1593 331.147 68.8105C323.263 69.4617 315.472 66.5433 309.454 60.6854L312.037 52.4465C312.621 50.9832 313.543 49.7291 314.702 48.8187C315.862 47.9083 317.217 47.3759 318.622 47.2787L320.265 47.1634L324.184 43.3004C324.184 43.3004 334.743 42.8694 334.586 42.6631L340.982 47.0602L340.977 47.0298L343.491 47.2058C344.896 47.3027 346.251 47.8349 347.411 48.7453C348.571 49.6558 349.492 50.9101 350.076 52.3737L351.592 57.2048Z" fill="#6C63FF"/>
<path d="M246.444 124.509C263.078 124.509 276.562 109.097 276.562 90.0853C276.562 71.0734 263.078 55.6611 246.444 55.6611C229.81 55.6611 216.325 71.0734 216.325 90.0853C216.325 109.097 229.81 124.509 246.444 124.509Z" fill="#F2F2F2"/>
<path d="M245.612 94.3497C250.922 94.3497 255.227 89.4299 255.227 83.3611C255.227 77.2923 250.922 72.3726 245.612 72.3726C240.303 72.3726 235.998 77.2923 235.998 83.3611C235.998 89.4299 240.303 94.3497 245.612 94.3497Z" fill="#FFB6B6"/>
<path d="M269.039 113.118C263.821 119.904 256.478 124.072 248.594 124.723C240.71 125.375 232.919 122.456 226.901 116.598L229.485 108.359C230.068 106.896 230.99 105.642 232.15 104.732C233.31 103.821 234.665 103.289 236.069 103.192L237.713 103.076L241.631 99.2132C241.631 99.2132 252.19 98.7823 252.034 98.5759L258.43 102.973L258.424 102.943L260.939 103.119C262.343 103.215 263.698 103.748 264.858 104.658C266.018 105.569 266.94 106.823 267.523 108.287L269.039 113.118Z" fill="#6C63FF"/>
<path d="M255.752 76.5462C254.939 73.2227 253.093 70.3523 250.561 68.4739C248.542 66.9983 246.024 66.245 243.737 67.0253C241.45 67.8057 239.557 70.3706 239.707 73.1419C239.283 73.0147 238.837 73.0255 238.418 73.1732C238 73.3209 237.626 73.5996 237.339 73.9777C236.765 74.7518 236.366 75.6749 236.177 76.6662C235.443 79.7733 235.492 83.054 236.317 86.131L236.272 86.5726C237.387 86.3616 238.234 85.2676 238.76 84.102C239.286 82.9363 239.589 81.6432 240.159 80.506C240.729 79.3689 241.676 78.3545 242.806 78.3191L242.707 80.2929C243.679 79.7205 244.651 79.1481 245.623 78.5758C245.391 79.2079 245.16 79.84 244.929 80.4722C245.778 80.0666 246.627 79.6611 247.476 79.2556C247.381 79.8635 247.286 80.4713 247.191 81.0792C247.414 80.5515 247.728 80.081 248.114 79.696C248.5 79.311 248.951 79.0196 249.438 78.8394C249.926 78.6592 250.441 78.5939 250.951 78.6475C251.461 78.7012 251.957 78.8726 252.408 79.1514C253.423 79.9321 254.154 81.1085 254.466 82.4609C254.774 83.8103 254.94 85.197 254.959 86.5914C256.271 83.4607 256.552 79.8948 255.752 76.5462Z" fill="#2F2E41"/>
<path d="M72.0784 140.159C88.7124 140.159 102.197 124.747 102.197 105.735C102.197 86.7228 88.7124 71.3105 72.0784 71.3105C55.4445 71.3105 41.96 86.7228 41.96 105.735C41.96 124.747 55.4445 140.159 72.0784 140.159Z" fill="#F2F2F2"/>
<path d="M71.4145 109.305C76.4609 109.305 80.5517 104.63 80.5517 98.8619C80.5517 93.0941 76.4609 88.4185 71.4145 88.4185C66.3682 88.4185 62.2773 93.0941 62.2773 98.8619C62.2773 104.63 66.3682 109.305 71.4145 109.305Z" fill="#9E616A"/>
<path d="M94.2861 128.464C89.0682 135.25 81.7248 139.418 73.8411 140.069C65.9574 140.72 58.1658 137.802 52.1484 131.944L54.7318 123.705C55.3156 122.242 56.2369 120.988 57.3968 120.077C58.5568 119.167 59.9117 118.635 61.3162 118.537L62.9597 118.422L66.8785 114.559C66.8785 114.559 77.4374 114.128 77.2808 113.922L83.6767 118.319L83.6714 118.289L86.1857 118.465C87.5903 118.561 88.9454 119.094 90.1054 120.004C91.2654 120.915 92.1867 122.169 92.7701 123.632L94.2861 128.464Z" fill="#6C63FF"/>
<path d="M63.1124 103.69C63.0945 103.633 63.0782 103.575 63.0606 103.518C63.0256 103.553 62.992 103.59 62.9541 103.623L63.1124 103.69Z" fill="#2F2E41"/>
<path d="M82.3605 95.1468C82.3136 94.0871 82.0708 93.0508 81.648 92.1062C81.2251 91.1616 80.632 90.3302 79.9075 89.6667C79.3311 89.2549 78.8229 88.7299 78.4065 88.1158C78.2054 87.6463 78.035 87.1605 77.8965 86.6623C77.1951 84.7541 75.1961 83.7399 73.4029 84.0289C72.5112 84.2225 71.6628 84.6197 70.9084 85.1966C70.1541 85.7735 69.5093 86.5184 69.0125 87.3867C68.4975 87.1046 67.9226 86.9971 67.3558 87.077C66.789 87.1568 66.2541 87.4206 65.8144 87.8372C65.3747 88.2537 65.0486 88.8056 64.8748 89.4273C64.701 90.0491 64.6867 90.7148 64.8337 91.3455C63.9051 90.4905 62.403 91.1744 61.8233 92.3655C61.2437 93.5565 61.3357 95.0139 61.508 96.3625C61.8202 98.7999 62.3403 101.197 63.0608 103.518C63.965 102.608 63.9094 100.951 63.7989 99.5499C63.6841 98.0944 63.7529 96.3174 64.8664 95.5992C65.9423 94.9054 67.248 95.6672 68.4342 96.0612C69.3721 96.3648 70.3564 96.4323 71.3193 96.2592C72.2823 96.0861 73.2009 95.6764 74.0119 95.0584C74.5956 94.5276 75.2082 94.0398 75.8461 93.5979C76.1682 93.3806 76.534 93.2624 76.908 93.2548C77.282 93.2472 77.6513 93.3505 77.98 93.5546C78.5002 94.067 78.8497 94.7689 78.9694 95.5418C79.4261 97.3121 79.8829 99.0823 80.3396 100.853C81.0101 100.119 81.5368 99.2308 81.8852 98.2473C82.2335 97.2638 82.3955 96.207 82.3605 95.1468Z" fill="#2F2E41"/>
<path d="M72.1787 166.653H69.3037V262.968H72.1787V166.653Z" fill="#3F3D56"/>
<path d="M158.251 121.67H155.376V262.968H158.251V121.67Z" fill="#3F3D56"/>
<path d="M244.501 151.244H241.626V262.968H244.501V151.244Z" fill="#3F3D56"/>
<path d="M330.751 97.0249H327.876V262.968H330.751V97.0249Z" fill="#3F3D56"/>
<path d="M417.001 134.814H414.126V262.968H417.001V134.814Z" fill="#3F3D56"/>
<path d="M156.991 133.987C161.849 133.987 165.786 129.487 165.786 123.935C165.786 118.383 161.849 113.882 156.991 113.882C152.134 113.882 148.196 118.383 148.196 123.935C148.196 129.487 152.134 133.987 156.991 133.987Z" fill="#6C63FF"/>
<path d="M329.491 107.699C334.349 107.699 338.286 103.198 338.286 97.6467C338.286 92.0949 334.349 87.5942 329.491 87.5942C324.634 87.5942 320.696 92.0949 320.696 97.6467C320.696 103.198 324.634 107.699 329.491 107.699Z" fill="#6C63FF"/>
<path d="M243.241 161.918C248.099 161.918 252.036 157.418 252.036 151.866C252.036 146.314 248.099 141.813 243.241 141.813C238.384 141.813 234.446 146.314 234.446 151.866C234.446 157.418 238.384 161.918 243.241 161.918Z" fill="#6C63FF"/>
<path d="M70.7404 176.705C75.5978 176.705 79.5355 172.205 79.5355 166.653C79.5355 161.101 75.5978 156.601 70.7404 156.601C65.883 156.601 61.9453 161.101 61.9453 166.653C61.9453 172.205 65.883 176.705 70.7404 176.705Z" fill="#6C63FF"/>
<path d="M415.741 143.845C420.599 143.845 424.536 139.345 424.536 133.793C424.536 128.241 420.599 123.74 415.741 123.74C410.884 123.74 406.946 128.241 406.946 133.793C406.946 139.345 410.884 143.845 415.741 143.845Z" fill="#6C63FF"/>
<path d="M477.437 261.975H10.5118L7.58008 263.651C7.58009 264.095 7.73453 264.521 8.00943 264.835C8.28433 265.15 8.65716 265.326 9.04593 265.326H477.437C477.825 265.326 478.198 265.15 478.473 264.835C478.748 264.521 478.902 264.095 478.902 263.651C478.902 263.206 478.748 262.78 478.473 262.466C478.198 262.152 477.825 261.975 477.437 261.975Z" fill="#3F3D56"/>
<path d="M8.7951 272.91C13.6525 272.91 17.5902 268.409 17.5902 262.857C17.5902 257.306 13.6525 252.805 8.7951 252.805C3.9377 252.805 0 257.306 0 262.857C0 268.409 3.9377 272.91 8.7951 272.91Z" fill="#3F3D56"/>
<path d="M70.7648 302C75.6222 302 79.5599 297.5 79.5599 291.948C79.5599 286.396 75.6222 281.895 70.7648 281.895C65.9074 281.895 61.9697 286.396 61.9697 291.948C61.9697 297.5 65.9074 302 70.7648 302Z" fill="#E6E6E6"/>
<path d="M157.079 302C161.937 302 165.874 297.5 165.874 291.948C165.874 286.396 161.937 281.895 157.079 281.895C152.222 281.895 148.284 286.396 148.284 291.948C148.284 297.5 152.222 302 157.079 302Z" fill="#E6E6E6"/>
<path d="M243.394 302C248.251 302 252.189 297.5 252.189 291.948C252.189 286.396 248.251 281.895 243.394 281.895C238.536 281.895 234.599 286.396 234.599 291.948C234.599 297.5 238.536 302 243.394 302Z" fill="#E6E6E6"/>
<path d="M329.154 302C334.012 302 337.95 297.5 337.95 291.948C337.95 286.396 334.012 281.895 329.154 281.895C324.297 281.895 320.359 286.396 320.359 291.948C320.359 297.5 324.297 302 329.154 302Z" fill="#E6E6E6"/>
<path d="M415.469 302C420.326 302 424.264 297.5 424.264 291.948C424.264 286.396 420.326 281.895 415.469 281.895C410.612 281.895 406.674 286.396 406.674 291.948C406.674 297.5 410.612 302 415.469 302Z" fill="#E6E6E6"/>
<path d="M480.205 272.91C485.063 272.91 489 268.409 489 262.857C489 257.306 485.063 252.805 480.205 252.805C475.348 252.805 471.41 257.306 471.41 262.857C471.41 268.409 475.348 272.91 480.205 272.91Z" fill="#3F3D56"/>
</g>
<defs>
<clipPath id="clip0_1864_9411">
<rect width="489" height="302" fill="white"/>
</clipPath>
</defs>
</svg>
