<svg width="700" height="500" viewBox="0 0 700 500" fill="none" xmlns="http://www.w3.org/2000/svg">
<g clip-path="url(#clip0_917_4143)">
<path d="M481.165 154.551C481.141 165.848 477.054 176.886 469.422 186.268C461.79 195.65 450.955 202.956 438.287 207.261C425.62 211.565 411.688 212.676 398.255 210.453C384.822 208.229 372.49 202.771 362.819 194.768C353.148 186.765 346.572 176.578 343.923 165.494C341.273 154.41 342.67 142.927 347.936 132.497C353.201 122.067 362.1 113.159 373.505 106.899C384.911 100.639 398.312 97.3089 412.013 97.3289C421.117 97.3228 430.133 98.8001 438.542 101.676C446.951 104.552 454.589 108.77 461.015 114.087C467.441 119.405 472.529 125.717 475.987 132.661C479.445 139.605 481.205 147.044 481.165 154.551V154.551Z" fill="#F2F2F2"/>
<path d="M596.461 187.847L606.201 172.512C597.467 163.815 568.809 153.267 568.809 153.267L530.022 124.157C529.609 122.859 528.789 121.672 527.643 120.718C526.497 119.764 525.067 119.076 523.496 118.723C521.925 118.369 520.269 118.363 518.694 118.705C517.12 119.048 515.682 119.726 514.527 120.672C513.371 121.617 512.538 122.798 512.111 124.093C511.684 125.389 511.679 126.755 512.096 128.052C512.513 129.35 513.337 130.535 514.485 131.487C515.634 132.438 517.066 133.124 518.638 133.474L560.541 174.913L596.461 187.847Z" fill="#9E616A"/>
<path d="M591.742 186.789L605.496 190.4C615.497 193.026 626.275 192.828 636.125 189.838V189.838C639.105 188.923 641.714 187.339 643.66 185.266C645.605 183.192 646.808 180.712 647.133 178.104V178.104C647.545 174.566 646.313 171.032 643.685 168.215C641.057 165.398 637.23 163.509 632.978 162.93C620.08 161.182 603.46 160.321 597.531 166.138L597.471 166.197L591.742 186.789Z" fill="#3F3D56"/>
<path d="M492.814 233.737C531.074 233.737 562.089 208.164 562.089 176.617C562.089 145.07 531.074 119.496 492.814 119.496C454.555 119.496 423.539 145.07 423.539 176.617C423.539 208.164 454.555 233.737 492.814 233.737Z" fill="white"/>
<path d="M464.543 154.274C463.593 158.486 462.033 162.589 459.899 166.496C447.679 187.812 482.48 180.864 494.917 180.864C508.514 180.864 521.524 186.76 519.537 160.563C518.689 149.373 508.514 140.262 494.917 140.262C483.302 140.262 466.972 144.519 464.543 154.274Z" fill="#2F2E41"/>
<path d="M492.878 180.859C503.928 180.859 512.885 173.473 512.885 164.362C512.885 155.251 503.928 147.865 492.878 147.865C481.829 147.865 472.871 155.251 472.871 164.362C472.871 173.473 481.829 180.859 492.878 180.859Z" fill="#FFB6B6"/>
<path d="M479.292 147.546C482.798 145.783 486.814 144.83 490.919 144.785C495.025 144.741 499.07 145.606 502.631 147.292C506.192 148.977 509.138 151.421 511.162 154.367C513.186 157.312 514.212 160.652 514.135 164.037C503.94 166.148 493.23 167.763 482.358 164.542L479.791 159.361L478.277 164.546C474.966 165.662 471.647 166.606 468.327 164.535C468.192 161.16 469.133 157.814 471.057 154.833C472.981 151.851 475.821 149.339 479.292 147.546V147.546Z" fill="#2F2E41"/>
<path d="M546.68 214.598C534.678 225.859 517.788 232.775 499.655 233.856C481.522 234.937 463.6 230.094 449.76 220.374L455.702 206.703C457.044 204.275 459.163 202.194 461.831 200.683C464.499 199.173 467.616 198.289 470.846 198.128L474.626 197.937L483.64 191.527C483.64 191.527 507.927 190.812 507.566 190.469L522.278 197.765L522.265 197.715L528.048 198.007C531.279 198.168 534.396 199.051 537.064 200.562C539.732 202.072 541.851 204.154 543.193 206.582L546.68 214.598Z" fill="#6C63FF"/>
<path d="M486.738 449.968L485.016 430.227C473.741 425.58 461.259 423.272 448.656 423.504C466.387 434.805 464.967 457.391 477.246 472.848C481.121 477.645 486.255 481.661 492.268 484.6C498.281 487.538 505.019 489.323 511.982 489.822L526.739 496.822C528.427 487.623 527.676 478.231 524.538 469.294C521.4 460.358 515.95 452.088 508.563 445.055C504.372 441.143 499.599 437.683 494.359 434.754C491.134 442.39 486.738 449.968 486.738 449.968Z" fill="#F2F2F2"/>
<path d="M38.0814 100.066L36.3601 80.3248C25.0843 75.6772 12.603 73.3693 0 73.6017C17.7307 84.9022 16.3105 107.488 28.59 122.946C32.4646 127.742 37.5987 131.759 43.6118 134.697C49.6249 137.635 56.3628 139.42 63.3262 139.919L78.0825 146.919C79.7704 137.72 79.0197 128.329 75.882 119.392C72.7442 110.455 67.294 102.185 59.9069 95.1524C55.7154 91.2409 50.9431 87.7801 45.7028 84.8518C42.4773 92.4875 38.0814 100.066 38.0814 100.066Z" fill="#F2F2F2"/>
<path d="M551.289 490.148L539.779 490.147L534.303 453.541H551.291L551.289 490.148Z" fill="#9E616A"/>
<path d="M554.225 499.348L517.111 499.347V498.959C517.112 495.8 518.634 492.771 521.343 490.537C524.052 488.304 527.726 487.049 531.557 487.048H531.558L538.337 482.808L550.986 487.049L554.226 487.049L554.225 499.348Z" fill="#2F2E41"/>
<path d="M652.734 490.148L641.224 490.147L635.748 453.541H652.736L652.734 490.148Z" fill="#9E616A"/>
<path d="M655.669 499.348L618.555 499.346V498.959C618.555 495.8 620.077 492.771 622.786 490.537C625.495 488.304 629.169 487.049 633 487.048H633.001L639.781 482.808L652.429 487.049L655.669 487.049L655.669 499.348Z" fill="#2F2E41"/>
<path d="M635.227 294.223L644.908 370.057C644.908 370.057 657.796 445.989 655.376 456.466C652.955 466.943 655.981 468.44 655.981 468.44L633.897 467.143C633.897 467.143 634.502 460.657 630.871 457.664C627.241 454.67 629.056 445.69 629.056 445.69L586.216 322.162L560.198 387.02C560.198 387.02 555.963 458.364 555.358 459.362C554.753 460.36 552.937 473.83 552.937 473.83H530.55C530.55 473.83 533.575 465.848 529.34 463.353C525.104 460.859 521.474 462.854 525.104 458.364C528.735 453.874 529.945 448.386 528.735 445.891C527.525 443.397 527.524 433.419 527.524 433.419C527.524 433.419 529.34 298.713 539.626 294.223C549.912 289.733 635.227 294.223 635.227 294.223Z" fill="#2F2E41"/>
<path d="M589.38 140.678C602.531 140.678 613.191 131.888 613.191 121.044C613.191 110.201 602.531 101.411 589.38 101.411C576.229 101.411 565.568 110.201 565.568 121.044C565.568 131.888 576.229 140.678 589.38 140.678Z" fill="#9E616A"/>
<path d="M643.457 302.488C597.343 310.34 536.232 296.84 536.232 296.84L552.534 238.574L546.739 177.596C546.031 170.14 551.182 163.15 559.195 160.673L570.26 157.256L579.405 146.459L605.529 147.166L615.972 158.501L624.214 162.106L642.081 169.919L642.159 169.952V169.984L636.552 214.829L633.171 241.868C633.171 241.868 643.441 272.278 641.334 276.312C639.226 280.338 641.058 278.393 641.57 280.546C642.081 282.698 643.646 282.835 643.881 287.075C644.125 291.309 643.457 302.488 643.457 302.488Z" fill="#3F3D56"/>
<path d="M699.202 500H342.992C342.781 499.999 342.579 499.93 342.43 499.807C342.281 499.683 342.197 499.516 342.197 499.342C342.197 499.168 342.281 499.001 342.43 498.878C342.579 498.754 342.781 498.685 342.992 498.684H699.202C699.413 498.684 699.616 498.754 699.766 498.877C699.916 499 700 499.168 700 499.342C700 499.517 699.916 499.684 699.766 499.807C699.616 499.931 699.413 500 699.202 500V500Z" fill="#CCCCCC"/>
<path d="M588.22 139.735C592.396 139.699 596.561 139.37 600.67 138.75C604.737 137.978 613.711 132.256 616.156 128.876C617.973 126.365 619.064 122.48 619.659 119.664C620.463 115.937 620.308 112.112 619.205 108.438C618.101 104.763 616.075 101.32 613.255 98.3327C612.168 97.0811 610.692 96.0949 608.981 95.4785C608.83 95.4334 608.674 95.3939 608.517 95.3606C606.037 94.8787 603.789 93.7966 602.06 92.2534C601.725 91.9409 601.362 91.6488 600.976 91.3793C599.037 90.0992 596.758 89.2156 594.325 88.8008C590.395 88.0226 584.774 88.9978 577.617 91.7017C574.022 93.0602 570.031 92.6812 566.955 92.1992C566.783 92.1756 566.606 92.1895 566.442 92.2398C566.278 92.29 566.133 92.3747 566.021 92.4855C564.751 93.5206 563.053 94.121 561.269 94.166C560.176 94.2289 559.069 95.5015 557.733 97.1587C557.43 97.5349 557.076 97.9739 556.82 98.2418L556.769 97.7387L556.168 98.314C555.223 99.2182 554.572 100.305 554.274 101.473C553.976 102.64 554.041 103.851 554.463 104.993C554.886 106.134 555.651 107.169 556.689 108C557.727 108.832 559.003 109.433 560.399 109.749C561.506 109.967 562.638 110.091 563.776 110.119C564.466 110.156 565.179 110.193 565.864 110.276C568.066 110.599 570.128 111.388 571.849 112.564C573.571 113.74 574.893 115.265 575.686 116.988C575.874 117.387 576.17 117.744 576.551 118.033C576.933 118.322 577.39 118.535 577.887 118.655C578.384 118.775 578.908 118.8 579.419 118.727C579.929 118.653 580.412 118.485 580.831 118.233C581.527 117.761 582.352 117.436 583.234 117.284C584.116 117.132 585.029 117.158 585.896 117.36C586.65 117.685 587.246 118.214 587.583 118.858C587.991 119.575 588.649 120.176 589.472 120.583C592.28 121.702 592.634 126.916 591.775 131.287C590.947 135.5 589.146 138.574 587.395 138.761C586.047 138.905 585.895 138.988 585.803 139.187L585.721 139.365L585.878 139.527C586.632 139.734 587.431 139.805 588.22 139.735V139.735Z" fill="#2F2E41"/>
<path d="M492.815 234.453C478.942 234.453 465.38 231.061 453.845 224.706C442.311 218.351 433.32 209.318 428.011 198.75C422.702 188.182 421.313 176.553 424.02 165.334C426.726 154.114 433.407 143.809 443.216 135.721C453.026 127.632 465.524 122.124 479.13 119.892C492.737 117.66 506.84 118.806 519.657 123.183C532.474 127.561 543.429 134.974 551.136 144.485C558.844 153.996 562.957 165.178 562.957 176.617C562.936 191.951 555.539 206.651 542.39 217.494C529.24 228.336 511.411 234.435 492.815 234.453V234.453ZM492.815 120.212C479.285 120.212 466.059 123.52 454.81 129.718C443.56 135.916 434.792 144.725 429.615 155.032C424.437 165.338 423.082 176.679 425.722 187.621C428.361 198.562 434.877 208.613 444.444 216.501C454.01 224.389 466.199 229.761 479.469 231.938C492.739 234.114 506.493 232.997 518.993 228.728C531.493 224.459 542.176 217.229 549.693 207.954C557.21 198.678 561.222 187.773 561.222 176.617C561.201 161.662 553.987 147.326 541.163 136.751C528.339 126.177 510.951 120.229 492.815 120.212Z" fill="#3F3D56"/>
<path d="M250.697 114.957C288.956 114.957 319.972 89.3829 319.972 57.8361C319.972 26.2893 288.956 0.715576 250.697 0.715576C212.437 0.715576 181.422 26.2893 181.422 57.8361C181.422 89.3829 212.437 114.957 250.697 114.957Z" fill="white"/>
<path d="M253.904 63.6626C266.38 63.6626 276.493 55.3235 276.493 45.0366C276.493 34.7498 266.38 26.4106 253.904 26.4106C241.428 26.4106 231.314 34.7498 231.314 45.0366C231.314 55.3235 241.428 63.6626 253.904 63.6626Z" fill="#FFB8B8"/>
<path d="M273.793 32.7318C273.793 32.7318 279.674 23.4609 266.735 22.6181C266.735 22.6181 255.704 14.3673 244.46 21.1098C244.46 21.1098 238.327 21.1098 234.974 26.8322C234.974 26.8322 230.15 25.3238 229.09 29.3606C229.09 29.3606 225.561 37.7887 229.09 45.374C232.62 52.9593 233.792 53.8021 233.792 53.8021C233.792 53.8021 231.316 44.3892 245.433 43.5463C259.549 42.7035 272.5 35.4115 273.677 44.6824C274.853 53.9533 276.147 49.7652 276.147 49.7652C276.147 49.7652 287.321 36.5245 273.793 32.7318Z" fill="#2F2E41"/>
<path d="M302.795 95.8177C290.794 107.078 273.903 113.995 255.77 115.075C237.637 116.156 219.716 111.313 205.875 101.593L211.817 87.9223C213.16 85.4942 215.279 83.4132 217.947 81.9026C220.615 80.3919 223.731 79.5086 226.962 79.3472L230.742 79.1559L239.755 72.7459C239.755 72.7459 264.042 72.0309 263.682 71.6885L278.393 78.9846L278.381 78.9343L284.164 79.2264C287.394 79.387 290.511 80.2701 293.179 81.7808C295.847 83.2916 297.966 85.3729 299.308 87.8015L302.795 95.8177Z" fill="#6C63FF"/>
<path d="M250.697 115.672C236.825 115.672 223.263 112.28 211.728 105.925C200.193 99.5698 191.203 90.5371 185.894 79.9689C180.585 69.4008 179.196 57.7719 181.902 46.5528C184.609 35.3337 191.289 25.0283 201.099 16.9398C210.909 8.85129 223.407 3.34295 237.013 1.11133C250.62 -1.12029 264.723 0.0250556 277.54 4.40253C290.357 8.77999 301.312 16.193 309.019 25.7041C316.726 35.2151 320.84 46.3971 320.84 57.836C320.819 73.1697 313.422 87.8705 300.273 98.713C287.123 109.556 269.294 115.655 250.697 115.672V115.672ZM250.697 1.43112C237.168 1.43112 223.942 4.7392 212.693 10.9371C201.443 17.1349 192.675 25.9441 187.498 36.2508C182.32 46.5574 180.965 57.8986 183.605 68.8401C186.244 79.7815 192.759 89.8319 202.326 97.7203C211.893 105.609 224.082 110.981 237.352 113.157C250.622 115.334 264.376 114.217 276.876 109.947C289.375 105.678 300.059 98.4487 307.576 89.1729C315.093 79.8972 319.105 68.9919 319.105 57.836C319.084 42.8817 311.87 28.5448 299.046 17.9705C286.221 7.39617 268.834 1.44808 250.697 1.43112V1.43112Z" fill="#3F3D56"/>
<path d="M89.0055 205.115C127.265 205.115 158.281 179.542 158.281 147.995C158.281 116.448 127.265 90.8743 89.0055 90.8743C50.746 90.8743 19.7305 116.448 19.7305 147.995C19.7305 179.542 50.746 205.115 89.0055 205.115Z" fill="white"/>
<path d="M56.8956 129.414C59.7601 121.886 66.274 114.982 75.2826 112.438C84.2918 109.893 97.4835 113.769 104.256 119.335C116.645 129.516 119.669 164.49 111.157 175.543C109.464 175.469 103.622 175.414 101.909 175.361L99.4846 168.7V175.296C96.7547 175.226 94.0035 175.178 91.2309 175.151C81.9349 175.056 73.0457 171.993 66.4319 166.606C59.8182 161.219 55.9952 153.927 55.7665 146.264C55.5447 138.933 55.7667 132.38 56.8956 129.414Z" fill="#2F2E41"/>
<path d="M87.9773 154.361C98.881 154.361 107.72 147.073 107.72 138.082C107.72 129.091 98.881 121.803 87.9773 121.803C77.0736 121.803 68.2344 129.091 68.2344 138.082C68.2344 147.073 77.0736 154.361 87.9773 154.361Z" fill="#9E616A"/>
<path d="M70.9375 123.785L93.6696 114.4C98.317 116.126 102.32 118.847 105.262 122.279C108.205 125.711 109.98 129.73 110.404 133.919L110.971 139.515L101.452 137.517L100.409 130.361L98.7922 136.959L94.3992 136.037L94.441 124.928L90.0453 136.029L74.3555 133.057L70.9375 123.785Z" fill="#2F2E41"/>
<path d="M140.411 185.795C128.409 197.055 111.518 203.972 93.3852 205.053C75.252 206.133 57.3308 201.291 43.4902 191.57L49.4321 177.9C50.7749 175.471 52.8939 173.391 55.5619 171.88C58.2299 170.369 61.3463 169.486 64.5768 169.324L68.3569 169.133L77.3705 162.723C77.3705 162.723 101.657 162.008 101.297 161.666L116.008 168.962L115.996 168.912L121.779 169.204C125.01 169.364 128.126 170.247 130.795 171.758C133.463 173.269 135.582 175.35 136.924 177.779L140.411 185.795Z" fill="#6C63FF"/>
<path d="M89.0041 205.831C75.1312 205.831 61.5698 202.439 50.0349 196.084C38.5 189.729 29.5096 180.696 24.2007 170.128C18.8917 159.56 17.5027 147.931 20.2091 136.712C22.9156 125.493 29.596 115.187 39.4057 107.099C49.2153 99.0102 61.7136 93.5019 75.3199 91.2703C88.9263 89.0386 103.03 90.184 115.847 94.5615C128.663 98.9389 139.618 106.352 147.326 115.863C155.033 125.374 159.147 136.556 159.147 147.995C159.126 163.329 151.729 178.029 138.579 188.872C125.429 199.715 107.601 205.814 89.0041 205.831ZM89.0041 91.5901C75.4744 91.5901 62.2486 94.8981 50.9991 101.096C39.7496 107.294 30.9817 116.103 25.8042 126.41C20.6266 136.716 19.2719 148.058 21.9114 158.999C24.5509 169.94 31.066 179.991 40.6329 187.879C50.1998 195.768 62.3888 201.14 75.6585 203.316C88.9282 205.492 102.683 204.375 115.182 200.106C127.682 195.837 138.366 188.608 145.883 179.332C153.399 170.056 157.411 159.151 157.411 147.995C157.391 133.041 150.177 118.704 137.352 108.129C124.528 97.5551 107.14 91.607 89.0041 91.59V91.5901Z" fill="#3F3D56"/>
<path d="M556.796 206.25L546.308 191.253C532.723 192.676 506.569 206.98 506.569 206.98L455.981 218.393C454.43 217.985 452.775 217.921 451.185 218.207C449.594 218.494 448.123 219.121 446.919 220.026C445.716 220.93 444.823 222.08 444.33 223.36C443.837 224.639 443.761 226.003 444.111 227.315C444.46 228.626 445.223 229.838 446.321 230.83C447.419 231.821 448.815 232.556 450.367 232.961C451.92 233.366 453.574 233.427 455.164 233.137C456.754 232.847 458.224 232.217 459.424 231.31L524.308 224.332L556.796 206.25Z" fill="#9E616A"/>
<path d="M553.184 208.969L576.665 192.752L580.081 179.699C580.74 177.135 580.517 174.469 579.435 172.004C578.353 169.539 576.457 167.372 573.961 165.749V165.749C570.559 163.567 566.279 162.532 561.986 162.853C557.694 163.174 553.71 164.827 550.839 167.477C542.14 175.521 532.355 186.631 535.137 193.876L535.165 193.949L553.184 208.969Z" fill="#3F3D56"/>
<path d="M193.3 265.303H105.074C102.71 265.301 100.443 264.526 98.7713 263.147C97.0994 261.769 96.1589 259.899 96.1562 257.95V213.145C96.1589 211.195 97.0994 209.326 98.7713 207.948C100.443 206.569 102.71 205.794 105.074 205.792H193.3C195.664 205.794 197.931 206.569 199.603 207.948C201.275 209.326 202.216 211.195 202.218 213.145V257.95C202.216 259.899 201.275 261.769 199.603 263.147C197.931 264.526 195.664 265.301 193.3 265.303Z" fill="#E6E6E6"/>
<path d="M158.247 259.532H111.276C109.062 259.53 106.939 258.804 105.373 257.513C103.807 256.222 102.926 254.471 102.924 252.645V218.449C102.926 216.623 103.807 214.873 105.373 213.582C106.939 212.291 109.062 211.565 111.276 211.562H187.099C189.313 211.565 191.436 212.291 193.002 213.582C194.568 214.873 195.449 216.623 195.451 218.449V228.856C195.44 236.989 191.517 244.786 184.542 250.537C177.567 256.288 168.111 259.523 158.247 259.532V259.532Z" fill="white"/>
<path d="M179.536 230.288H118.841C118.316 230.288 117.812 230.116 117.441 229.809C117.07 229.503 116.861 229.088 116.861 228.655C116.861 228.222 117.07 227.807 117.441 227.501C117.812 227.195 118.316 227.023 118.841 227.023H179.536C180.061 227.023 180.564 227.195 180.935 227.501C181.307 227.807 181.515 228.222 181.515 228.655C181.515 229.088 181.307 229.503 180.935 229.809C180.564 230.116 180.061 230.288 179.536 230.288Z" fill="#6C63FF"/>
<path d="M128.335 236.737H118.841C118.316 236.737 117.812 236.565 117.441 236.259C117.07 235.953 116.861 235.538 116.861 235.105C116.861 234.672 117.07 234.257 117.441 233.951C117.812 233.645 118.316 233.473 118.841 233.473H128.335C128.86 233.473 129.364 233.645 129.735 233.951C130.106 234.257 130.315 234.672 130.315 235.105C130.315 235.538 130.106 235.953 129.735 236.259C129.364 236.565 128.86 236.737 128.335 236.737V236.737Z" fill="#6C63FF"/>
<path d="M145.15 243.187H118.841C118.316 243.186 117.814 243.013 117.444 242.707C117.073 242.401 116.865 241.987 116.865 241.554C116.865 241.122 117.073 240.707 117.444 240.401C117.814 240.095 118.316 239.923 118.841 239.922H145.15C145.675 239.923 146.177 240.095 146.547 240.401C146.918 240.707 147.126 241.122 147.126 241.554C147.126 241.987 146.918 242.401 146.547 242.707C146.177 243.013 145.675 243.186 145.15 243.187V243.187Z" fill="#6C63FF"/>
<path d="M93.0772 220.288C103.385 220.288 111.74 213.398 111.74 204.899C111.74 196.4 103.385 189.51 93.0772 189.51C82.7699 189.51 74.4141 196.4 74.4141 204.899C74.4141 213.398 82.7699 220.288 93.0772 220.288Z" fill="#3F3D56"/>
<path d="M422.402 62.088H334.176C331.812 62.0858 329.545 61.3104 327.873 59.9318C326.201 58.5532 325.26 56.6841 325.258 54.7345V9.92969C325.26 7.9801 326.201 6.11099 327.873 4.73242C329.545 3.35384 331.812 2.57838 334.176 2.57617H422.402C424.766 2.57837 427.033 3.35383 428.705 4.73241C430.377 6.11098 431.317 7.98009 431.32 9.92969V54.7345C431.317 56.6841 430.377 58.5532 428.705 59.9318C427.033 61.3104 424.766 62.0858 422.402 62.088V62.088Z" fill="#E6E6E6"/>
<path d="M387.348 56.3168H340.378C338.164 56.3147 336.041 55.5885 334.475 54.2975C332.909 53.0064 332.028 51.2559 332.025 49.43V15.234C332.028 13.4081 332.909 11.6575 334.475 10.3665C336.041 9.07539 338.164 8.34918 340.378 8.34717H416.2C418.415 8.34919 420.538 9.07542 422.104 10.3665C423.669 11.6576 424.55 13.4081 424.553 15.234V25.6405C424.541 33.7736 420.618 41.5709 413.643 47.3218C406.669 53.0728 397.212 56.3076 387.348 56.3168Z" fill="white"/>
<path d="M408.635 27.0722H347.94C347.415 27.0722 346.912 26.9002 346.541 26.5941C346.169 26.288 345.961 25.8729 345.961 25.44C345.961 25.0071 346.169 24.592 346.541 24.2859C346.912 23.9798 347.415 23.8079 347.94 23.8079H408.635C409.16 23.8079 409.664 23.9798 410.035 24.2859C410.406 24.592 410.615 25.0071 410.615 25.44C410.615 25.8729 410.406 26.288 410.035 26.5941C409.664 26.9002 409.16 27.0722 408.635 27.0722Z" fill="#6C63FF"/>
<path d="M357.435 33.5215H347.94C347.415 33.5215 346.912 33.3496 346.541 33.0435C346.169 32.7374 345.961 32.3222 345.961 31.8893C345.961 31.4564 346.169 31.0413 346.541 30.7352C346.912 30.429 347.415 30.2571 347.94 30.2571H357.435C357.96 30.2571 358.463 30.429 358.834 30.7352C359.206 31.0413 359.414 31.4564 359.414 31.8893C359.414 32.3222 359.206 32.7374 358.834 33.0435C358.463 33.3496 357.96 33.5215 357.435 33.5215Z" fill="#6C63FF"/>
<path d="M374.252 39.971H347.942C347.418 39.9701 346.915 39.7977 346.545 39.4917C346.175 39.1857 345.967 38.7711 345.967 38.3388C345.967 37.9065 346.175 37.4918 346.545 37.1858C346.915 36.8798 347.418 36.7074 347.942 36.7065H374.252C374.777 36.7065 375.28 36.8785 375.652 37.1846C376.023 37.4907 376.231 37.9059 376.231 38.3388C376.231 38.7717 376.023 39.1868 375.652 39.4929C375.28 39.7991 374.777 39.971 374.252 39.971Z" fill="#6C63FF"/>
<path d="M322.179 70.7385C332.486 70.7385 340.842 63.8488 340.842 55.3499C340.842 46.8509 332.486 39.9612 322.179 39.9612C311.871 39.9612 303.516 46.8509 303.516 55.3499C303.516 63.8488 311.871 70.7385 322.179 70.7385Z" fill="#3F3D56"/>
</g>
<defs>
<clipPath id="clip0_917_4143">
<rect width="700" height="500" fill="white"/>
</clipPath>
</defs>
</svg>
