<svg width="700" height="500" viewBox="0 0 700 500" fill="none" xmlns="http://www.w3.org/2000/svg">
<g clip-path="url(#clip0_919_4208)">
<path d="M658.517 451.206C652.003 451.206 645.755 453.697 641.149 458.132C636.543 462.567 633.955 468.582 633.955 474.855C633.955 481.127 636.543 487.142 641.149 491.577C645.755 496.012 652.003 498.504 658.517 498.504H658.517C665.031 498.504 671.279 496.012 675.885 491.577C680.491 487.142 683.079 481.127 683.079 474.855C683.079 468.583 680.491 462.567 675.885 458.132C671.279 453.697 665.031 451.206 658.517 451.206Z" fill="#CCCCCC"/>
<path d="M656.186 484.677C655.539 484.678 654.91 484.476 654.393 484.103L654.361 484.079L647.606 479.105C647.293 478.874 647.03 478.586 646.833 478.257C646.636 477.928 646.507 477.566 646.456 477.189C646.404 476.813 646.43 476.43 646.532 476.064C646.633 475.697 646.809 475.353 647.049 475.052C647.289 474.75 647.588 474.498 647.93 474.308C648.271 474.118 648.648 473.994 649.039 473.945C649.43 473.895 649.827 473.92 650.208 474.018C650.589 474.117 650.946 474.286 651.259 474.517L655.634 477.748L665.972 464.761C666.212 464.46 666.511 464.207 666.852 464.018C667.193 463.828 667.57 463.704 667.961 463.655C668.351 463.605 668.748 463.63 669.129 463.728C669.509 463.826 669.866 463.995 670.179 464.226L670.18 464.227L670.116 464.313L670.182 464.227C670.812 464.694 671.225 465.382 671.329 466.142C671.433 466.901 671.22 467.67 670.737 468.278L658.576 483.546C658.295 483.898 657.933 484.182 657.519 484.378C657.105 484.573 656.65 484.674 656.189 484.673L656.186 484.677Z" fill="white"/>
<path d="M605.04 489.046L593.411 489.045L587.881 445.856L605.044 445.858L605.04 489.046Z" fill="#FFB8B8"/>
<path d="M585.104 485.846H607.532V499.442H570.982C570.982 497.657 571.348 495.889 572.057 494.239C572.767 492.589 573.807 491.091 575.118 489.828C576.43 488.565 577.986 487.564 579.7 486.881C581.413 486.197 583.249 485.846 585.104 485.846Z" fill="#2F2E41"/>
<path d="M558.755 489.046L547.125 489.045L541.596 445.856L558.759 445.858L558.755 489.046Z" fill="#FFB8B8"/>
<path d="M538.819 485.846H561.247V499.442H524.697C524.697 497.657 525.063 495.889 525.772 494.239C526.482 492.589 527.522 491.091 528.833 489.828C530.145 488.565 531.701 487.564 533.415 486.881C535.128 486.197 536.964 485.846 538.819 485.846Z" fill="#2F2E41"/>
<path d="M613.999 339.731C613.063 338.736 612.365 337.555 611.954 336.272C611.544 334.989 611.43 333.635 611.622 332.305C611.813 330.975 612.306 329.702 613.064 328.575C613.822 327.448 614.827 326.495 616.009 325.782L612.407 305.084L624.938 299.908L629.598 329.208C630.709 331.199 631.023 333.513 630.48 335.713C629.938 337.912 628.576 339.843 626.653 341.14C624.73 342.438 622.38 343.011 620.048 342.751C617.716 342.491 615.563 341.417 613.999 339.731V339.731Z" fill="#FFB8B8"/>
<path d="M515.898 329.951C516.991 329.118 517.882 328.065 518.508 326.865C519.133 325.664 519.477 324.347 519.516 323.005C519.555 321.663 519.289 320.329 518.734 319.097C518.18 317.864 517.352 316.764 516.308 315.874L523.412 296.032L511.942 288.935L502.319 317.091C500.881 318.878 500.174 321.111 500.332 323.366C500.49 325.621 501.502 327.743 503.176 329.328C504.849 330.913 507.069 331.852 509.414 331.967C511.758 332.082 514.065 331.364 515.898 329.951V329.951Z" fill="#FFB8B8"/>
<path d="M575.457 183.781C589.256 183.781 600.442 173.011 600.442 159.726C600.442 146.44 589.256 135.67 575.457 135.67C561.659 135.67 550.473 146.44 550.473 159.726C550.473 173.011 561.659 183.781 575.457 183.781Z" fill="#FFB8B8"/>
<path d="M515.125 315.107C514.696 315.107 514.27 315.049 513.858 314.934L506.576 312.921C505.413 312.598 504.43 311.845 503.842 310.826C503.253 309.807 503.107 308.606 503.435 307.484L518.463 256.395L539.421 206.86C541.505 201.936 545.859 198.706 550.783 198.432C553.033 198.326 555.265 198.851 557.211 199.942C559.157 201.033 560.733 202.644 561.747 204.58V204.58C562.874 206.652 563.493 208.945 563.556 211.283C563.619 213.621 563.125 215.942 562.11 218.067L538.29 268.224L519.352 312.38C519.007 313.187 518.421 313.876 517.669 314.362C516.916 314.847 516.031 315.106 515.125 315.107V315.107Z" fill="#6C63FF"/>
<path d="M589.557 179.899L575.675 180.137C574.229 180.164 572.797 179.864 571.494 179.261C570.19 178.657 569.052 177.767 568.172 176.663C567.291 175.558 566.692 174.27 566.424 172.901C566.156 171.533 566.225 170.123 566.626 168.785C566.923 167.819 567.146 166.833 567.293 165.835C567.449 164.746 567.479 163.645 567.384 162.55C567.296 161.454 566.824 160.419 566.045 159.615C565.266 158.811 564.226 158.286 563.096 158.126C561.967 157.965 560.814 158.179 559.827 158.732C558.84 159.286 558.078 160.145 557.665 161.171V161.171C555.331 161.203 550.358 160.47 548.024 160.502C543.068 148.269 553.868 132.262 565.494 126.25C577.346 120.12 592.731 126.356 597.274 139.131C603.579 139.24 608.702 145.227 609.515 151.967C610.328 158.708 607.448 165.746 603.042 170.911C598.636 176.077 592.852 179.843 589.557 179.899Z" fill="#2F2E41"/>
<path d="M543.925 485.014C542.801 485.008 541.717 484.605 540.881 483.881C540.044 483.157 539.513 482.163 539.387 481.087L534.236 314.353L599.124 318.8L599.174 319.202C613.837 437.382 608.824 478.292 608.772 478.692C608.736 479.296 608.571 479.887 608.287 480.428C608.003 480.968 607.607 481.447 607.122 481.833C606.638 482.219 606.076 482.505 605.471 482.673C604.867 482.841 604.233 482.887 603.609 482.808L589.269 483.139C588.182 483.02 587.175 482.531 586.431 481.759C585.686 480.987 585.254 479.984 585.212 478.931L571.813 358.168C571.73 357.854 571.535 357.578 571.263 357.389C570.99 357.2 570.657 357.109 570.322 357.133C569.977 357.132 569.642 357.247 569.375 357.457C569.108 357.667 568.925 357.96 568.858 358.286L563.681 479.445C563.736 480.57 563.34 481.672 562.575 482.524C561.81 483.375 560.734 483.911 559.57 484.02L544.38 484.992C544.229 485.007 544.077 485.014 543.925 485.014V485.014Z" fill="#2F2E41"/>
<path d="M570.85 334.275C570.462 334.275 570.075 334.269 569.685 334.258C551.027 333.717 536.43 320.125 532.401 315.972C531.888 315.443 531.519 314.799 531.327 314.099C531.135 313.399 531.126 312.664 531.301 311.96L542.065 268.116L539.209 230C538.76 224.709 539.481 219.388 541.323 214.385C543.165 209.383 546.087 204.813 549.896 200.976C553.07 197.747 556.927 195.214 561.207 193.546C565.488 191.879 570.09 191.118 574.703 191.313C592.865 192.147 607.195 207.779 607.324 226.898C607.525 256.511 606.62 258.546 606.322 259.214C597.258 279.583 602.208 308.175 603.942 316.454C604.096 317.192 604.053 317.957 603.815 318.674C603.577 319.392 603.152 320.039 602.581 320.555C592.612 329.662 581.941 334.275 570.85 334.275Z" fill="#6C63FF"/>
<path d="M617.708 323.13C616.673 323.13 615.668 322.791 614.859 322.169C614.05 321.547 613.483 320.68 613.252 319.708L602.147 273.129L587.265 219.89C586.629 217.632 586.539 215.264 587.003 212.968C587.466 210.672 588.47 208.509 589.937 206.645C591.27 204.898 593.101 203.561 595.207 202.794C597.313 202.028 599.605 201.865 601.805 202.326C606.615 203.38 610.355 207.257 611.565 212.446L623.726 264.58L629.791 317.411C629.922 318.57 629.571 319.731 628.816 320.642C628.061 321.553 626.963 322.14 625.76 322.274L618.233 323.101C618.059 323.12 617.884 323.13 617.708 323.13V323.13Z" fill="#6C63FF"/>
<path d="M298.052 50.9305H26.4483C19.4338 50.9305 12.7065 48.2475 7.74652 43.4719C2.78649 38.6962 0 32.219 0 25.4652C0 18.7114 2.78649 12.2342 7.74652 7.45859C12.7065 2.68293 19.4338 0 26.4483 0H298.052C305.067 0 311.794 2.68293 316.754 7.45859C321.714 12.2342 324.501 18.7114 324.501 25.4652C324.501 32.219 321.714 38.6962 316.754 43.4719C311.794 48.2475 305.067 50.9305 298.052 50.9305V50.9305Z" fill="#E6E6E6"/>
<path d="M26.4483 8.3252C21.7269 8.3252 17.199 10.131 13.8605 13.3454C10.522 16.5598 8.64648 20.9194 8.64648 25.4653C8.64648 30.0111 10.522 34.3707 13.8605 37.5851C17.199 40.7995 21.7269 42.6053 26.4483 42.6053H298.052C302.774 42.6053 307.302 40.7995 310.64 37.5851C313.979 34.3707 315.854 30.0111 315.854 25.4653C315.854 20.9194 313.979 16.5598 310.64 13.3454C307.302 10.131 302.774 8.3252 298.052 8.3252H26.4483Z" fill="white"/>
<path d="M394.035 1.64648C387.521 1.64646 381.273 4.13802 376.667 8.57306C372.06 13.0081 369.473 19.0233 369.473 25.2954C369.473 31.5675 372.06 37.5828 376.667 42.0178C381.273 46.4529 387.52 48.9445 394.035 48.9446H394.035C400.549 48.9446 406.796 46.453 411.403 42.0179C416.009 37.5829 418.597 31.5676 418.597 25.2955C418.597 19.0234 416.009 13.0082 411.403 8.57312C406.796 4.13807 400.549 1.64648 394.035 1.64648V1.64648Z" fill="#6C63FF"/>
<path d="M391.704 35.1172C391.057 35.1182 390.428 34.9168 389.91 34.5433L389.878 34.5202L383.124 29.5452C382.811 29.3143 382.548 29.0264 382.351 28.6977C382.153 28.3691 382.025 28.0062 381.973 27.6299C381.921 27.2535 381.947 26.871 382.049 26.5043C382.151 26.1375 382.327 25.7937 382.567 25.4924C382.807 25.1911 383.106 24.9383 383.447 24.7484C383.789 24.5584 384.166 24.4351 384.556 24.3855C384.947 24.3359 385.345 24.3609 385.726 24.4591C386.106 24.5573 386.463 24.7268 386.776 24.9579L391.151 28.1882L401.49 15.2018C401.73 14.9007 402.029 14.6481 402.37 14.4582C402.711 14.2684 403.087 14.1451 403.478 14.0954C403.869 14.0458 404.266 14.0706 404.646 14.1687C405.027 14.2667 405.384 14.436 405.697 14.6668L405.697 14.6674L405.633 14.7532L405.699 14.6674C406.33 15.1343 406.743 15.823 406.847 16.5825C406.951 17.342 406.738 18.1102 406.254 18.7186L394.094 33.9866C393.812 34.3384 393.451 34.6231 393.037 34.8186C392.623 35.014 392.167 35.115 391.706 35.1137L391.704 35.1172Z" fill="white"/>
<path d="M298.052 137.12H26.4483C19.4338 137.12 12.7065 134.437 7.74652 129.662C2.78649 124.886 0 118.409 0 111.655C0 104.901 2.78649 98.4242 7.74652 93.6485C12.7065 88.8729 19.4338 86.1899 26.4483 86.1899H298.052C305.067 86.1899 311.794 88.8729 316.754 93.6485C321.714 98.4242 324.501 104.901 324.501 111.655C324.501 118.409 321.714 124.886 316.754 129.662C311.794 134.437 305.067 137.12 298.052 137.12V137.12Z" fill="#E6E6E6"/>
<path d="M26.4483 94.5151C21.7269 94.5151 17.199 96.321 13.8605 99.5354C10.522 102.75 8.64648 107.109 8.64648 111.655C8.64648 116.201 10.522 120.561 13.8605 123.775C17.199 126.989 21.7269 128.795 26.4483 128.795H298.052C302.774 128.795 307.302 126.989 310.64 123.775C313.979 120.561 315.854 116.201 315.854 111.655C315.854 107.109 313.979 102.75 310.64 99.5354C307.302 96.321 302.774 94.5151 298.052 94.5151H26.4483Z" fill="white"/>
<path d="M394.035 87.8364C387.521 87.8364 381.273 90.328 376.667 94.763C372.06 99.1981 369.473 105.213 369.473 111.485C369.473 117.758 372.06 123.773 376.667 128.208C381.273 132.643 387.52 135.134 394.035 135.135H394.035C400.549 135.135 406.796 132.643 411.403 128.208C416.009 123.773 418.597 117.758 418.597 111.485C418.597 105.213 416.009 99.1981 411.403 94.7631C406.796 90.328 400.549 87.8364 394.035 87.8364V87.8364Z" fill="#6C63FF"/>
<path d="M391.704 121.307C391.057 121.308 390.428 121.107 389.91 120.733L389.878 120.71L383.124 115.735C382.811 115.504 382.548 115.216 382.351 114.888C382.153 114.559 382.025 114.196 381.973 113.82C381.921 113.443 381.947 113.061 382.049 112.694C382.151 112.327 382.327 111.984 382.567 111.682C382.807 111.381 383.106 111.128 383.447 110.938C383.789 110.748 384.166 110.625 384.556 110.575C384.947 110.526 385.345 110.551 385.726 110.649C386.106 110.747 386.463 110.917 386.776 111.148L391.151 114.378L401.49 101.392C401.73 101.091 402.029 100.838 402.37 100.648C402.711 100.458 403.087 100.335 403.478 100.285C403.869 100.236 404.266 100.261 404.646 100.359C405.027 100.457 405.384 100.626 405.697 100.857L405.697 100.857L405.633 100.943L405.699 100.857C406.33 101.324 406.743 102.013 406.847 102.772C406.951 103.532 406.738 104.3 406.254 104.909L394.094 120.177C393.812 120.528 393.451 120.813 393.037 121.009C392.623 121.204 392.167 121.305 391.706 121.304L391.704 121.307Z" fill="white"/>
<path d="M298.052 223.311H26.4483C19.4338 223.311 12.7065 220.628 7.74652 215.852C2.78649 211.076 0 204.599 0 197.845C0 191.092 2.78649 184.614 7.74652 179.839C12.7065 175.063 19.4338 172.38 26.4483 172.38H298.052C305.067 172.38 311.794 175.063 316.754 179.839C321.714 184.614 324.501 191.092 324.501 197.845C324.501 204.599 321.714 211.076 316.754 215.852C311.794 220.628 305.067 223.311 298.052 223.311V223.311Z" fill="#E6E6E6"/>
<path d="M26.4483 180.705C21.7269 180.705 17.199 182.511 13.8605 185.725C10.522 188.94 8.64648 193.299 8.64648 197.845C8.64648 202.391 10.522 206.751 13.8605 209.965C17.199 213.179 21.7269 214.985 26.4483 214.985H298.052C302.774 214.985 307.302 213.179 310.64 209.965C313.979 206.751 315.854 202.391 315.854 197.845C315.854 193.299 313.979 188.94 310.64 185.725C307.302 182.511 302.774 180.705 298.052 180.705H26.4483Z" fill="white"/>
<path d="M394.035 174.027C387.521 174.027 381.273 176.518 376.667 180.953C372.06 185.388 369.473 191.403 369.473 197.676C369.473 203.948 372.06 209.963 376.667 214.398C381.273 218.833 387.52 221.325 394.035 221.325H394.035C400.549 221.325 406.796 218.833 411.403 214.398C416.009 209.963 418.597 203.948 418.597 197.676C418.597 191.404 416.009 185.388 411.403 180.953C406.796 176.518 400.549 174.027 394.035 174.027Z" fill="#E6E6E6"/>
<path d="M698.983 500H486.379C486.109 500 485.85 499.897 485.659 499.713C485.468 499.529 485.361 499.28 485.361 499.02C485.361 498.761 485.468 498.512 485.659 498.328C485.85 498.144 486.109 498.041 486.379 498.041H698.983C699.252 498.041 699.511 498.144 699.702 498.328C699.893 498.512 700 498.761 700 499.02C700 499.28 699.893 499.529 699.702 499.713C699.511 499.897 699.252 500 698.983 500Z" fill="#CCCCCC"/>
</g>
<defs>
<clipPath id="clip0_919_4208">
<rect width="700" height="500" fill="white"/>
</clipPath>
</defs>
</svg>
