<svg width="700" height="500" viewBox="0 0 700 500" fill="none" xmlns="http://www.w3.org/2000/svg">
<g clip-path="url(#clip0_919_4135)">
<path d="M119.237 396.191L72.8813 380.936C67.7779 357.125 68.9223 332.502 76.2151 309.202C93.8008 349.081 148.65 360.23 179.104 392.508C188.52 402.643 195.394 414.645 199.217 427.623C203.04 440.602 203.713 454.224 201.187 467.48L210.063 499.201C187.13 496.723 165.04 489.593 145.315 478.3C125.59 467.007 108.699 451.82 95.8049 433.786C88.6777 423.601 82.9406 412.612 78.7288 401.077C98.739 399.74 119.237 396.191 119.237 396.191Z" fill="#F2F2F2"/>
<path d="M434.396 34.3134V383.004L433.11 397.523C430.855 422.726 419.52 446.445 400.986 464.745C398.358 467.335 395.609 469.787 392.739 472.101C389.205 474.971 385.489 477.636 381.611 480.08C379.393 481.485 377.12 482.81 374.808 484.066C361.368 491.377 346.522 496.106 331.129 497.979H220.826C212.048 497.986 203.565 494.995 196.95 489.561C193.675 486.876 190.93 483.666 188.842 480.08C185.925 475.049 184.399 469.407 184.406 463.674V34.3134C184.419 25.2165 188.261 16.4954 195.09 10.0629C201.919 3.63041 211.178 0.0115626 220.835 0H397.976C398.395 0 398.806 0.00876841 399.225 0.0175465C399.495 0.0263245 399.765 0.0351052 400.036 0.0614394C400.399 0.0702175 400.763 0.0965532 401.117 0.131665C401.573 0.158 402.021 0.201849 402.468 0.254517C402.878 0.307186 403.288 0.359856 403.698 0.421303C403.782 0.430081 403.857 0.447631 403.94 0.456409C404.462 0.535411 404.984 0.62319 405.497 0.728526C406.009 0.825085 406.531 0.939204 407.034 1.0621C407.398 1.14988 407.771 1.24643 408.134 1.34299C408.143 1.34299 408.162 1.35177 408.171 1.35177C409.243 1.65023 410.306 1.99256 411.349 2.38762C411.675 2.50169 412.002 2.63341 412.318 2.76508L412.458 2.81775C412.719 2.92308 412.971 3.02842 413.222 3.14253C413.977 3.46732 414.723 3.82722 415.459 4.20468C416.67 4.83358 417.843 5.52519 418.972 6.27634C419.336 6.51331 419.69 6.76792 420.035 7.02248C420.324 7.22438 420.613 7.43505 420.892 7.66328C420.916 7.67492 420.938 7.6897 420.957 7.70717C420.995 7.7335 421.032 7.76861 421.069 7.79494C421.321 7.97928 421.563 8.17241 421.796 8.36552C422.253 8.7342 422.7 9.12043 423.138 9.51545C423.259 9.62078 423.38 9.72611 423.502 9.84023C423.623 9.94557 423.735 10.0597 423.856 10.1738C423.977 10.2791 424.089 10.3932 424.201 10.4986C424.267 10.5526 424.33 10.6113 424.387 10.6742C424.722 11.0077 425.049 11.3501 425.365 11.6924C425.766 12.1225 426.158 12.5614 426.521 13.0091C426.838 13.3778 427.136 13.7465 427.425 14.1239C427.695 14.4662 427.947 14.8086 428.199 15.1597C428.266 15.2471 428.328 15.3379 428.385 15.4319C428.646 15.7918 428.888 16.1604 429.13 16.5291C429.736 17.4596 430.286 18.4252 430.789 19.3995C430.976 19.7682 431.153 20.1281 431.32 20.4968C431.535 20.9445 431.731 21.3921 431.917 21.8398C431.991 22.0066 432.057 22.1822 432.122 22.349C432.224 22.6035 432.318 22.8581 432.411 23.1127C432.513 23.3936 432.616 23.6832 432.709 23.9641L432.933 24.6488C433.063 25.0614 433.175 25.4652 433.287 25.8777C433.352 26.1235 433.417 26.3693 433.473 26.6239C433.911 28.4166 434.194 30.2395 434.321 32.075C434.331 32.3033 434.349 32.5227 434.359 32.751C434.387 33.2688 434.396 33.7867 434.396 34.3134Z" fill="#3F3D56"/>
<path d="M181.879 156.222C180.792 156.22 179.75 155.813 178.981 155.089C178.213 154.365 177.781 153.384 177.779 152.36V126.103C177.778 125.595 177.884 125.093 178.09 124.624C178.295 124.154 178.597 123.728 178.978 123.369C179.359 123.01 179.811 122.725 180.309 122.53C180.806 122.336 181.34 122.236 181.879 122.236C182.418 122.236 182.951 122.336 183.449 122.53C183.947 122.725 184.399 123.01 184.78 123.369C185.16 123.728 185.462 124.154 185.668 124.624C185.874 125.093 185.979 125.595 185.978 126.103V152.36C185.977 153.384 185.545 154.365 184.776 155.089C184.008 155.813 182.966 156.22 181.879 156.222V156.222Z" fill="#3F3D56"/>
<path d="M181.058 105.252C179.972 105.251 178.93 104.843 178.161 104.12C177.393 103.396 176.96 102.414 176.959 101.391V75.1334C176.961 74.1103 177.393 73.1296 178.162 72.4067C178.93 71.6839 179.972 71.2778 181.058 71.2778C182.145 71.2778 183.186 71.6839 183.955 72.4067C184.724 73.1296 185.156 74.1103 185.158 75.1334V101.391C185.157 102.414 184.724 103.396 183.956 104.12C183.187 104.843 182.145 105.251 181.058 105.252V105.252Z" fill="#3F3D56"/>
<path d="M281.717 12.7571C281.718 11.7334 282.15 10.7519 282.919 10.028C283.687 9.30415 284.729 8.89694 285.816 8.89575H313.692C314.78 8.89575 315.822 9.30257 316.591 10.0267C317.36 10.7509 317.792 11.733 317.792 12.7571C317.792 13.7812 317.36 14.7633 316.591 15.4875C315.822 16.2116 314.78 16.6184 313.692 16.6184H285.816C284.729 16.6172 283.687 16.21 282.919 15.4861C282.15 14.7623 281.718 13.7808 281.717 12.7571V12.7571Z" fill="white"/>
<path d="M181.879 201.013C180.792 201.012 179.75 200.605 178.981 199.881C178.213 199.157 177.781 198.176 177.779 197.152V170.895C177.778 170.387 177.884 169.884 178.09 169.415C178.295 168.946 178.597 168.52 178.978 168.161C179.359 167.801 179.811 167.516 180.309 167.322C180.806 167.128 181.34 167.028 181.879 167.028C182.418 167.028 182.951 167.128 183.449 167.322C183.947 167.516 184.399 167.801 184.78 168.161C185.16 168.52 185.462 168.946 185.668 169.415C185.874 169.884 185.979 170.387 185.978 170.895V197.152C185.977 198.176 185.545 199.157 184.776 199.881C184.008 200.605 182.966 201.012 181.879 201.013V201.013Z" fill="#3F3D56"/>
<path d="M437.226 143.956C436.14 143.955 435.098 143.548 434.329 142.824C433.56 142.1 433.128 141.118 433.127 140.095V113.837C433.126 113.33 433.232 112.827 433.437 112.358C433.643 111.889 433.945 111.462 434.325 111.103C434.706 110.744 435.158 110.459 435.656 110.265C436.154 110.07 436.688 109.97 437.226 109.97C437.765 109.97 438.299 110.07 438.797 110.265C439.294 110.459 439.747 110.744 440.127 111.103C440.508 111.462 440.81 111.889 441.016 112.358C441.221 112.827 441.327 113.33 441.326 113.837V140.095C441.325 141.118 440.892 142.1 440.124 142.824C439.355 143.548 438.313 143.955 437.226 143.956V143.956Z" fill="#3F3D56"/>
<path d="M329.269 16.6184C331.533 16.6184 333.369 14.8897 333.369 12.7571C333.369 10.6245 331.533 8.89575 329.269 8.89575C327.005 8.89575 325.17 10.6245 325.17 12.7571C325.17 14.8897 327.005 16.6184 329.269 16.6184Z" fill="white"/>
<path d="M416.263 46.7015H202.55C202.303 46.6963 202.068 46.6002 201.895 46.4336C201.722 46.267 201.625 46.0432 201.625 45.8102C201.625 45.5772 201.722 45.3535 201.895 45.1869C202.068 45.0203 202.303 44.9241 202.55 44.9189H416.263C416.511 44.9241 416.746 45.0203 416.919 45.1869C417.092 45.3535 417.189 45.5772 417.189 45.8102C417.189 46.0432 417.092 46.267 416.919 46.4336C416.746 46.6002 416.511 46.6963 416.263 46.7015V46.7015Z" fill="white"/>
<path d="M218.749 40.3682C221.811 40.3682 224.294 37.9775 224.294 35.0284C224.294 32.0794 221.811 29.6887 218.749 29.6887C215.686 29.6887 213.203 32.0794 213.203 35.0284C213.203 37.9775 215.686 40.3682 218.749 40.3682Z" fill="white"/>
<path d="M237.905 40.3682C240.967 40.3682 243.45 37.9775 243.45 35.0284C243.45 32.0794 240.967 29.6887 237.905 29.6887C234.842 29.6887 232.359 32.0794 232.359 35.0284C232.359 37.9775 234.842 40.3682 237.905 40.3682Z" fill="white"/>
<path d="M257.061 40.3682C260.124 40.3682 262.606 37.9775 262.606 35.0284C262.606 32.0794 260.124 29.6887 257.061 29.6887C253.998 29.6887 251.516 32.0794 251.516 35.0284C251.516 37.9775 253.998 40.3682 257.061 40.3682Z" fill="white"/>
<path d="M404.729 31.0122H391.121C390.852 31.0173 390.595 31.1218 390.406 31.3032C390.217 31.4847 390.111 31.7286 390.111 31.9827C390.111 32.2368 390.217 32.4808 390.406 32.6623C390.595 32.8437 390.852 32.9482 391.121 32.9533H404.729C404.999 32.9482 405.256 32.8437 405.445 32.6623C405.634 32.4808 405.739 32.2368 405.739 31.9827C405.739 31.7286 405.634 31.4847 405.445 31.3032C405.256 31.1218 404.999 31.0173 404.729 31.0122V31.0122Z" fill="white"/>
<path d="M404.729 34.6553H391.121C390.852 34.6603 390.595 34.7648 390.406 34.9463C390.217 35.1277 390.111 35.3717 390.111 35.6258C390.111 35.8799 390.217 36.1239 390.406 36.3053C390.595 36.4868 390.852 36.5913 391.121 36.5963H404.729C404.999 36.5913 405.256 36.4868 405.445 36.3053C405.634 36.1239 405.739 35.8799 405.739 35.6258C405.739 35.3717 405.634 35.1277 405.445 34.9463C405.256 34.7648 404.999 34.6603 404.729 34.6553V34.6553Z" fill="white"/>
<path d="M404.729 38.2935H391.121C390.852 38.2985 390.595 38.403 390.406 38.5845C390.217 38.7659 390.111 39.0099 390.111 39.264C390.111 39.5181 390.217 39.7621 390.406 39.9435C390.595 40.125 390.852 40.2294 391.121 40.2345H404.729C404.999 40.2294 405.256 40.125 405.445 39.9435C405.634 39.7621 405.739 39.5181 405.739 39.264C405.739 39.0099 405.634 38.7659 405.445 38.5845C405.256 38.403 404.999 38.2985 404.729 38.2935V38.2935Z" fill="white"/>
<path d="M253.456 182.926C253.549 184.17 253.938 185.379 254.595 186.462C256.063 188.719 258.284 190.454 260.91 191.396C264.105 192.627 267.666 192.665 271.056 192.39C274.205 192.135 277.321 191.544 280.482 191.423C282.926 191.349 285.372 191.404 287.81 191.587C292.539 191.903 297.249 192.49 301.928 193.201C303.195 193.391 304.46 193.596 305.722 193.814C305.841 193.824 305.959 193.845 306.074 193.876C306.097 193.885 306.134 193.878 306.155 193.89C306.193 193.913 306.001 193.833 306.117 193.924C306.28 194.084 306.424 194.26 306.549 194.447L308.277 196.542C308.731 197.201 309.267 197.807 309.873 198.346C310.325 198.675 310.87 198.87 311.439 198.908C312.008 198.945 312.577 198.823 313.072 198.556C313.59 198.248 314.003 197.806 314.262 197.284C314.66 196.597 315.134 195.952 315.677 195.36C317.733 193.101 320.59 191.711 322.98 189.811C324.138 188.928 325.126 187.864 325.901 186.666C326.562 185.581 326.974 184.378 327.108 183.134C327.318 180.585 326.643 178.04 325.187 175.882C323.681 173.573 321.518 171.708 318.943 170.499C316.021 169.179 312.87 168.365 309.642 168.098C306.227 167.795 302.796 167.688 299.367 167.778C295.525 167.818 291.691 167.977 287.863 168.255C284.031 168.535 280.213 168.932 276.41 169.447C272.738 169.884 269.095 170.512 265.497 171.33C262.274 171.982 259.288 173.419 256.839 175.497C255.751 176.441 254.887 177.591 254.304 178.871C253.721 180.151 253.432 181.533 253.456 182.926Z" fill="#E6E6E6"/>
<path d="M306.736 174.489H270.374C269.654 174.49 268.963 174.76 268.453 175.24C267.944 175.72 267.657 176.37 267.656 177.049V177.462C267.657 178.141 267.944 178.791 268.453 179.271C268.963 179.751 269.654 180.021 270.374 180.022H306.736C307.457 180.021 308.147 179.751 308.657 179.271C309.166 178.791 309.453 178.141 309.454 177.462V177.049C309.453 176.37 309.166 175.72 308.657 175.24C308.147 174.76 307.457 174.49 306.736 174.489V174.489Z" fill="white"/>
<path d="M306.736 181.512H270.374C269.654 181.513 268.963 181.783 268.453 182.263C267.944 182.743 267.657 183.393 267.656 184.072V184.485C267.657 185.164 267.944 185.814 268.453 186.294C268.963 186.774 269.654 187.044 270.374 187.045H306.736C307.457 187.044 308.147 186.774 308.657 186.294C309.166 185.814 309.453 185.164 309.454 184.485V184.072C309.453 183.393 309.166 182.743 308.657 182.263C308.147 181.783 307.457 181.513 306.736 181.512V181.512Z" fill="white"/>
<path d="M382.234 132.013C382.141 133.258 381.752 134.466 381.095 135.549C379.627 137.806 377.406 139.541 374.78 140.483C371.585 141.714 368.024 141.752 364.634 141.478C361.485 141.223 358.369 140.632 355.208 140.51C352.764 140.436 350.318 140.491 347.88 140.674C343.151 140.991 338.441 141.577 333.762 142.288C332.495 142.479 331.23 142.683 329.968 142.902C329.849 142.911 329.731 142.932 329.616 142.963C329.593 142.972 329.556 142.965 329.535 142.978C329.497 143 329.689 142.92 329.573 143.011C329.411 143.171 329.266 143.347 329.141 143.535L327.413 145.629C326.959 146.288 326.423 146.894 325.817 147.434C325.365 147.762 324.82 147.957 324.251 147.995C323.682 148.032 323.113 147.91 322.618 147.644C322.1 147.335 321.687 146.894 321.428 146.371C321.031 145.684 320.556 145.039 320.014 144.447C317.958 142.188 315.1 140.799 312.71 138.898C311.553 138.015 310.565 136.951 309.789 135.753C309.128 134.669 308.717 133.465 308.582 132.221C308.373 129.672 309.047 127.127 310.504 124.969C312.009 122.66 314.172 120.795 316.747 119.586C319.669 118.266 322.82 117.453 326.048 117.185C329.463 116.882 332.895 116.775 336.323 116.865C340.165 116.905 343.999 117.064 347.827 117.342C351.66 117.622 355.477 118.019 359.28 118.534C362.952 118.971 366.595 119.6 370.193 120.417C373.417 121.069 376.402 122.506 378.851 124.584C379.939 125.528 380.803 126.678 381.386 127.958C381.969 129.238 382.258 130.62 382.234 132.013V132.013Z" fill="#E6E6E6"/>
<path d="M326.236 126.137V126.549C326.237 127.228 326.524 127.879 327.034 128.359C327.543 128.838 328.234 129.109 328.954 129.11H365.316C366.037 129.109 366.727 128.838 367.237 128.359C367.746 127.879 368.033 127.228 368.034 126.549V126.137C368.033 125.458 367.746 124.807 367.237 124.327C366.727 123.847 366.037 123.577 365.316 123.576H328.954C328.234 123.577 327.543 123.847 327.034 124.327C326.524 124.807 326.237 125.458 326.236 126.137Z" fill="white"/>
<path d="M326.236 133.159V133.572C326.237 134.251 326.524 134.901 327.034 135.381C327.543 135.861 328.234 136.131 328.954 136.132H365.316C366.037 136.131 366.727 135.861 367.237 135.381C367.746 134.901 368.033 134.251 368.034 133.572V133.159C368.033 132.481 367.746 131.83 367.237 131.35C366.727 130.87 366.037 130.6 365.316 130.599H328.954C328.234 130.6 327.543 130.87 327.034 131.35C326.524 131.83 326.237 132.481 326.236 133.159Z" fill="white"/>
<path d="M558.766 487.194L547.219 487.193L541.727 445.244L558.768 445.245L558.766 487.194Z" fill="#A0616A"/>
<path d="M558.459 483.64L546.138 478.926L545.775 478.786L538.972 483.64C535.239 483.639 531.649 484.997 528.953 487.429C526.256 489.861 524.661 493.18 524.499 496.693C524.48 496.886 524.48 497.088 524.48 497.29V497.737H561.711V483.64H558.459Z" fill="#2F2E41"/>
<path d="M531.724 477.073L520.833 480.683L500.869 442.828L516.945 437.501L531.724 477.073Z" fill="#A0616A"/>
<path d="M530.182 473.816L516.899 473.221L516.507 473.203L511.8 479.909C508.278 481.075 505.37 483.478 503.684 486.615C501.997 489.752 501.661 493.382 502.747 496.746C502.797 496.934 502.869 497.125 502.94 497.315L503.097 497.737L538.217 486.098L533.25 472.8L530.182 473.816Z" fill="#2F2E41"/>
<path d="M562.846 306.315C573.409 305.929 560.324 385.221 560.324 385.221C560.324 385.221 564.152 454.836 563.34 458.489C562.529 462.142 563.238 471.995 563.238 471.995C561.168 468.447 539.817 471.125 539.817 471.125L536.912 400.571L522.082 344.04L501.521 381.933L521.228 440.097C521.228 440.097 529.208 447.053 528.359 449.802C527.511 452.55 506.607 458.749 502.766 458.89C498.925 459.03 500.659 454.437 500.473 449.914C500.287 445.392 482.211 403.474 475.854 389.212C469.496 374.95 474.439 354.84 477.684 340.227C480.929 325.614 498.003 298.19 498.003 298.19C519.197 275.674 552.283 306.701 562.846 306.315Z" fill="#2F2E41"/>
<path d="M557.359 319.026C531.163 319.027 516.726 314.088 509.06 309.678C499.686 304.285 498.082 298.598 498.019 298.358L498 298.289L498.912 287.474L499.311 286.633C501.15 282.756 501.394 278.374 499.996 274.337L499.967 274.254L499.974 274.167L506.1 199.339L527.776 192.651L534.082 186.683L562.159 186.3L566.071 193.77L588.205 201.619L577.331 262.588L572.118 271.051L574.216 280.271L574.201 280.354L567.362 318.802L566.986 318.817C563.613 318.96 560.404 319.029 557.359 319.026Z" fill="#E6E6E6"/>
<path d="M568.279 161.129C567.437 166.915 564.19 172.15 559.252 175.682C554.314 179.215 548.09 180.757 541.946 179.969C535.802 179.181 530.241 176.129 526.485 171.482C522.73 166.835 521.086 160.973 521.915 155.185L521.961 154.872C522.93 149.162 526.244 144.039 531.187 140.609C536.13 137.179 542.307 135.717 548.384 136.538C554.462 137.359 559.953 140.397 563.674 144.997C567.394 149.597 569.046 155.391 568.272 161.128L568.279 161.129Z" fill="#A0616A"/>
<path d="M562.324 172.479C563.526 170.181 564.76 167.713 564.422 165.17C564.085 162.628 561.438 160.197 558.838 160.953C557.284 161.405 556.109 162.851 554.484 162.925C552.249 163.026 550.967 160.616 550.271 158.613L547.437 150.452C544.716 152.45 541.56 153.857 538.194 154.573C534.829 155.29 531.337 155.297 527.968 154.596C525.337 154.029 522.679 152.925 521.135 150.839C519.592 148.753 519.601 145.518 521.718 143.941C522.756 143.167 524.138 142.874 525.13 142.048C525.745 141.536 526.169 140.852 526.339 140.095C526.509 139.338 526.416 138.55 526.074 137.848C525.731 137.145 525.158 136.564 524.438 136.192C523.718 135.82 522.89 135.677 522.077 135.782L529.213 134.942L527.087 131.32C527.895 131.838 528.809 132.192 529.77 132.358C530.732 132.524 531.72 132.499 532.671 132.285C534.59 131.959 536.398 131.215 538.277 130.718C542.829 129.623 547.636 129.958 551.968 131.671C556.3 133.385 559.92 136.383 562.278 140.211C564.034 139.659 565.926 139.622 567.705 140.106C569.484 140.59 571.064 141.571 572.237 142.92C574.147 145.204 574.667 148.251 574.741 151.158C574.88 156.889 573.553 162.567 570.873 167.713C570.104 169.348 569 170.824 567.624 172.055C566.931 172.665 566.105 173.126 565.203 173.403C564.301 173.681 563.346 173.77 562.404 173.663" fill="#2F2E41"/>
<path d="M297.791 370.252C297.681 370.252 297.571 370.25 297.46 370.246C296.162 370.202 294.895 369.863 293.767 369.258C292.639 368.654 291.682 367.801 290.978 366.774C285.708 359.355 279.241 352.756 271.81 347.216C267.312 343.829 262.611 340.68 258.065 337.634C246.337 329.78 235.293 322.382 229.162 312.161C215.795 289.872 231.537 258.828 254.025 244.905C279.249 229.29 312.426 226.841 344.522 226.52C347.857 226.487 351.195 226.47 354.534 226.47C412.364 226.491 470.072 231.461 526.946 241.319C545.858 244.606 565.654 248.632 581.562 258.403C597.376 268.116 606.988 283.411 606.05 297.371C604.681 317.75 581.746 332.978 560.861 336.959C540.955 340.75 520.275 338.188 498.382 335.474C493.549 334.876 488.552 334.257 483.61 333.718C429.903 327.871 329.01 345.894 324.742 346.664L320.507 347.428L304.076 367.344C303.337 368.252 302.385 368.987 301.295 369.491C300.205 369.996 299.006 370.256 297.791 370.252Z" fill="#6C63FF"/>
<path d="M536.955 270.836H309.953C308.643 270.836 307.387 270.346 306.46 269.473C305.534 268.601 305.014 267.417 305.014 266.183C305.014 264.95 305.534 263.766 306.46 262.894C307.387 262.021 308.643 261.531 309.953 261.531H536.955C538.265 261.531 539.521 262.021 540.448 262.894C541.374 263.766 541.894 264.95 541.894 266.183C541.894 267.417 541.374 268.601 540.448 269.473C539.521 270.346 538.265 270.836 536.955 270.836Z" fill="white"/>
<path d="M536.955 299.392H309.953C309.304 299.393 308.661 299.274 308.061 299.041C307.461 298.808 306.915 298.466 306.456 298.034C305.996 297.602 305.631 297.09 305.382 296.525C305.133 295.961 305.005 295.356 305.004 294.744C305.003 294.133 305.13 293.528 305.378 292.963C305.626 292.398 305.99 291.884 306.448 291.452C306.907 291.019 307.452 290.676 308.051 290.442C308.651 290.208 309.293 290.087 309.942 290.087H536.955C538.264 290.089 539.518 290.58 540.443 291.452C541.368 292.324 541.887 293.507 541.887 294.739C541.887 295.972 541.368 297.154 540.443 298.027C539.518 298.899 538.264 299.39 536.955 299.392V299.392Z" fill="white"/>
<path d="M336.406 327.947H309.952C308.643 327.945 307.389 327.454 306.464 326.582C305.539 325.71 305.02 324.527 305.02 323.295C305.02 322.062 305.539 320.879 306.464 320.007C307.389 319.135 308.643 318.644 309.952 318.642H336.406C337.714 318.644 338.969 319.135 339.894 320.007C340.818 320.879 341.338 322.062 341.338 323.295C341.338 324.527 340.818 325.71 339.894 326.582C338.969 327.454 337.714 327.945 336.406 327.947V327.947Z" fill="white"/>
<path d="M555.635 344.028C557.001 343.528 558.233 342.751 559.246 341.754C560.259 340.757 561.027 339.562 561.497 338.255C561.967 336.948 562.126 335.559 561.965 334.188C561.803 332.816 561.324 331.494 560.562 330.316L585.27 247.54L563.591 245.406L546.121 327.443C544.104 328.781 542.678 330.769 542.113 333.031C541.549 335.293 541.884 337.672 543.057 339.716C544.23 341.76 546.158 343.328 548.476 344.123C550.795 344.918 553.342 344.884 555.635 344.028V344.028Z" fill="#A0616A"/>
<path d="M588.924 202.101C588.924 202.101 594.215 202.28 591.6 212.555C589.506 220.782 581.816 272.385 575.804 282.675C577.102 283.776 577.975 285.254 578.284 286.874C578.593 288.494 578.321 290.165 577.51 291.624L553.552 282.316C551.563 277.113 553.104 272.388 555.367 271.97L558.166 256.92L562.291 206.433L585.102 201.908L588.924 202.101Z" fill="#E6E6E6"/>
<path d="M458.763 337.308C457.883 336.204 457.271 334.932 456.97 333.581C456.669 332.23 456.686 330.834 457.019 329.49C457.353 328.146 457.996 326.888 458.902 325.803C459.808 324.718 460.955 323.834 462.263 323.212L487.669 240.625L507.276 249.591L476.138 327.953C477.101 330.092 477.198 332.49 476.41 334.692C475.622 336.894 474.003 338.747 471.862 339.9C469.72 341.053 467.203 341.426 464.789 340.948C462.375 340.47 460.231 339.175 458.763 337.308V337.308Z" fill="#A0616A"/>
<path d="M510.031 200.215C510.031 200.215 505.437 197.736 501.899 207.763C499.067 215.791 476.678 263.443 476.018 275.171C474.297 275.461 472.728 276.282 471.558 277.504C470.387 278.727 469.682 280.281 469.553 281.923L495.117 285.93C499.723 282.5 501.062 277.722 499.374 276.241L505.431 262.068L530.223 217.137L513.386 201.951L510.031 200.215Z" fill="#E6E6E6"/>
<path d="M698.891 499.73L1.11033 500C0.816593 499.999 0.535185 499.889 0.327783 499.693C0.120381 499.497 0.00390625 499.232 0.00390625 498.955C0.00390625 498.678 0.120381 498.413 0.327783 498.217C0.535185 498.021 0.816593 497.91 1.11033 497.91L698.891 497.64C699.185 497.641 699.466 497.751 699.674 497.947C699.881 498.143 699.998 498.408 699.998 498.685C699.998 498.962 699.881 499.227 699.674 499.423C699.466 499.619 699.185 499.73 698.891 499.73V499.73Z" fill="#CACACA"/>
<path d="M299.976 453.343C292.841 453.343 285.865 451.35 279.932 447.616C273.999 443.882 269.375 438.575 266.645 432.365C263.914 426.156 263.2 419.323 264.592 412.731C265.984 406.139 269.42 400.084 274.465 395.331C279.511 390.579 285.939 387.342 292.938 386.031C299.936 384.72 307.19 385.393 313.782 387.965C320.375 390.537 326.009 394.893 329.973 400.481C333.938 406.069 336.054 412.64 336.054 419.361C336.043 428.37 332.238 437.008 325.475 443.379C318.711 449.749 309.541 453.333 299.976 453.343V453.343ZM299.976 387.134C293.209 387.134 286.594 389.024 280.968 392.565C275.342 396.106 270.956 401.139 268.367 407.028C265.777 412.917 265.1 419.396 266.42 425.648C267.74 431.899 270.998 437.641 275.783 442.148C280.568 446.655 286.664 449.725 293.301 450.968C299.938 452.212 306.817 451.573 313.069 449.134C319.321 446.695 324.664 442.564 328.424 437.265C332.183 431.965 334.19 425.734 334.19 419.361C334.179 410.816 330.572 402.625 324.157 396.584C317.743 390.542 309.047 387.144 299.976 387.134Z" fill="white"/>
<path d="M297.346 432.591C297.271 432.591 297.196 432.589 297.121 432.586C296.459 432.555 295.812 432.391 295.224 432.103C294.636 431.815 294.121 431.411 293.714 430.918L287.84 423.806C287.47 423.357 287.196 422.843 287.036 422.295C286.876 421.747 286.832 421.174 286.907 420.609C286.981 420.045 287.174 419.5 287.472 419.005C287.771 418.511 288.17 418.076 288.646 417.727L288.858 417.572C289.334 417.223 289.88 416.965 290.462 416.814C291.044 416.663 291.653 416.622 292.252 416.692C292.852 416.763 293.43 416.944 293.955 417.225C294.481 417.507 294.942 417.883 295.312 418.332C295.609 418.691 295.984 418.985 296.413 419.194C296.841 419.404 297.313 419.524 297.795 419.546C298.277 419.568 298.759 419.492 299.207 419.323C299.655 419.153 300.059 418.895 300.391 418.565L312.317 406.706C313.156 405.873 314.312 405.388 315.531 405.357C316.75 405.326 317.932 405.751 318.818 406.54L319.014 406.715C319.452 407.106 319.805 407.575 320.051 408.095C320.297 408.614 320.432 409.174 320.448 409.743C320.465 410.311 320.362 410.877 320.146 411.409C319.93 411.94 319.605 412.426 319.189 412.839L300.683 431.238C300.253 431.666 299.736 432.006 299.162 432.239C298.588 432.471 297.97 432.591 297.346 432.591V432.591Z" fill="#6C63FF"/>
</g>
<defs>
<clipPath id="clip0_919_4135">
<rect width="700" height="500" fill="white"/>
</clipPath>
</defs>
</svg>
