<svg width="31" height="50" viewBox="0 0 31 50" fill="none" xmlns="http://www.w3.org/2000/svg">
<path d="M28.1562 6.92137H22.3125V4.37548C22.3125 3.25012 22.0326 2.17086 21.5345 1.37512C21.0364 0.57937 20.3607 0.132324 19.6562 0.132324H2.65625C1.95177 0.132324 1.27614 0.57937 0.777998 1.37512C0.279854 2.17086 0 3.25012 0 4.37548V12.8618C0 13.0869 0.0559708 13.3027 0.1556 13.4619C0.255228 13.621 0.390354 13.7104 0.53125 13.7104H4.25V45.1098C4.25 46.2351 4.52985 47.3144 5.028 48.1101C5.52614 48.9059 6.20177 49.3529 6.90625 49.3529H23.9062C24.6107 49.3529 25.2864 48.9059 25.7845 48.1101C26.2826 47.3144 26.5625 46.2351 26.5625 45.1098V40.018C26.5625 39.8604 26.535 39.7059 26.4832 39.5718C26.4313 39.4378 26.3571 39.3294 26.2688 39.2589C26.1806 39.1885 26.0818 39.1586 25.9835 39.1728C25.8853 39.1869 25.7914 39.2445 25.7125 39.3391L23.1944 42.3517L22.3125 41.2909V28.9858H28.1562C28.8607 28.9858 29.5364 28.5387 30.0345 27.743C30.5326 26.9472 30.8125 25.868 30.8125 24.7426V11.1645C30.8125 10.0392 30.5326 8.95991 30.0345 8.16416C29.5364 7.36842 28.8607 6.92137 28.1562 6.92137ZM29.75 11.1645V13.7104H12.75V11.1645C12.75 10.4893 12.9179 9.84176 13.2168 9.36431C13.5157 8.88686 13.9211 8.61863 14.3438 8.61863H28.1562C28.5789 8.61863 28.9843 8.88686 29.2832 9.36431C29.5821 9.84176 29.75 10.4893 29.75 11.1645ZM29.75 17.9536H12.75V15.4077H29.75V17.9536ZM1.0625 12.0132V4.37548C1.0625 3.70027 1.23041 3.05271 1.5293 2.57526C1.82818 2.09781 2.23356 1.82959 2.65625 1.82959C3.07894 1.82959 3.48432 2.09781 3.7832 2.57526C4.08209 3.05271 4.25 3.70027 4.25 4.37548V12.0132H1.0625ZM23.5131 44.0914L25.5 41.7152V45.1098C25.5 45.785 25.3321 46.4325 25.0332 46.91C24.7343 47.3874 24.3289 47.6557 23.9062 47.6557H9.03125C9.37609 46.9212 9.5625 46.0279 9.5625 45.1098V41.7152L11.5441 44.0914C11.636 44.2016 11.7479 44.2611 11.8628 44.2611C11.9778 44.2611 12.0896 44.2016 12.1816 44.0914L14.6944 41.0788L17.2072 44.0914C17.2991 44.2016 17.411 44.2611 17.5259 44.2611C17.6409 44.2611 17.7527 44.2016 17.8447 44.0914L20.3628 41.0788L22.8756 44.0914C22.9676 44.2016 23.0794 44.2611 23.1944 44.2611C23.3093 44.2611 23.4212 44.2016 23.5131 44.0914ZM21.25 40.018L20.6762 39.3306C20.5848 39.2224 20.474 39.164 20.3602 39.164C20.2463 39.164 20.1355 39.2224 20.0441 39.3306L17.5312 42.3517L15.0131 39.3391C14.9212 39.2289 14.8093 39.1693 14.6944 39.1693C14.5794 39.1693 14.4676 39.2289 14.3756 39.3391L11.8628 42.3517L9.35 39.3391C9.27107 39.2445 9.17722 39.1869 9.07896 39.1728C8.9807 39.1586 8.88191 39.1885 8.79367 39.2589C8.70542 39.3294 8.63121 39.4378 8.57934 39.5718C8.52747 39.7059 8.5 39.8604 8.5 40.018V45.1098C8.5 45.785 8.33209 46.4325 8.0332 46.91C7.73432 47.3874 7.32894 47.6557 6.90625 47.6557C6.48356 47.6557 6.07818 47.3874 5.7793 46.91C5.48041 46.4325 5.3125 45.785 5.3125 45.1098V4.37548C5.3024 3.46008 5.117 2.57159 4.78125 1.82959H19.6562C20.0789 1.82959 20.4843 2.09781 20.7832 2.57526C21.0821 3.05271 21.25 3.70027 21.25 4.37548V6.92137H14.3438C13.6393 6.92137 12.9636 7.36842 12.4655 8.16416C11.9674 8.95991 11.6875 10.0392 11.6875 11.1645V24.7426C11.6875 25.868 11.9674 26.9472 12.4655 27.743C12.9636 28.5387 13.6393 28.9858 14.3438 28.9858H21.25V40.018ZM28.1562 27.2885H14.3438C13.9211 27.2885 13.5157 27.0203 13.2168 26.5428C12.9179 26.0654 12.75 25.4178 12.75 24.7426V19.6508H29.75V24.7426C29.75 25.4178 29.5821 26.0654 29.2832 26.5428C28.9843 27.0203 28.5789 27.2885 28.1562 27.2885Z" fill="#7F3DFF"/>
</svg>
