<svg width="33" height="46" viewBox="0 0 33 46" fill="none" xmlns="http://www.w3.org/2000/svg">
<path d="M30.26 36.4384C29.9247 36.4384 29.6529 36.8726 29.6529 37.4083V40.958C29.6529 42.5649 28.8374 43.8676 27.8314 43.8676H3.03571C2.02977 43.8676 1.21429 42.5649 1.21429 40.958V9.92232C1.21429 8.31539 2.02977 7.01273 3.03571 7.01273H8.99786C9.33317 7.01273 9.605 6.5785 9.605 6.04286C9.605 5.50722 9.33317 5.073 8.99786 5.073H3.03571C1.35914 5.073 0 7.24411 0 9.92232V40.958C0 43.6362 1.35914 45.8073 3.03571 45.8073H27.8314C29.5052 45.7967 30.8605 43.6318 30.8671 40.958V37.4083C30.8671 36.8726 30.5953 36.4384 30.26 36.4384Z" fill="#7F3DFF"/>
<path d="M30.9648 20.2224H30.8677V9.92241C30.861 7.24862 29.5058 5.08372 27.832 5.07309C27.4967 5.07309 27.2248 5.50731 27.2248 6.04295C27.2248 6.5786 27.4967 7.01282 27.832 7.01282C28.8379 7.01282 29.6534 8.31549 29.6534 9.92241V10.4655H28.9734L25.3306 4.64635L22.6834 0.417744C22.5694 0.234136 22.4142 0.130859 22.2523 0.130859C22.0905 0.130859 21.9353 0.234136 21.8213 0.417744L18.6156 5.53863L15.3977 0.417744C15.1575 0.0457362 14.7758 0.0457362 14.5356 0.417744L8.24556 10.4655H6.07199C5.73667 10.4655 5.46484 10.8998 5.46484 11.4354C5.46484 11.971 5.73667 12.4053 6.07199 12.4053H29.6534V20.1642H26.1077C23.7605 20.1642 21.8577 23.2037 21.8577 26.9532V27.6903C21.8577 31.4398 23.7605 34.4794 26.1077 34.4794H30.9648C31.9708 34.4794 32.7863 33.1767 32.7863 31.5698V23.132C32.7863 21.525 31.9708 20.2224 30.9648 20.2224ZM22.2584 2.47386L24.0191 5.28646C22.9543 6.42929 21.5625 6.42929 20.4977 5.28646L22.2584 2.47386ZM19.6356 6.66367C21.1843 8.55208 23.3325 8.55208 24.8813 6.66367L27.3098 10.5431H21.6877L19.4656 6.91583L19.6356 6.66367ZM12.5927 10.5431L16.2356 4.72394L17.0856 6.08175L14.2927 10.4655L12.5927 10.5431ZM17.9963 7.38137L20.0363 10.4655H16.0048L17.9963 7.38137ZM14.9727 2.47386L15.422 3.19155L10.8684 10.4655H9.96984L14.9727 2.47386ZM31.572 31.5698C31.572 32.1054 31.3002 32.5396 30.9648 32.5396H26.1077C25.3026 32.5396 24.5304 32.0287 23.9611 31.1193C23.3918 30.2099 23.072 28.9764 23.072 27.6903V26.9532C23.072 24.275 24.4311 22.1039 26.1077 22.1039H30.9648C31.3002 22.1039 31.572 22.5381 31.572 23.0738V31.5698Z" fill="#7F3DFF"/>
<path d="M26.2045 29.3196C26.8752 29.3196 27.4188 28.4512 27.4188 27.3799C27.4188 26.3086 26.8752 25.4402 26.2045 25.4402C25.5339 25.4402 24.9902 26.3086 24.9902 27.3799C24.9902 28.4512 25.5339 29.3196 26.2045 29.3196Z" fill="#7F3DFF"/>
</svg>
