<svg width="137" height="23" viewBox="0 0 137 23" fill="none" xmlns="http://www.w3.org/2000/svg">
<g clip-path="url(#clip0_626_3900)">
<path d="M26.812 3.86274L26.1816 3.12798L26.9603 2.57376C27.2528 2.36803 27.5659 2.1539 27.8831 1.98176C29.0276 1.30688 30.257 0.794137 31.5374 0.457672C33.9349 -0.167938 36.4484 -0.167938 38.8459 0.457672C40.1273 0.791205 41.357 1.30411 42.5002 1.98176C43.8744 2.78626 45.109 3.81614 46.1545 5.02995C46.7967 5.7739 47.3665 6.57961 47.8559 7.43576C49.1373 9.70074 49.8108 12.2696 49.8087 14.8841V22.7607H41.2313V14.8841C41.2313 13.8032 40.952 12.7414 40.4215 11.8055C39.891 10.8695 39.1281 10.0925 38.2094 9.55241C37.2907 9.01235 36.2486 8.72835 35.1881 8.729C34.1275 8.72964 33.0858 9.01489 32.1677 9.55606C31.9061 9.70931 31.6567 9.88339 31.422 10.0767L30.4704 10.8534L30.0913 9.67362C29.9307 9.17398 29.7453 8.68275 29.5393 8.20831C29.0352 7.02403 28.3949 5.90496 27.6318 4.87461C27.3723 4.53872 27.0962 4.19443 26.812 3.86274Z" fill="#200060"/>
<path d="M0 14.8841V22.7607H8.55272V14.8841C8.55272 13.2561 9.1873 11.6948 10.3169 10.5436C11.4464 9.39244 12.9784 8.74572 14.5759 8.74572C16.1733 8.74572 17.7053 9.39244 18.8349 10.5436C19.9644 11.6948 20.599 13.2561 20.599 14.8841V22.7607H29.1517V14.8841C29.1588 11.3703 27.9428 7.96787 25.7199 5.28186L25.4769 4.98795L25.2503 4.73603C24.9207 4.37495 24.5746 4.03068 24.2203 3.71158C23.492 3.05684 22.7028 2.47608 21.8638 1.97755C18.5555 0.0301091 14.6291 -0.51568 10.9298 0.457657C10.0934 0.676674 9.27844 0.973206 8.49504 1.34356C8.08306 1.53669 7.67108 1.76341 7.28382 1.98174C5.07033 3.29644 3.23256 5.17805 1.95279 7.43994C1.28951 8.60678 0.787642 9.86144 0.461422 11.1683C0.155052 12.3822 2.01437e-05 13.6307 0 14.8841Z" fill="#200060"/>
<path d="M14.5354 12.1592C14.8618 12.1592 15.1849 12.225 15.4862 12.3529C15.7874 12.4808 16.0608 12.6683 16.2907 12.9044C16.5205 13.1406 16.7021 13.4208 16.8251 13.7288C16.9481 14.0369 17.01 14.3668 17.0073 14.6993V22.7733H12.043V14.6993C12.043 14.0256 12.3056 13.3795 12.773 12.9032C13.2404 12.4268 13.8744 12.1592 14.5354 12.1592Z" fill="#7F3DFF"/>
<path d="M81.9723 8.39724C81.3611 7.75748 80.6353 7.24298 79.8341 6.88155C79.0128 6.5113 78.1244 6.32104 77.2263 6.32312C75.8533 6.29908 74.508 6.7179 73.3825 7.51973C72.6708 8.04484 72.0745 8.71552 71.6316 9.48888C71.5107 9.30414 71.3872 9.12781 71.2608 8.95986C70.8212 8.38504 70.299 7.88112 69.7118 7.46515C69.1641 7.07822 68.559 6.78337 67.9197 6.59184C66.7459 6.24996 65.5035 6.23691 64.3231 6.55405C63.7271 6.70941 63.1576 6.95571 62.6339 7.28461C62.2928 7.49875 61.9739 7.74776 61.6823 8.02777V6.68421H59.334V22.6641H61.6781L61.7029 13.5153C61.6975 12.8352 61.8177 12.1601 62.0572 11.5252C62.2728 10.9517 62.5945 10.4258 63.0047 9.97592C63.3987 9.54705 63.8719 9.20176 64.3972 8.95986C64.9272 8.7183 65.5017 8.59517 66.0822 8.59878C66.6506 8.5968 67.2128 8.71997 67.7301 8.95986C68.2642 9.21 68.7444 9.5653 69.1432 10.0053C69.5666 10.4752 69.8992 11.0221 70.1237 11.6176C70.3725 12.2705 70.4956 12.9662 70.4863 13.6665V22.6599H72.8346V13.5363C72.8273 12.8597 72.9491 12.1881 73.193 11.5588C73.4167 10.9783 73.745 10.4457 74.1612 9.98852C74.5558 9.55827 75.0287 9.21033 75.5537 8.96405C76.0701 8.72132 76.6329 8.59802 77.2016 8.60298C77.77 8.60087 78.3322 8.72404 78.8495 8.96405C79.3776 9.21048 79.8512 9.56324 80.242 10.0011C80.6628 10.4792 80.9975 11.0293 81.2307 11.626C81.4835 12.2765 81.6094 12.971 81.6015 13.6707V22.6641H83.9457V13.5363C83.9542 12.5548 83.7707 11.5814 83.406 10.6729C83.0743 9.8284 82.5877 9.05607 81.9723 8.39724Z" fill="#7F3DFF"/>
<path d="M99.9061 8.79609C99.1638 8.03561 98.2874 7.42454 97.323 6.99488C96.3152 6.54544 95.2261 6.31658 94.126 6.3231C93.0265 6.3183 91.9374 6.54115 90.9249 6.9781C88.9633 7.81828 87.4029 9.4085 86.5785 11.4076C86.1466 12.4357 85.9264 13.5432 85.9317 14.6616C85.9274 15.777 86.1519 16.8811 86.5909 17.9029C87.4284 19.893 88.9845 21.4789 90.9373 22.3324C91.9468 22.7811 93.0371 23.0099 94.1384 23.0042C95.0858 23.003 96.0256 22.8325 96.9151 22.5004C97.8026 22.1682 98.6285 21.6855 99.3582 21.0728L100.075 20.4724L98.4271 18.793L97.838 19.28C97.303 19.7226 96.7058 20.0807 96.0664 20.3423C95.4469 20.5892 94.7871 20.7146 94.1219 20.7118C93.3599 20.7179 92.605 20.5621 91.9055 20.2541C91.2274 19.9524 90.61 19.5253 90.0845 18.9945C89.555 18.452 89.1265 17.8161 88.8197 17.1177C88.6257 16.6834 88.4792 16.2286 88.383 15.7616H102.283V14.6322C102.287 13.5302 102.067 12.4395 101.636 11.4286C101.224 10.4496 100.638 9.55698 99.9061 8.79609ZM94.1384 8.60296C94.8909 8.5989 95.6359 8.75476 96.326 9.06061C97.0057 9.36155 97.6246 9.78867 98.1511 10.3202C98.6773 10.8517 99.1045 11.4762 99.4117 12.1634C99.5962 12.5919 99.7343 13.0396 99.8237 13.4985H88.3913C88.48 13.0543 88.6182 12.6219 88.8032 12.2096C89.1109 11.5169 89.541 10.8878 90.0721 10.3538C90.6071 9.82503 91.2308 9.3984 91.9137 9.09419C92.6067 8.76473 93.3613 8.59145 94.126 8.58616L94.1384 8.60296Z" fill="#7F3DFF"/>
<path d="M116.697 8.37624C116.045 7.71832 115.268 7.20261 114.414 6.86054C112.889 6.25146 111.213 6.15727 109.631 6.59183C109.001 6.76632 108.395 7.02019 107.827 7.34757C107.396 7.5971 106.99 7.88965 106.616 8.22089V6.6842H104.271V22.6641H106.616V13.4272C106.615 12.8024 106.756 12.1859 107.028 11.626C107.304 11.0443 107.681 10.5181 108.14 10.0725C108.611 9.62342 109.155 9.25989 109.747 8.99764C110.929 8.48627 112.263 8.47418 113.455 8.96404C114.023 9.19214 114.542 9.53163 114.983 9.96331C115.428 10.4142 115.781 10.9509 116.021 11.542C116.288 12.2197 116.419 12.9448 116.408 13.6749V22.6683H118.753V13.6245C118.762 12.6256 118.58 11.6343 118.217 10.7065C117.866 9.83511 117.349 9.04315 116.697 8.37624Z" fill="#7F3DFF"/>
<path d="M134.672 1.70463V8.79189C134.151 8.24432 133.556 7.77624 132.904 7.40215C132.272 7.04025 131.595 6.76899 130.89 6.59602C129.121 6.13677 127.253 6.28433 125.575 7.01588C124.603 7.44911 123.724 8.07248 122.988 8.85068C122.262 9.62782 121.69 10.5401 121.303 11.5378C120.898 12.5625 120.692 13.6576 120.697 14.7623C120.69 15.8821 120.919 16.9904 121.369 18.0121C121.797 18.9841 122.403 19.8645 123.153 20.6068C123.904 21.3446 124.782 21.934 125.744 22.345C126.735 22.7751 127.802 22.9951 128.879 22.9916C129.574 22.989 130.266 22.9002 130.939 22.7271C131.656 22.552 132.344 22.269 132.979 21.8874C133.593 21.511 134.158 21.0567 134.659 20.5354V22.6935H136.987V1.70044L134.672 1.70463ZM128.879 8.62395C129.654 8.62041 130.422 8.78052 131.133 9.09419C131.828 9.40107 132.458 9.84318 132.987 10.3958C133.517 10.9621 133.936 11.6261 134.223 12.3523C134.531 13.1371 134.687 13.9757 134.68 14.8211C134.681 15.5922 134.527 16.3554 134.227 17.0632C133.936 17.7659 133.517 18.4057 132.991 18.9483C132.451 19.4944 131.817 19.9342 131.121 20.2457C130.413 20.5564 129.651 20.7166 128.881 20.7166C128.111 20.7166 127.349 20.5564 126.642 20.2457C125.945 19.936 125.311 19.4959 124.772 18.9483C124.237 18.3988 123.806 17.7542 123.499 17.0464C123.192 16.3272 123.036 15.5507 123.042 14.7665C123.034 13.9608 123.174 13.1606 123.454 12.4069C123.723 11.6801 124.131 11.015 124.655 10.45C125.178 9.88498 125.806 9.4313 126.502 9.11519C127.25 8.77547 128.061 8.60775 128.879 8.62395Z" fill="#7F3DFF"/>
</g>
<defs>
<clipPath id="clip0_626_3900">
<rect width="137" height="23" fill="white"/>
</clipPath>
</defs>
</svg>
